<svg width="25" height="20" viewBox="0 0 25 20" fill="none" xmlns="http://www.w3.org/2000/svg">
<path d="M23.8851 5.94211L20.5739 1.19143C20.0388 0.42429 19.3457 2.97222e-05 18.6272 2.97222e-05H10.3896C9.48899 -0.00512435 8.63805 0.660291 8.08721 1.80015L6.03506 6.02132L2.70828 6.40001C1.18392 6.58338 0.00423858 8.61218 0 11.0582V16.0001C0 16.3682 0.186497 16.6666 0.416737 16.6666H1.70408C1.93296 18.8427 3.22081 20.31 4.58089 19.944C5.63036 19.6617 6.45264 18.346 6.62914 16.6666H17.9543C18.183 18.8427 19.4708 20.31 20.8309 19.944C21.8804 19.6617 22.7027 18.346 22.8792 16.6666H24.5834C24.8135 16.6666 25 16.3682 25 16.0001V10.2089C25.0029 8.61679 24.6073 7.08929 23.9017 5.96679L23.8851 5.94211ZM0.833305 11.3335V11.0582C0.836187 10.9293 0.844155 10.801 0.856701 10.6741C1.08491 10.7215 1.2458 11.056 1.21613 11.4211C1.1907 11.735 1.03065 11.977 0.833305 12V11.3335ZM4.16669 18.6667C3.24624 18.6667 2.50008 17.4728 2.50008 16.0001C2.50008 14.5274 3.24624 13.3336 4.16669 13.3336C5.08714 13.3336 5.8333 14.5274 5.8333 16.0001C5.8333 17.4728 5.08714 18.6667 4.16669 18.6667ZM5.8333 13.0268C5.82499 13.0154 5.81719 13.0029 5.80838 12.9907C5.79956 12.9787 5.78837 12.96 5.77752 12.9454C5.67986 12.8146 5.5761 12.6958 5.46709 12.5903L5.413 12.5374C5.30365 12.437 5.18989 12.3497 5.07256 12.2762L5.01085 12.2395C4.88861 12.1687 4.76331 12.1131 4.63582 12.0735C4.6192 12.0681 4.60259 12.0657 4.5858 12.0608C4.30843 11.9799 4.02411 11.9799 3.74673 12.0608C3.72995 12.0657 3.71333 12.0684 3.69672 12.0735C3.56922 12.1131 3.44376 12.1687 3.32169 12.2395L3.25998 12.2762C3.14265 12.3497 3.02889 12.437 2.91953 12.5374L2.86545 12.5903C2.75643 12.6958 2.65267 12.8146 2.55502 12.9454C2.54416 12.96 2.5345 12.976 2.52416 12.9907C2.42396 13.129 2.33088 13.2801 2.24577 13.4421L2.24119 13.4508C2.15727 13.6149 2.08148 13.789 2.01451 13.9721C2.0062 13.9955 1.99671 14.0174 1.98823 14.0389C1.92584 14.2168 1.8721 14.4026 1.82784 14.5941C1.82005 14.6267 1.81242 14.6609 1.80546 14.6921C1.76291 14.8866 1.73019 15.0862 1.70747 15.2888C1.70747 15.3035 1.70204 15.3162 1.70035 15.3309H0.833305V13.3336C1.52368 13.3224 2.07775 12.4183 2.07097 11.3137C2.06537 10.4017 1.67475 9.61125 1.12136 9.39207C1.46536 8.43776 2.08182 7.81683 2.76847 7.73355L5.83347 7.3828V13.0268H5.8333ZM13.3334 15.3333H6.66661V7.33343H13.3334V15.3333ZM13.3334 6.00016H7.10216L8.74504 2.62073C9.13821 1.80558 9.74602 1.32978 10.3896 1.33357H13.3334V6.00016ZM20.8335 3.35478L22.6776 6.00016H20.8335V3.35478ZM14.1667 1.33357H18.625C19.1312 1.3333 19.62 1.62844 20.0002 2.16338V6.00016H14.1667V1.33357ZM18.4922 13.4508C18.4081 13.6149 18.3324 13.789 18.2656 13.9721C18.2571 13.9955 18.2476 14.0174 18.2393 14.0389C18.1767 14.2168 18.1231 14.4026 18.0787 14.5941C18.0709 14.6267 18.0635 14.6609 18.0563 14.6921C18.014 14.8866 17.9811 15.0862 17.9583 15.2888C17.9583 15.3035 17.9529 15.316 17.9514 15.3306H14.1667V7.33343H20.0002V12.06H19.9971C19.9805 12.0646 19.9639 12.0673 19.9473 12.0727C19.8198 12.1123 19.6943 12.1679 19.5722 12.2387L19.5105 12.2754C19.3932 12.3489 19.2793 12.4362 19.1701 12.5366L19.116 12.5892C19.007 12.695 18.9032 12.8138 18.8056 12.9446C18.7947 12.9592 18.785 12.9752 18.7747 12.9899C18.6745 13.1282 18.5814 13.279 18.4963 13.4413L18.4922 13.4508ZM20.4167 18.6667C19.4963 18.6667 18.7501 17.4728 18.7501 16.0001C18.7501 14.5274 19.4963 13.3336 20.4167 13.3336C21.3372 13.3336 22.0835 14.5274 22.0835 16.0001C22.0835 17.4728 21.3372 18.6667 20.4167 18.6667ZM24.1668 15.3333H22.8822C22.8822 15.3187 22.8768 15.3059 22.8751 15.2913C22.8524 15.0887 22.8197 14.889 22.7773 14.6948C22.7702 14.6614 22.7627 14.628 22.7547 14.5968C22.7105 14.4053 22.6567 14.2195 22.5943 14.0413C22.586 14.0174 22.5764 13.9955 22.5681 13.9748C22.5011 13.7917 22.4253 13.6176 22.3414 13.4535L22.3368 13.4448C22.2517 13.2826 22.1586 13.1317 22.0584 12.9934C22.0481 12.9787 22.0384 12.9627 22.0276 12.9481C21.9299 12.8171 21.8261 12.6985 21.7171 12.5927L21.663 12.5401C21.5537 12.4395 21.4399 12.3521 21.3226 12.2789L21.2609 12.242C21.1388 12.1712 21.0133 12.1159 20.8859 12.076C20.8692 12.0708 20.8526 12.0681 20.8358 12.0635H20.8335V7.33343H23.5451C23.949 8.15238 24.168 9.16556 24.1667 10.2089V15.3333H24.1668Z" fill="#338216"/>
</svg>
