<svg width="25" height="25" viewBox="0 0 25 25" fill="none" xmlns="http://www.w3.org/2000/svg">
<path d="M14.1304 12.1504H13.0435C13.0435 12.3716 12.8 12.5519 12.5 12.5519C12.2 12.5519 11.9565 12.3716 11.9565 12.1504H10.8696C10.8696 12.8146 11.6011 13.355 12.5 13.355C13.3989 13.355 14.1304 12.8146 14.1304 12.1504Z" fill="#338216"/>
<path d="M21.7391 19.3779H18.4783V20.181H17.3913V22.5903H18.4783V23.3934H21.7391V22.5903H22.8261V20.181H21.7391V19.3779ZM21.7391 21.7872H20.6522V22.5903H19.5652V21.7872H18.4783V20.9841H19.5652V20.181H20.6522V20.9841H21.7391V21.7872Z" fill="#338216"/>
<path d="M20.0685 16.3619L20.6283 15.9483L14.7571 14.8641L14.719 15.0793L14.6739 15.0685V14.6545C16.5842 14.1008 18.0152 12.8431 18.3815 11.314C19.6668 11.1554 20.6522 10.3334 20.6522 9.33961C20.6522 8.93485 20.4864 8.55941 20.2065 8.24379C20.4967 7.62862 20.6522 6.98654 20.6522 6.328C20.6522 4.62262 19.4489 3.02125 17.5098 2.10331C16.7092 0.953276 15.0457 0.201979 14.9538 0.161021L14.5902 0L14.0043 0.432468C13.2397 0.997446 12.2228 1.30865 11.1413 1.30865C7.39511 1.30865 4.34783 3.56013 4.34783 6.328V7.31461C4.34783 7.65592 4.53913 7.96391 4.84565 8.18597C4.52609 8.52046 4.34783 8.92 4.34783 9.33961C4.34783 10.3334 5.33315 11.1554 6.61848 11.314C6.98424 12.8431 8.41522 14.1008 10.3261 14.6545V15.0685L10.281 15.0789L10.2429 14.8637L4.28206 15.9652L4.91685 16.3671C1.9462 17.3124 0 19.4598 0 21.892V25H25V21.892C25 19.4554 23.0473 17.3047 20.0685 16.3619ZM18.5022 16.3836L15.5359 18.5752L16.6799 19.4209L14.688 21.466L15.6772 15.8616L18.5022 16.3836ZM10.312 21.4648L8.3788 19.4815L9.83533 18.7644L10.312 21.4648ZM11.1103 19.7799L12.5 18.1307L13.8897 19.7799L13.1103 24.1969H11.8902L11.1103 19.7799ZM14.1114 18.5238L13.137 17.367L14.3761 15.8415L14.5766 15.8885L14.1114 18.5238ZM13.0435 7.33187H12.5H11.9565H11.413H8.69565C8.4663 7.33187 8.24946 7.3652 8.04185 7.41419L9.24783 6.34487C9.81196 6.75445 10.8924 7.33187 12.5 7.33187C14.2114 7.33187 15.5174 7.02388 16.4228 6.41915L17.3913 6.77693V7.55513C17.0701 7.417 16.7022 7.33187 16.3043 7.33187H13.587H13.0435ZM8.69565 8.13497H10.8696V8.93807C10.8696 9.38097 10.3821 9.74116 9.78261 9.74116H8.69565C8.0962 9.74116 7.6087 9.38097 7.6087 8.93807C7.6087 8.49516 8.0962 8.13497 8.69565 8.13497ZM14.1304 8.13497H16.3043C16.9038 8.13497 17.3913 8.49516 17.3913 8.93807C17.3913 9.38097 16.9038 9.74116 16.3043 9.74116H15.2174C14.6179 9.74116 14.1304 9.38097 14.1304 8.93807V8.13497ZM18.4783 10.4704V8.20926C19.1092 8.3755 19.5652 8.8172 19.5652 9.34002C19.5652 9.86283 19.1092 10.3041 18.4783 10.4704ZM19.5652 6.328C19.5652 6.77091 19.4837 7.20498 19.331 7.62621C19.0701 7.50976 18.7864 7.41901 18.4783 7.37243V6.28062L17.1397 5.78631C17.6565 5.16793 17.9212 4.36443 17.9321 3.37863C18.9614 4.15843 19.5652 5.21812 19.5652 6.328ZM5.43478 6.328C5.43478 4.00304 7.99457 2.11174 11.1413 2.11174C12.4984 2.11174 13.7755 1.72545 14.7408 1.02355C15.4174 1.38614 16.8478 2.27557 16.8478 3.31639C16.8478 5.50804 15.4663 6.52878 12.5 6.52878C10.6592 6.52878 9.72826 5.54297 9.6913 5.50282L9.2875 5.05549L6.43696 7.58284C6.32935 7.67841 6.17065 7.73342 6.00163 7.73342C5.68913 7.73342 5.43478 7.5455 5.43478 7.31461V6.328ZM5.43478 9.33961C5.43478 9.03363 5.59728 8.74813 5.87446 8.52688C5.91685 8.52929 5.95815 8.53652 6.00163 8.53652C6.18206 8.53652 6.35489 8.50841 6.52174 8.46705V10.47C5.89076 10.3041 5.43478 9.86243 5.43478 9.33961ZM7.6087 10.5443V10.321C7.92989 10.4591 8.29783 10.5443 8.69565 10.5443H9.78261C10.9815 10.5443 11.9565 9.82388 11.9565 8.93807V8.13497H13.0435V8.93807C13.0435 9.82388 14.0185 10.5443 15.2174 10.5443H16.3043C16.7022 10.5443 17.0701 10.4591 17.3913 10.321V10.5443C17.3913 12.5367 15.1973 14.1582 12.5 14.1582C9.80272 14.1582 7.6087 12.5367 7.6087 10.5443ZM12.5 14.9613C12.8717 14.9613 13.2337 14.9328 13.587 14.8846V15.2516L12.5 16.59L11.413 15.2516V14.8846C11.7663 14.9328 12.1283 14.9613 12.5 14.9613ZM10.6245 15.8411L11.8636 17.3666L10.8891 18.5234L10.4239 15.8877L10.6245 15.8411ZM9.32228 15.8616L9.76685 18.3809L6.5875 16.3667L9.32228 15.8616ZM1.08696 21.892C1.08696 19.649 2.9962 17.6858 5.85326 16.9598L8.34076 18.5351L6.83859 19.2751L10.6082 23.1432L10.794 24.1969H1.08696V21.892ZM23.913 24.1969H14.206L14.3918 23.1448L18.1027 19.3358L17.0728 18.5752L19.2293 16.9819C22.0402 17.7243 23.913 19.6707 23.913 21.892V24.1969Z" fill="#338216"/>
<path d="M11.9565 22.5908H13.0435V23.3939H11.9565V22.5908Z" fill="#338216"/>
<path d="M11.9565 19.3779H13.0435V20.181H11.9565V19.3779Z" fill="#338216"/>
<path d="M11.9565 20.9844H13.0435V21.7875H11.9565V20.9844Z" fill="#338216"/>
</svg>
