<svg width="25" height="20" viewBox="0 0 25 20" fill="none" xmlns="http://www.w3.org/2000/svg">
<path d="M24.6597 1.05584C23.5637 0.562115 21.1413 0.0417234 18.6324 0.00241071C16.3897 -0.0324802 13.2131 0.295425 10.7044 2.0352C5.4105 0.338745 1.573 0.500348 0.340185 1.05584C0.137549 1.14704 0 1.41331 0 1.71414V19.3089C0 19.6905 0.218603 19.9998 0.488281 19.9998H7.99184C7.99306 19.9998 7.99423 20 7.99546 20C7.99668 20 7.99785 19.9998 7.99907 19.9998H16.3447C16.345 19.9998 16.3453 19.9999 16.3455 19.9999C16.346 19.9999 16.3464 19.9998 16.3468 19.9998H24.5116C24.7812 19.9998 24.9999 19.6905 24.9999 19.3089V10.348C25 10.3392 25 10.3305 24.9999 10.3217V1.71414C24.9999 1.41331 24.8623 1.14704 24.6597 1.05584ZM0.976562 18.618V12.0961C3.75459 12.283 6.14604 14.759 7.29145 18.618H0.976562ZM24.0233 18.618H16.5971V18.6179C13.5494 12.5515 9.79521 8.70689 5.43398 7.1918C5.17168 7.10081 4.90766 7.32749 4.84331 7.69803C4.77905 8.06856 4.93921 8.44276 5.20107 8.53375C9.13486 9.90037 12.5583 13.2906 15.3889 18.618H8.3413C7.74926 16.3644 6.76567 14.443 5.48125 13.039C4.16972 11.6055 2.62065 10.8077 0.976562 10.7124V4.63343C3.26518 4.47929 7.00683 5.00832 11.1737 6.95413C14.6521 8.57838 19.6883 11.8018 24.0233 17.9505V18.618ZM24.0233 16.0245C19.7178 10.2977 14.8762 7.22786 11.4797 5.64188C9.40014 4.67074 7.3 3.97714 5.2376 3.58035C3.68017 3.2807 2.22021 3.16802 0.976562 3.24941V2.25733C2.12041 1.95741 4.8396 1.88555 8.57246 2.82864C12.122 3.72537 17.6656 5.82594 24.0234 10.7428V16.0245H24.0233ZM24.0233 9.17194C23.1211 8.48919 22.23 7.85818 21.3525 7.27471C22.1577 7.08436 23.0929 7.02909 24.0233 7.2488V9.17194ZM24.0233 5.85081C22.4855 5.53535 20.9552 5.86857 19.9111 6.35103C18.8683 5.70759 17.8477 5.13137 16.8543 4.61678C17.9592 4.36197 19.1377 4.23347 20.2965 4.24887C20.5646 4.2526 20.7868 3.94612 20.7894 3.56453C20.7919 3.18294 20.5754 2.87072 20.3058 2.86713C18.0168 2.83693 16.2094 3.31228 15.06 3.73864C14.1113 3.3015 13.1918 2.9206 12.3064 2.59055C16.4884 0.547537 22.1396 1.57285 24.0233 2.2384V5.85081Z" fill="#338216"/>
<path d="M21.8375 2.9643L21.809 2.96113C21.5393 2.93135 21.3051 3.21566 21.2841 3.59614C21.2631 3.97648 21.464 4.30895 21.7328 4.33873L21.7596 4.34177C21.7729 4.34322 21.786 4.34398 21.7991 4.34398C22.0511 4.34398 22.2649 4.06969 22.2853 3.70807C22.3068 3.32772 22.1063 2.9947 21.8375 2.9643Z" fill="#338216"/>
<path d="M3.97845 6.77713C3.9784 6.77706 3.97449 6.77623 3.97371 6.77609C3.70828 6.71343 3.45613 6.96761 3.4118 7.34402C3.36751 7.72043 3.54715 8.07638 3.81321 8.13912L3.82576 8.14195C3.85159 8.14776 3.87733 8.15059 3.90272 8.15059C4.1387 8.15059 4.34632 7.90787 4.38436 7.5676C4.42645 7.19064 4.24476 6.83676 3.97845 6.77713Z" fill="#338216"/>
</svg>
