<svg width="30" height="20" viewBox="0 0 30 20" fill="none" xmlns="http://www.w3.org/2000/svg">
<path d="M10.1474 7.84441V12.1458C10.1474 12.4251 10.4049 12.6519 10.7231 12.6519H12.6593V18.5733C12.6593 18.6084 12.6635 18.6425 12.6712 18.6756C12.7322 19.4138 13.4273 19.9998 14.282 19.9998C14.6826 19.9998 15.0453 19.8662 15.3293 19.655C15.6118 19.8672 15.9748 19.9998 16.3763 19.9998C17.2318 19.9998 17.9253 19.4141 17.9867 18.6756C17.9947 18.6425 17.9974 18.6088 17.9974 18.5733V12.6519H19.3587C19.6765 12.6519 19.9344 12.4251 19.9344 12.1458V7.84475C19.9344 6.29243 18.9703 4.87405 17.4689 4.11729C17.819 3.68274 18.0155 3.1635 18.0155 2.61524C18.0155 1.17359 16.6803 0.000488281 15.0411 0.000488281C13.4008 0.000488281 12.0667 1.17359 12.0667 2.61524C12.0667 3.1635 12.2625 3.6824 12.6125 4.11729C11.1111 4.87405 10.1474 6.29209 10.1474 7.84441ZM15.0411 1.01231C16.0458 1.01231 16.8641 1.73129 16.8641 2.61491C16.8641 3.11188 16.6062 3.57275 16.1564 3.87943C16.075 3.93477 15.9898 3.98301 15.9015 4.02451C15.6356 4.14901 15.337 4.21109 15.0403 4.21109C14.8419 4.21109 14.6439 4.18342 14.4547 4.12843C14.2658 4.07309 14.0855 3.9901 13.9235 3.88011C13.4745 3.57342 13.2166 3.11255 13.2166 2.61558C13.2177 1.73095 14.0356 1.01231 15.0411 1.01231ZM13.5009 4.85044C13.5251 4.86326 13.5512 4.87169 13.5754 4.88418C13.6291 4.91117 13.6836 4.93411 13.7389 4.9584C13.8114 4.99011 13.8855 5.01913 13.9611 5.04443C14.0371 5.07075 14.1139 5.09437 14.1929 5.11529C14.2401 5.12743 14.2881 5.13654 14.3361 5.14734C14.5656 5.1966 14.7997 5.23033 15.0415 5.23033C15.2825 5.23033 15.5166 5.19626 15.745 5.14767C15.7937 5.13755 15.8417 5.12743 15.8896 5.11529C15.9683 5.09437 16.0447 5.07109 16.1215 5.04477C16.1963 5.01947 16.2707 4.99045 16.3425 4.95907C16.3985 4.93546 16.4534 4.9115 16.5083 4.88418C16.5321 4.87203 16.5586 4.86359 16.5808 4.85077C17.9091 5.37777 18.7823 6.55188 18.7823 7.84475V11.6404H17.4217C17.1032 11.6404 16.846 11.8671 16.846 12.1458V18.574C16.846 18.8028 16.6346 18.9883 16.3744 18.9883C16.1142 18.9883 15.9027 18.8028 15.9027 18.574C15.9027 18.2947 15.6448 18.0679 15.327 18.0679C15.0092 18.0679 14.7513 18.2947 14.7513 18.574C14.7513 18.8028 14.5402 18.9883 14.2804 18.9883C14.0202 18.9883 13.8087 18.8028 13.8087 18.574V12.1458C13.8087 11.8671 13.5512 11.6404 13.2331 11.6404H12.9279H11.2968V7.84475C11.2988 6.55154 12.173 5.37845 13.5009 4.85044Z" fill="#338216"/>
<path d="M28.0519 18.6754C28.0596 18.6424 28.0638 18.6086 28.0638 18.5732V12.6514H29.4243C29.7421 12.6514 30 12.4246 30 12.1453V7.84426C30 6.2916 29.0359 4.87356 27.5353 4.11647C27.8853 3.68191 28.081 3.16301 28.081 2.61475C28.081 1.1731 26.7466 0 25.1067 0C23.4668 0 22.1323 1.1731 22.1323 2.61475C22.1323 3.16301 22.3277 3.68191 22.6777 4.11647C21.1775 4.87323 20.2134 6.29127 20.2134 7.84426V12.1453C20.2134 12.4246 20.4709 12.6514 20.7891 12.6514H22.7253V18.5735C22.7253 18.6086 22.7299 18.6427 22.7372 18.6758C22.7978 19.414 23.4932 20 24.3479 20C24.7482 20 25.1098 19.8664 25.3945 19.6552C25.6778 19.8681 26.0408 20 26.4411 20C27.2954 19.9997 27.9912 19.4129 28.0519 18.6754ZM25.1067 1.0125C26.1118 1.0125 26.9297 1.73147 26.9297 2.61509C26.9297 3.11173 26.6718 3.5726 26.2227 3.87962C25.5749 4.32227 24.6381 4.32194 23.9906 3.87962C23.5416 3.57294 23.2837 3.11206 23.2837 2.61509C23.2837 1.73114 24.1015 1.0125 25.1067 1.0125ZM26.4411 18.9875C26.1813 18.9875 25.9702 18.8013 25.9702 18.5732C25.9702 18.2938 25.7123 18.0671 25.3945 18.0671C25.0764 18.0671 24.8188 18.2938 24.8188 18.5732C24.8188 18.8013 24.6074 18.9875 24.3472 18.9875C24.087 18.9875 23.8755 18.8013 23.8755 18.5732V12.1453C23.8755 11.8666 23.6176 11.6399 23.2998 11.6399H22.9943H21.3632V7.84426C21.3632 6.55139 22.2371 5.37762 23.5654 4.85028C23.5892 4.8631 23.6157 4.87154 23.6395 4.88402C23.6936 4.91101 23.7477 4.93429 23.8037 4.95859C23.8759 4.98996 23.9492 5.01898 24.024 5.04395C24.1004 5.0706 24.1779 5.09422 24.257 5.11547C24.3026 5.12728 24.3483 5.13673 24.3948 5.14685C24.6262 5.19644 24.8603 5.23052 25.104 5.23052C25.3473 5.23052 25.583 5.19543 25.8136 5.14651C25.8593 5.13673 25.9046 5.12762 25.9495 5.11648C26.0297 5.09523 26.1068 5.07094 26.1847 5.04395C26.2584 5.01932 26.331 4.99064 26.4024 4.9596C26.4584 4.93564 26.5144 4.91135 26.5693 4.88402C26.5935 4.87188 26.6196 4.86344 26.6426 4.85062C27.9705 5.37796 28.844 6.55173 28.844 7.8446V11.6399H27.4835C27.1649 11.6399 26.9078 11.8673 26.9078 12.146V18.5735C26.9116 18.8013 26.7009 18.9875 26.4411 18.9875Z" fill="#338216"/>
<path d="M6.22812 19.9997C7.08282 19.9997 7.77786 19.414 7.83889 18.6754C7.84656 18.6424 7.8504 18.6086 7.8504 18.5732V12.6514H9.21093C9.52909 12.6514 9.78661 12.4246 9.78661 12.1453V7.84426C9.78661 6.29127 8.82292 4.87323 7.32231 4.11647C7.67232 3.68225 7.86767 3.16301 7.86767 2.61475C7.86767 1.1731 6.53324 0 4.89331 0C3.25376 0 1.91894 1.1731 1.91894 2.61475C1.91894 3.16301 2.11506 3.68191 2.46508 4.11647C0.964461 4.87356 0 6.2916 0 7.84426V12.1453C0 12.4246 0.257906 12.6514 0.575683 12.6514H2.51228V18.5735C2.51228 18.6086 2.5165 18.6427 2.52379 18.6758C2.58482 19.414 3.28024 20 4.13456 20C4.53523 20 4.89791 19.8664 5.18115 19.6552C5.46438 19.8664 5.82745 19.9997 6.22812 19.9997ZM4.89331 1.0125C5.89845 1.0125 6.7163 1.73147 6.7163 2.61509C6.7163 3.11206 6.45878 3.57294 6.00936 3.87962C5.68583 4.10027 5.28976 4.2106 4.89407 4.2106C4.69566 4.2106 4.498 4.18293 4.3088 4.12794C4.11959 4.07261 3.93959 3.98961 3.77802 3.87962C3.3286 3.5726 3.07108 3.11173 3.07108 2.61509C3.07031 1.73114 3.88855 1.0125 4.89331 1.0125ZM4.13456 18.9875C3.87473 18.9875 3.66326 18.8013 3.66326 18.5732V12.1453C3.66326 11.8666 3.40536 11.6399 3.08758 11.6399H2.78208H1.15098V7.84426C1.15098 6.55139 2.02487 5.37762 3.35278 4.85028C3.37696 4.8631 3.40305 4.87154 3.42762 4.88402C3.48096 4.91101 3.53585 4.93396 3.59073 4.95825C3.66365 4.98996 3.73734 5.01898 3.81294 5.04428C3.88932 5.0706 3.96607 5.09422 4.04475 5.11513C4.09196 5.12728 4.13993 5.13673 4.1879 5.14719C4.41741 5.19644 4.65114 5.23018 4.89292 5.23018C5.13471 5.23018 5.36805 5.19577 5.59756 5.14752C5.64592 5.1374 5.69427 5.12728 5.74225 5.11513C5.82016 5.09422 5.89653 5.07094 5.9729 5.04462C6.04851 5.01932 6.12258 4.98996 6.1955 4.95859C6.25038 4.93531 6.30527 4.91135 6.35861 4.88436C6.38279 4.87222 6.40927 4.86344 6.43307 4.85062C7.76098 5.37796 8.63448 6.55173 8.63448 7.8446V11.6399H7.27433C6.95617 11.6399 6.69865 11.8673 6.69865 12.146V18.5735C6.69865 18.8023 6.48718 18.9878 6.22736 18.9878C5.96753 18.9878 5.75568 18.8023 5.75568 18.5735C5.75568 18.2942 5.49816 18.0674 5.18 18.0674C4.86222 18.0674 4.60431 18.2942 4.60431 18.5735C4.60546 18.8013 4.394 18.9875 4.13456 18.9875Z" fill="#338216"/>
</svg>
