<svg width="25" height="25" viewBox="0 0 25 25" fill="none" xmlns="http://www.w3.org/2000/svg">
<path d="M10.8527 9.83459C10.9935 9.83459 11.1263 9.77292 11.2104 9.6682C11.2948 9.56347 11.3209 9.42822 11.2808 9.30287C10.9608 8.28936 10.4078 7.35228 9.65947 6.55652C9.05653 5.96151 8.1591 5.70677 7.30047 5.88691C7.18188 5.92896 7.08837 6.0159 7.04303 6.12588C7.0184 6.18775 7.00008 6.25164 6.98853 6.31674C6.9748 6.39397 6.96739 6.47201 6.96608 6.55025V6.55692C6.97153 7.21723 7.25839 7.84882 7.76433 8.31362C8.62231 9.00708 9.63201 9.5198 10.7241 9.81639C10.766 9.82792 10.8091 9.83418 10.8527 9.83459ZM8.39735 7.72731C8.22013 7.56274 8.08106 7.36603 7.98842 7.1497V7.14566C7.9688 7.09976 7.9518 7.05367 7.93719 7.00939C7.92956 6.98533 7.92411 6.96269 7.91757 6.93903C7.91082 6.91538 7.90493 6.89759 7.90057 6.87696C7.89599 6.85614 7.89512 6.84785 7.89207 6.83309C7.87899 6.77123 7.86984 6.70875 7.86482 6.64588C8.30515 6.67681 8.71866 6.85311 9.03081 7.14283C9.47462 7.60823 9.83233 8.13854 10.0893 8.71251C9.46983 8.47334 8.89719 8.14036 8.39517 7.72731H8.39735Z" fill="#338216"/>
<path d="M24.5536 5.95348H17.6625C17.9605 5.76465 18.2404 5.55217 18.4987 5.31865C20.0956 3.83307 20.1479 1.58064 19.1278 0.634458C18.1076 -0.311721 15.6799 -0.264008 14.0765 1.21874C13.4208 1.88067 12.888 2.63882 12.5 3.46248C12.112 2.63822 11.5788 1.87966 10.9225 1.21753C9.32072 -0.263604 6.8924 -0.312126 5.87202 0.634054C4.85142 1.58023 4.90417 3.83267 6.50133 5.31865C6.75986 5.55217 7.03975 5.76465 7.33752 5.95348H0.446429C0.19989 5.95348 0 6.13888 0 6.36754V10.5081C0 10.7367 0.19989 10.9221 0.446429 10.9221H1.33929V22.9297C1.34081 24.0724 2.33939 24.9986 3.57143 25H21.4286C22.6608 24.9986 23.6594 24.0724 23.6607 22.9297V10.9221H24.5536C24.8001 10.9221 25 10.7367 25 10.5081V6.36754C25 6.13888 24.8001 5.95348 24.5536 5.95348ZM14.7082 1.80384C15.9912 0.617476 17.8626 0.631224 18.4969 1.21955C19.1313 1.80788 19.1465 3.54275 17.8674 4.73316C17.2817 5.23536 16.6129 5.64719 15.8866 5.95348H13.2189C13.2189 5.94479 13.2189 5.93529 13.2189 5.92659C13.2189 5.83218 13.2113 5.73655 13.2015 5.64032C13.1978 5.60857 13.1938 5.57703 13.1899 5.54469C13.1797 5.46523 13.167 5.38598 13.1518 5.30713C13.147 5.27943 13.142 5.25153 13.1367 5.22424C13.1154 5.12113 13.092 5.01964 13.0652 4.92158C13.0617 4.90743 13.0576 4.8951 13.0541 4.88014C13.0304 4.79441 13.0059 4.71455 12.9809 4.63187C12.9774 4.62054 12.9741 4.60821 12.9706 4.59689C13.3364 3.56499 13.928 2.61396 14.7082 1.80384ZM14.2857 10.094H10.7143V6.78159H14.2857V10.094ZM7.13305 4.73356C5.85371 3.54315 5.86875 1.80829 6.5033 1.21955C7.13763 0.630819 9.00813 0.617072 10.2907 1.80263C11.1029 2.64651 11.7118 3.64161 12.0765 4.72123C12.1268 4.86659 12.1656 5.00609 12.2022 5.14155C12.2125 5.18037 12.221 5.21797 12.2299 5.25618C12.2541 5.35727 12.2735 5.45371 12.2881 5.5461C12.2929 5.57744 12.2992 5.60979 12.3032 5.64032C12.3173 5.74363 12.325 5.84775 12.326 5.95187H9.11342C8.38754 5.64618 7.71899 5.23495 7.13305 4.73356ZM0.892857 6.78159H9.82143V10.094H0.892857V6.78159ZM2.23214 22.9297V10.9221H10.7143V24.1719H3.57143C2.83181 24.1719 2.23214 23.6157 2.23214 22.9297ZM11.6071 24.1719V10.9221H13.3929V24.1719H11.6071ZM22.7679 22.9297C22.7679 23.6157 22.1684 24.1719 21.4286 24.1719H14.2857V10.9221H22.7679V22.9297ZM24.1071 10.094H15.1786V6.78159H24.1071V10.094Z" fill="#338216"/>
<path d="M14.146 9.83618C14.1889 9.83618 14.2316 9.83052 14.2728 9.8192C15.3662 9.52281 16.377 9.00909 17.2348 8.3136C17.87 7.75014 18.1438 6.92122 17.9581 6.12445C17.9131 6.01487 17.8196 5.92834 17.7015 5.88649C16.8424 5.71423 15.9487 5.96817 15.3412 6.55731C14.5915 7.35287 14.0376 8.29035 13.7179 9.30446C13.678 9.42981 13.7039 9.56527 13.7883 9.66979C13.8726 9.77452 14.0052 9.83618 14.146 9.83618ZM15.9725 7.14281C16.285 6.85329 16.699 6.6772 17.1393 6.64586C17.106 7.05445 16.9159 7.43859 16.6037 7.72851C16.1015 8.14297 15.528 8.47656 14.9072 8.71573C15.1653 8.13993 15.5254 7.60841 15.9725 7.14281Z" fill="#338216"/>
</svg>
