<svg width="25" height="25" viewBox="0 0 25 25" fill="none" xmlns="http://www.w3.org/2000/svg">
<path d="M12.8209 0.143096C12.739 0.0520869 12.6225 0 12.5 0C12.3776 0 12.2611 0.0520869 12.1792 0.143096L0.0957884 14.7311C-0.00720848 14.8555 -0.029143 15.0281 0.0397123 15.1743C0.108377 15.3204 0.255243 15.4137 0.416604 15.4137H0.83336V16.2473C0.83336 16.7077 1.20644 17.0809 1.66668 17.0809H2.5V24.5833C2.5 24.8134 2.68654 25 2.91676 25H22.0833C22.3135 25 22.5001 24.8134 22.5001 24.5833V17.0809H23.3334C23.7936 17.0809 24.1667 16.7077 24.1667 16.2473V15.4137H24.5833C24.7448 15.4137 24.8917 15.3204 24.9604 15.1743C25.029 15.0281 25.0073 14.8555 24.9043 14.7311L12.8209 0.143096ZM12.5 1.06215L23.6971 14.5801H22.6971L12.8209 2.65643C12.739 2.56523 12.6225 2.51334 12.5 2.51334C12.3776 2.51334 12.2611 2.56523 12.1792 2.65643L2.30412 14.5801H1.30428L12.5 1.06215ZM3.33332 24.1664V17.0809H4.16664V24.1664H3.33332ZM7.5333 12.0794H12.0833V14.5801H5.46803L7.5333 12.0794ZM19.5334 14.5801H12.9166V12.0794H17.4668L19.5334 14.5801ZM12.0833 17.0809V24.1664H9.16676V17.0809H12.0833ZM12.9166 17.0809H15.8333V24.1664H12.9166V17.0809ZM8.75 16.2473H4.99996V15.4137H20.0001V16.2473H8.75ZM6.66661 17.0809V24.1664H4.99996V17.0809H6.66661ZM20.0001 17.0809V24.1664H18.3333V17.0809H20.0001ZM15.4017 9.57865H12.9166V6.56963L15.4017 9.57865ZM12.0833 9.57865H9.59839L12.0833 6.56963V9.57865ZM8.91003 10.4122H16.0901L16.7784 11.2458H8.22167L8.91003 10.4122ZM7.50012 24.1664V17.0809H8.33344V24.1664H7.50012ZM16.6666 24.1664V17.0809H17.5V24.1664H16.6666ZM21.6668 24.1664H20.8334V17.0809H21.6668V24.1664ZM23.3334 16.2473H20.8334V14.9968C20.8363 14.9259 20.8159 14.8558 20.7755 14.7973C20.7648 14.7744 20.7524 14.7522 20.7379 14.7314L17.5621 10.8856L16.6089 9.73033L16.6058 9.72785L12.8212 5.14516C12.8167 5.13962 12.8104 5.13752 12.8058 5.13256C12.8012 5.1276 12.7879 5.11387 12.7779 5.10471C12.768 5.09555 12.7709 5.09383 12.7654 5.08925C12.7531 5.08162 12.7404 5.07494 12.7272 5.06884C12.7016 5.04709 12.6719 5.03125 12.6397 5.02209C12.6 5.01084 12.5596 5.00263 12.5187 4.99748C12.5121 4.99748 12.5067 4.99386 12.5 4.99386C12.4934 4.99386 12.4871 4.99748 12.48 4.99805C12.4609 4.99958 12.4421 5.00263 12.4234 5.00721C12.4018 5.01026 12.3805 5.01542 12.3597 5.02209C12.3471 5.02667 12.3354 5.03087 12.3234 5.0364C12.3061 5.04575 12.2895 5.05625 12.2738 5.06808C12.2603 5.07418 12.2471 5.08143 12.2345 5.08925C12.2292 5.09383 12.2271 5.10013 12.2221 5.10471C12.2172 5.10929 12.2034 5.12264 12.1941 5.13256C12.1849 5.14268 12.1834 5.13962 12.1788 5.14516L8.39428 9.72995L8.39123 9.73243L7.43794 10.8877L4.2622 14.7335C4.24771 14.7543 4.23531 14.7765 4.22463 14.7994C4.18457 14.8574 4.16416 14.9266 4.16664 14.9968V16.2473H1.66668V15.4137H2.5C2.62417 15.4137 2.74166 15.3584 2.82082 15.2628L12.5 3.57663L22.1793 15.2628C22.2584 15.3584 22.3759 15.4137 22.5001 15.4137H23.3334V16.2473Z" fill="#338216"/>
<path d="M11.2513 21.2483C11.4815 21.2483 11.668 21.0617 11.668 20.8316V20.4147C11.668 20.1846 11.4815 19.998 11.2513 19.998C11.0213 19.998 10.8347 20.1846 10.8347 20.4147V20.8316C10.8347 21.0617 11.0213 21.2483 11.2513 21.2483Z" fill="#338216"/>
<path d="M13.7513 19.998C13.5211 19.998 13.3345 20.1846 13.3345 20.4147V20.8316C13.3345 21.0617 13.5211 21.2483 13.7513 21.2483C13.9813 21.2483 14.1679 21.0617 14.1679 20.8316V20.4147C14.1679 20.1846 13.9813 19.998 13.7513 19.998Z" fill="#338216"/>
</svg>
