<svg width="20" height="25" viewBox="0 0 20 25" fill="none" xmlns="http://www.w3.org/2000/svg">
<path d="M19.6518 1.50707e-06H0.346196C0.254288 0.00028075 0.166234 0.0393016 0.101338 0.108509C0.0364419 0.177717 -3.75134e-07 0.271465 0 0.3692V24.6308C0 24.7287 0.0365785 24.8226 0.101689 24.8919C0.166799 24.9611 0.255108 25 0.347188 25H19.6528C19.7449 25 19.8332 24.9611 19.8983 24.8919C19.9634 24.8226 20 24.7287 20 24.6308V0.3692C20 0.320627 19.991 0.272532 19.9735 0.22767C19.956 0.182808 19.9303 0.142061 19.898 0.107763C19.8656 0.0734664 19.8272 0.0462935 19.785 0.0278017C19.7428 0.00930991 19.6975 -0.000137272 19.6518 1.50707e-06ZM19.3046 24.2616H0.694376V0.738398H19.3056L19.3046 24.2616Z" fill="#338216"/>
<path d="M4.29519 6.36956H15.7028C15.7949 6.36956 15.8832 6.33066 15.9483 6.26142C16.0134 6.19218 16.05 6.09828 16.05 6.00036V4.10162C16.0499 4.00372 16.0133 3.90985 15.9482 3.84062C15.8831 3.77139 15.7948 3.73248 15.7028 3.73242H4.29519C4.20312 3.73248 4.11484 3.77139 4.04974 3.84062C3.98465 3.90985 3.94805 4.00372 3.948 4.10162V6.00036C3.948 6.09828 3.98458 6.19218 4.04969 6.26142C4.1148 6.33066 4.20311 6.36956 4.29519 6.36956ZM4.64237 4.47082H15.3556V5.63116H4.64237V4.47082Z" fill="#338216"/>
<path d="M4.29519 10.0934H15.7028C15.7949 10.0934 15.8832 10.0545 15.9483 9.98524C16.0134 9.916 16.05 9.8221 16.05 9.72418C16.05 9.62626 16.0134 9.53235 15.9483 9.46312C15.8832 9.39388 15.7949 9.35498 15.7028 9.35498H4.29519C4.20311 9.35498 4.1148 9.39388 4.04969 9.46312C3.98458 9.53235 3.948 9.62626 3.948 9.72418C3.948 9.8221 3.98458 9.916 4.04969 9.98524C4.1148 10.0545 4.20311 10.0934 4.29519 10.0934Z" fill="#338216"/>
<path d="M4.29519 11.9923H15.7028C15.7949 11.9923 15.8832 11.9534 15.9483 11.8842C16.0134 11.8149 16.05 11.721 16.05 11.6231C16.05 11.5252 16.0134 11.4313 15.9483 11.362C15.8832 11.2928 15.7949 11.2539 15.7028 11.2539H4.29519C4.20311 11.2539 4.1148 11.2928 4.04969 11.362C3.98458 11.4313 3.948 11.5252 3.948 11.6231C3.948 11.721 3.98458 11.8149 4.04969 11.8842C4.1148 11.9534 4.20311 11.9923 4.29519 11.9923Z" fill="#338216"/>
<path d="M4.29519 13.8912H15.7028C15.7949 13.8912 15.8832 13.8523 15.9483 13.7831C16.0134 13.7139 16.05 13.6199 16.05 13.522C16.05 13.4241 16.0134 13.3302 15.9483 13.261C15.8832 13.1917 15.7949 13.1528 15.7028 13.1528H4.29519C4.20311 13.1528 4.1148 13.1917 4.04969 13.261C3.98458 13.3302 3.948 13.4241 3.948 13.522C3.948 13.6199 3.98458 13.7139 4.04969 13.7831C4.1148 13.8523 4.20311 13.8912 4.29519 13.8912Z" fill="#338216"/>
<path d="M4.29519 15.7897H15.7028C15.7949 15.7897 15.8832 15.7508 15.9483 15.6815C16.0134 15.6123 16.05 15.5184 16.05 15.4205C16.05 15.3226 16.0134 15.2286 15.9483 15.1594C15.8832 15.0902 15.7949 15.0513 15.7028 15.0513H4.29519C4.20311 15.0513 4.1148 15.0902 4.04969 15.1594C3.98458 15.2286 3.948 15.3226 3.948 15.4205C3.948 15.5184 3.98458 15.6123 4.04969 15.6815C4.1148 15.7508 4.20311 15.7897 4.29519 15.7897Z" fill="#338216"/>
<path d="M4.29519 17.6886H15.7028C15.7949 17.6886 15.8832 17.6497 15.9483 17.5805C16.0134 17.5112 16.05 17.4173 16.05 17.3194C16.05 17.2215 16.0134 17.1276 15.9483 17.0583C15.8832 16.9891 15.7949 16.9502 15.7028 16.9502H4.29519C4.20311 16.9502 4.1148 16.9891 4.04969 17.0583C3.98458 17.1276 3.948 17.2215 3.948 17.3194C3.948 17.4173 3.98458 17.5112 4.04969 17.5805C4.1148 17.6497 4.20311 17.6886 4.29519 17.6886Z" fill="#338216"/>
<path d="M4.29519 19.5875H15.7028C15.7949 19.5875 15.8832 19.5486 15.9483 19.4794C16.0134 19.4101 16.05 19.3162 16.05 19.2183C16.05 19.1204 16.0134 19.0265 15.9483 18.9573C15.8832 18.888 15.7949 18.8491 15.7028 18.8491H4.29519C4.20311 18.8491 4.1148 18.888 4.04969 18.9573C3.98458 19.0265 3.948 19.1204 3.948 19.2183C3.948 19.3162 3.98458 19.4101 4.04969 19.4794C4.1148 19.5486 4.20311 19.5875 4.29519 19.5875Z" fill="#338216"/>
<path d="M13.5671 20.7476H6.43093C6.33885 20.7476 6.25054 20.7865 6.18543 20.8557C6.12032 20.9249 6.08374 21.0188 6.08374 21.1168C6.08374 21.2147 6.12032 21.3086 6.18543 21.3778C6.25054 21.4471 6.33885 21.486 6.43093 21.486H13.5671C13.6592 21.486 13.7475 21.4471 13.8126 21.3778C13.8777 21.3086 13.9143 21.2147 13.9143 21.1168C13.9143 21.0188 13.8777 20.9249 13.8126 20.8557C13.7475 20.7865 13.6592 20.7476 13.5671 20.7476Z" fill="#338216"/>
</svg>
