<svg width="25" height="25" viewBox="0 0 25 25" fill="none" xmlns="http://www.w3.org/2000/svg">
<path d="M0 12.5C0 19.3927 5.60756 25 12.5 25C19.3924 25 25 19.3927 25 12.5C25 5.60756 19.3924 0 12.5 0C5.60756 0 0 5.60756 0 12.5ZM23.8095 12.5C23.8095 18.7363 18.736 23.8095 12.5 23.8095C6.26395 23.8095 1.19048 18.7363 1.19048 12.5C1.19048 6.26395 6.26395 1.19048 12.5 1.19048C18.736 1.19048 23.8095 6.26395 23.8095 12.5Z" fill="#338216"/>
<path d="M11.9124 2.95657C11.9124 3.11305 11.9762 3.26604 12.0868 3.37742C12.1982 3.4881 12.3512 3.5518 12.5077 3.5518C12.6649 3.5518 12.8179 3.4881 12.9285 3.37742C13.0399 3.26604 13.1036 3.11305 13.1036 2.95657C13.1036 2.79985 13.0399 2.64639 12.9285 2.53571C12.8183 2.42504 12.6649 2.36133 12.5077 2.36133C12.3512 2.36133 12.1977 2.42434 12.0868 2.53571C11.9762 2.64639 11.9124 2.79939 11.9124 2.95657Z" fill="#338216"/>
<path d="M12.4923 21.4478C12.3352 21.4478 12.1815 21.5115 12.0715 21.6221C11.9601 21.7328 11.8971 21.8865 11.8971 22.043C11.8971 22.2002 11.9601 22.3532 12.0715 22.4638C12.1822 22.575 12.3352 22.6382 12.4923 22.6382C12.6488 22.6382 12.8018 22.575 12.913 22.4638C13.0239 22.3532 13.0876 22.1995 13.0876 22.043C13.0876 21.8865 13.0239 21.7335 12.913 21.6221C12.8023 21.5115 12.6488 21.4478 12.4923 21.4478Z" fill="#338216"/>
<path d="M22.0433 13.1026C22.2001 13.1026 22.3535 13.0394 22.4642 12.9287C22.5756 12.8173 22.6386 12.6643 22.6386 12.5074C22.6386 12.3507 22.5756 12.1972 22.4642 12.0865C22.3535 11.9758 22.2005 11.9126 22.0433 11.9126C21.8869 11.9126 21.7334 11.9758 21.6227 12.0865C21.5118 12.1977 21.4481 12.3507 21.4481 12.5074C21.4481 12.6639 21.5118 12.8173 21.6227 12.9287C21.7339 13.0394 21.8869 13.1026 22.0433 13.1026Z" fill="#338216"/>
<path d="M2.95666 11.897C2.79925 11.897 2.64648 11.9602 2.53581 12.0709C2.42443 12.1816 2.36142 12.335 2.36142 12.4922C2.36142 12.6487 2.42443 12.8024 2.53581 12.9131C2.64648 13.0237 2.79948 13.0874 2.95666 13.0874C3.11314 13.0874 3.2666 13.0237 3.37728 12.9131C3.48795 12.8024 3.5519 12.6487 3.5519 12.4922C3.5519 12.335 3.48819 12.1816 3.37728 12.0709C3.2666 11.96 3.11314 11.897 2.95666 11.897Z" fill="#338216"/>
<path d="M7.73507 3.63525C7.57859 3.63525 7.42489 3.69896 7.31422 3.80964C7.20354 3.92032 7.13983 4.07401 7.13983 4.23049C7.13983 4.38697 7.20354 4.54067 7.31422 4.65134C7.42489 4.76202 7.57859 4.82573 7.73507 4.82573C7.89155 4.82573 8.04524 4.76202 8.15592 4.65134C8.2666 4.54067 8.33031 4.38697 8.33031 4.23049C8.33031 4.07401 8.2666 3.92032 8.15592 3.80964C8.04524 3.69896 7.89155 3.63525 7.73507 3.63525Z" fill="#338216"/>
<path d="M17.2649 20.1738C17.1084 20.1738 16.9548 20.2375 16.8441 20.3482C16.7334 20.4589 16.6697 20.6124 16.6697 20.7691C16.6697 20.9255 16.7334 21.0792 16.8441 21.1899C16.9548 21.3006 17.1084 21.3643 17.2649 21.3643C17.4214 21.3643 17.5751 21.3006 17.6858 21.1899C17.7965 21.0792 17.8602 20.9255 17.8602 20.7691C17.8602 20.6124 17.7965 20.4589 17.6858 20.3482C17.5751 20.2375 17.4214 20.1738 17.2649 20.1738Z" fill="#338216"/>
<path d="M20.7692 8.33012C20.9256 8.33012 21.0791 8.26642 21.1898 8.15551C21.3005 8.04483 21.3644 7.89137 21.3644 7.73489C21.3644 7.57817 21.3007 7.42471 21.1898 7.31403C21.0791 7.20336 20.9256 7.13965 20.7692 7.13965C20.6124 7.13965 20.459 7.20313 20.3483 7.31403C20.2376 7.42471 20.1739 7.57817 20.1739 7.73489C20.1739 7.89137 20.2374 8.04483 20.3483 8.15551C20.459 8.26642 20.6124 8.33012 20.7692 8.33012Z" fill="#338216"/>
<path d="M4.23084 16.6694C4.07436 16.6694 3.9209 16.7331 3.81022 16.8438C3.69931 16.9545 3.6356 17.1082 3.6356 17.2647C3.6356 17.4212 3.69931 17.5748 3.81022 17.6855C3.9209 17.7962 4.07436 17.8599 4.23084 17.8599C4.38756 17.8599 4.54102 17.7962 4.65169 17.6855C4.76237 17.5748 4.82608 17.4212 4.82608 17.2647C4.82608 17.1082 4.7626 16.9545 4.65169 16.8438C4.54102 16.7331 4.38802 16.6694 4.23084 16.6694Z" fill="#338216"/>
<path d="M4.23875 7.12598C4.08203 7.12598 3.92857 7.18945 3.8179 7.30036C3.70722 7.41104 3.64351 7.56403 3.64351 7.72121C3.64351 7.8777 3.70699 8.03069 3.8179 8.14183C3.92927 8.25251 4.08203 8.31645 4.23875 8.31645C4.39593 8.31645 4.54892 8.25274 4.65937 8.14183C4.77074 8.03069 4.83399 7.8777 4.83399 7.72121C4.83399 7.56403 4.77074 7.41104 4.65937 7.30036C4.54892 7.18969 4.39593 7.12598 4.23875 7.12598Z" fill="#338216"/>
<path d="M20.7613 17.8736C20.918 17.8736 21.0714 17.8099 21.1821 17.6992C21.2928 17.5885 21.3565 17.4348 21.3565 17.2783C21.3565 17.1219 21.2928 16.9682 21.1821 16.8575C21.0714 16.7468 20.918 16.6831 20.7613 16.6831C20.6041 16.6831 20.4511 16.7468 20.3404 16.8575C20.2293 16.9682 20.166 17.1219 20.166 17.2783C20.166 17.4348 20.2293 17.5885 20.3404 17.6992C20.4506 17.8099 20.6041 17.8736 20.7613 17.8736Z" fill="#338216"/>
<path d="M17.2784 4.83403C17.4351 4.83403 17.5886 4.77079 17.6993 4.66011C17.8106 4.54897 17.8736 4.39528 17.8736 4.23879C17.8736 4.08231 17.8106 3.92862 17.6993 3.81794C17.5886 3.70726 17.4351 3.64355 17.2784 3.64355C17.1219 3.64355 16.9685 3.70726 16.8578 3.81794C16.7471 3.92862 16.6832 4.08231 16.6832 4.23879C16.6832 4.39528 16.7469 4.54897 16.8578 4.66011C16.9685 4.77102 17.1219 4.83403 17.2784 4.83403Z" fill="#338216"/>
<path d="M7.72135 20.166C7.56417 20.166 7.41141 20.229 7.3005 20.3404C7.18982 20.4511 7.12611 20.6041 7.12611 20.7613C7.12611 20.9177 7.18982 21.0712 7.3005 21.1819C7.41141 21.2928 7.5644 21.3565 7.72135 21.3565C7.87807 21.3565 8.03153 21.2928 8.1422 21.1819C8.25288 21.0707 8.31659 20.9177 8.31659 20.7613C8.31659 20.6045 8.25288 20.4511 8.1422 20.3404C8.03153 20.229 7.87807 20.166 7.72135 20.166Z" fill="#338216"/>
<path d="M17.4002 6.76552L13.5798 10.5862C13.2605 10.4053 12.8922 10.3016 12.5 10.3016C12.1096 10.3016 11.7432 10.4044 11.4251 10.5834L9.59867 8.75701C9.36615 8.52473 8.98948 8.52473 8.75673 8.75701C8.52445 8.98953 8.52445 9.36643 8.75673 9.59895L10.5831 11.4251C10.4041 11.7432 10.3016 12.1099 10.3016 12.5C10.3016 13.7124 11.2877 14.6987 12.5 14.6987C13.7123 14.6987 14.6984 13.7124 14.6984 12.5C14.6984 12.1117 14.5968 11.7469 14.4194 11.43L18.2422 7.60746C18.4745 7.37494 18.4745 6.99804 18.2422 6.76552C18.0097 6.53324 17.6328 6.53324 17.4002 6.76552ZM12.5 13.5082C11.944 13.5082 11.492 13.056 11.492 12.5C11.492 11.9443 11.944 11.4921 12.5 11.4921C13.0559 11.4921 13.5079 11.9443 13.5079 12.5C13.5079 13.056 13.0559 13.5082 12.5 13.5082Z" fill="#338216"/>
<path d="M15.0937 17.5H9.92141C9.59263 17.5 9.32617 17.7667 9.32617 18.0952C9.32617 18.424 9.59263 18.6905 9.92141 18.6905H15.0937C15.4225 18.6905 15.6889 18.424 15.6889 18.0952C15.6889 17.7667 15.4225 17.5 15.0937 17.5Z" fill="#338216"/>
</svg>
