<svg width="40" height="30" viewBox="0 0 40 30" fill="none" xmlns="http://www.w3.org/2000/svg">
<path d="M35.8365 2.07292C35.2371 0.794271 34.0323 0 32.6923 0H3.51562C1.57715 0 0 1.68229 0 3.75V23.75C0 25.8177 1.57715 27.5 3.51562 27.5H4.88892C5.37292 28.9551 6.67542 30 8.20312 30C9.73083 30 11.0333 28.9551 11.5173 27.5H28.4827C28.9667 28.9551 30.2692 30 31.7969 30C33.3246 30 34.6271 28.9551 35.1111 27.5H36.4844C38.4229 27.5 40 25.8177 40 23.75V11.25C40 11.056 39.9576 10.8646 39.8761 10.6911L35.8365 2.07292ZM25.9375 12.5V7.5H30.625V12.5H25.9375ZM16.4062 12.5V7.5H23.5938V12.5H16.4062ZM23.5938 15V25H16.4062V15H23.5938ZM2.34375 12.5V7.5H7.03125V12.5H2.34375ZM9.375 7.5H14.0625V12.5H9.375V7.5ZM32.9688 7.5H35.7602L37.6562 11.5449V12.5H32.9688V7.5ZM3.51562 2.5H32.6923C33.1387 2.5 33.5403 2.76465 33.7402 3.19108L34.5883 5H2.34375V3.75C2.34375 3.06087 2.86957 2.5 3.51562 2.5ZM2.34375 23.75V15H14.0625V25H11.5173C11.0333 23.5449 9.73083 22.5 8.20312 22.5C6.67542 22.5 5.37292 23.5449 4.88892 25H3.51562C2.86957 25 2.34375 24.4391 2.34375 23.75ZM8.20312 27.5C7.55707 27.5 7.03125 26.9391 7.03125 26.25C7.03125 25.5609 7.55707 25 8.20312 25C8.84918 25 9.375 25.5609 9.375 26.25C9.375 26.9391 8.84918 27.5 8.20312 27.5ZM31.7969 27.5C31.1508 27.5 30.625 26.9391 30.625 26.25C30.625 25.5609 31.1508 25 31.7969 25C32.4429 25 32.9688 25.5609 32.9688 26.25C32.9688 26.9391 32.4429 27.5 31.7969 27.5ZM36.4844 25H35.1111C34.6271 23.5449 33.3246 22.5 31.7969 22.5C30.2692 22.5 28.9667 23.5449 28.4827 25H25.9375V15H37.6562V20H36.4844C35.8371 20 35.3125 20.5596 35.3125 21.25C35.3125 21.9404 35.8371 22.5 36.4844 22.5H37.6562V23.75C37.6562 24.4391 37.1304 25 36.4844 25Z" fill="#338216"/>
</svg>
