<svg width="40" height="35" viewBox="0 0 40 35" fill="none" xmlns="http://www.w3.org/2000/svg">
<path d="M36.6437 25.3663C33.0204 21.2175 28.504 20.256 26.1204 19.6248V18.1575C27.7263 16.8236 28.7228 14.9738 28.7228 12.9323C28.7228 12.1439 28.7228 5.91418 28.7228 5.12914C28.7228 2.30091 25.9788 0 22.6061 0H17.3123C13.9396 0 11.1956 2.30091 11.1956 5.12907C11.1956 5.91411 11.1956 12.1438 11.1956 12.9322C11.1956 14.9416 12.1611 16.7652 13.7227 18.094V19.6663C11.4995 20.2551 6.97834 21.219 3.35633 25.3663C1.16054 27.8806 0 30.8572 0 33.9746C0 34.5409 0.5475 35 1.22283 35H38.7772C39.4525 35 40 34.5409 40 33.9746C39.9999 30.8572 38.8394 27.8806 36.6437 25.3663ZM23.6747 20.0767L20.1539 24.6977C20.0039 24.6898 19.8966 24.6898 19.7391 24.6993L16.1683 20.1128V19.5631C18.5324 20.519 21.2993 20.5298 23.6747 19.5927V20.0767ZM14.484 10.4028C13.49 7.73062 13.6651 8.20087 13.6413 8.13846V7.76474H26.2771V8.12677C26.251 8.19267 26.4376 7.71053 25.3964 10.4029C19.509 9.67613 20.4569 9.66533 14.484 10.4028ZM13.6413 5.12907C13.6413 3.43171 15.2881 2.05078 17.3123 2.05078H22.6061C24.6303 2.05078 26.2771 3.43171 26.2771 5.12907V5.71395H13.6413V5.12907ZM13.6413 12.3757C13.8958 12.4515 14.1516 12.4843 14.325 12.4843C14.4527 12.4843 14.1712 12.5143 18.2067 12.016C20.344 11.7524 21.5077 11.9957 25.3762 12.4733C25.6602 12.5083 26.0105 12.4481 26.2771 12.3642V12.9322C26.2771 15.857 23.4429 18.2366 19.9592 18.2366C16.4904 18.2366 13.6413 15.8687 13.6413 12.9322V12.3757ZM14.4288 21.63L17.5678 25.6619C15.8039 27.5198 17.7675 30.2499 20.5707 29.7705V30.7355C20.5707 31.3018 21.1182 31.7609 21.7935 31.7609C22.4688 31.7609 23.0163 31.3018 23.0163 30.7355V27.257C23.0163 26.6466 22.7605 26.0856 22.3347 25.6447L25.4234 21.5908C27.2148 22.0652 28.1631 22.2762 29.5652 22.889V32.9492H10.4348V22.889C11.8359 22.2767 12.808 22.0592 14.4288 21.63ZM7.98912 24.2285V32.9492H2.49473C2.82913 29.4699 4.85282 26.343 7.98912 24.2285ZM32.0108 32.9492V24.2285C35.147 26.343 37.1708 29.4699 37.5052 32.9492H32.0108Z" fill="#338216"/>
</svg>
