<?xml version="1.0" encoding="utf-8"?><svg viewBox="0 0 286.05 286.05" xmlns="http://www.w3.org/2000/svg" xmlns:xlink="http://www.w3.org/1999/xlink"><style>:root>svg{display:none}:root>svg:target{display:block}</style><svg viewBox="0 0 40 30" id="arrow-left-icon" xmlns="http://www.w3.org/2000/svg"><path d="M.64 13.599L15.084.576A2.3 2.3 0 0116.633 0a2.3 2.3 0 011.548.576l1.311 1.182c.413.372.64.867.64 1.396 0 .528-.227 1.04-.64 1.412l-8.427 7.614H37.84c1.207 0 2.161.852 2.161 1.94v1.673c0 1.088-.954 2.026-2.161 2.026h-26.87l8.523 7.656c.412.372.64.854.64 1.383 0 .528-.228 1.017-.64 1.389l-1.311 1.179a2.298 2.298 0 01-1.549.574 2.3 2.3 0 01-1.548-.577L.64 16.4A1.867 1.867 0 010 15 1.867 1.867 0 01.64 13.6z"/></svg><svg viewBox="0 0 40 30" id="arrow-right-icon" xmlns="http://www.w3.org/2000/svg"><path d="M39.36 13.599L24.916.576A2.3 2.3 0 0023.367 0a2.3 2.3 0 00-1.548.576l-1.311 1.182c-.413.372-.64.867-.64 1.396 0 .528.227 1.04.64 1.412l8.427 7.614H2.16C.954 12.18 0 13.032 0 14.12v1.673c0 1.088.954 2.026 2.161 2.026h26.87l-8.523 7.656c-.412.372-.64.854-.64 1.383 0 .528.228 1.017.64 1.389l1.311 1.179c.413.371.962.574 1.549.574a2.3 2.3 0 001.548-.577L39.36 16.4c.413-.373.64-.87.639-1.4a1.867 1.867 0 00-.64-1.401z"/></svg><svg viewBox="0 0 20 20" id="calendar-icon" xmlns="http://www.w3.org/2000/svg"><path d="M4 12.5h1.333c.737 0 1.334-.56 1.334-1.25V10c0-.69-.597-1.25-1.334-1.25H4c-.737 0-1.333.56-1.333 1.25v1.25c0 .69.596 1.25 1.333 1.25zM4 10h1.333v1.25H4V10zm10.667 7.5H16c.737 0 1.333-.56 1.333-1.25V15c0-.69-.596-1.25-1.333-1.25h-1.333c-.736 0-1.334.56-1.334 1.25v1.25c0 .69.597 1.25 1.334 1.25zm0-2.5H16v1.25h-1.333V15zm0-2.5H16c.737 0 1.333-.56 1.333-1.25V10c0-.69-.596-1.25-1.333-1.25h-1.333c-.736 0-1.334.56-1.334 1.25v1.25c0 .69.597 1.25 1.334 1.25zm0-2.5H16v1.25h-1.333V10zm2.666-8.75h-2.666V.625C14.667.28 14.368 0 14 0c-.368 0-.667.28-.667.625v.625H6.667V.625C6.667.28 6.368 0 6 0c-.368 0-.667.28-.667.625v.625H2.667C1.194 1.25 0 2.37 0 3.75V17.5C0 18.88 1.194 20 2.667 20h14.666C18.806 20 20 18.88 20 17.5V3.75c0-1.38-1.194-2.5-2.667-2.5zm1.334 16.25c0 .69-.597 1.25-1.334 1.25H2.667c-.737 0-1.334-.56-1.334-1.25V6.25h17.334V17.5zm0-12.5H1.333V3.75c0-.69.597-1.25 1.334-1.25h2.666v.625c0 .345.299.625.667.625.368 0 .667-.28.667-.625V2.5h6.666v.625c0 .345.299.625.667.625.368 0 .667-.28.667-.625V2.5h2.666c.737 0 1.334.56 1.334 1.25V5zM9.333 17.5h1.334c.736 0 1.333-.56 1.333-1.25V15c0-.69-.597-1.25-1.333-1.25H9.333C8.597 13.75 8 14.31 8 15v1.25c0 .69.597 1.25 1.333 1.25zm0-2.5h1.334v1.25H9.333V15zm0-2.5h1.334c.736 0 1.333-.56 1.333-1.25V10c0-.69-.597-1.25-1.333-1.25H9.333C8.597 8.75 8 9.31 8 10v1.25c0 .69.597 1.25 1.333 1.25zm0-2.5h1.334v1.25H9.333V10zM4 17.5h1.333c.737 0 1.334-.56 1.334-1.25V15c0-.69-.597-1.25-1.334-1.25H4c-.737 0-1.333.56-1.333 1.25v1.25c0 .69.596 1.25 1.333 1.25zM4 15h1.333v1.25H4V15z" opacity=".75"/></svg><svg viewBox="0 0 15 10" id="check-icon" xmlns="http://www.w3.org/2000/svg"><path d="M14.442.276c-.627-.415-1.53-.355-2.017.133L6.008 6.845l-3.35-3.54c-.5-.529-1.43-.627-2.08-.221-.648.406-.77 1.164-.27 1.692L4.804 9.53c.5.528 1.43.627 2.08.22.185-.115.322-.261.419-.421l7.396-7.418c.486-.489.371-1.22-.257-1.634z"/></svg><svg viewBox="0 0 20 16" id="check-reverse-icon" xmlns="http://www.w3.org/2000/svg"><path opacity=".75" d="M19.918 13.614L7.518.089a.263.263 0 00-.395 0L.082 7.77a.324.324 0 000 .43l1.71 1.867c.11.118.287.118.396 0L7.32 4.468 17.812 15.91c.11.119.286.119.395 0l1.711-1.866a.324.324 0 000-.431z"/></svg><svg viewBox="0 0 20 20" id="email-icon" xmlns="http://www.w3.org/2000/svg"><path opacity=".75" d="M14.645 18.966C12.87 19.742 11.331 20 9.231 20 4.32 20 0 16.58 0 10.948 0 5.086 4.379 0 11.065 0 16.272 0 20 3.477 20 8.305c0 4.195-2.426 6.839-5.621 6.839-1.39 0-2.396-.69-2.544-2.213h-.06c-.917 1.466-2.248 2.213-3.816 2.213-1.923 0-3.314-1.38-3.314-3.736 0-3.506 2.663-6.695 6.923-6.695 1.302 0 2.781.316 3.521.718l-.887 5.316c-.296 1.695-.09 2.471.74 2.5 1.271.029 2.869-1.552 2.869-4.856 0-3.736-2.485-6.639-7.071-6.639-4.527 0-8.491 3.449-8.491 8.937 0 4.8 3.165 7.53 7.574 7.53 1.509 0 3.106-.317 4.29-.92l.532 1.667zM12.012 7.098a3.743 3.743 0 00-.917-.115c-1.953 0-3.492 1.868-3.492 4.08 0 1.092.504 1.782 1.48 1.782 1.094 0 2.248-1.35 2.514-3.018l.415-2.73z"/></svg><svg viewBox="0 0 286.054 286.054" id="error-icon" xmlns="http://www.w3.org/2000/svg"><path d="M143.027 0C64.04 0 0 64.04 0 143.027c0 78.996 64.04 143.027 143.027 143.027 78.996 0 143.027-64.022 143.027-143.027C286.054 64.04 222.022 0 143.027 0zm0 259.236c-64.183 0-116.209-52.026-116.209-116.209S78.844 26.818 143.027 26.818s116.209 52.026 116.209 116.209-52.026 116.209-116.209 116.209zm.009-196.51c-10.244 0-17.995 5.346-17.995 13.981v79.201c0 8.644 7.75 13.972 17.995 13.972 9.994 0 17.995-5.551 17.995-13.972V76.707c-.001-8.43-8.001-13.981-17.995-13.981zm0 124.997c-9.842 0-17.852 8.01-17.852 17.86 0 9.833 8.01 17.843 17.852 17.843s17.843-8.01 17.843-17.843c-.001-9.851-8.001-17.86-17.843-17.86z"/></svg><svg viewBox="0 0 20 20" id="internet-icon" xmlns="http://www.w3.org/2000/svg"><path d="M10 0C4.494 0 0 4.494 0 10s4.494 10 10 10 10-4.494 10-10S15.506 0 10 0zM7.017 1.691c-.686.872-1.185 1.95-1.53 2.997H2.954A8.868 8.868 0 017.017 1.69zM2.205 5.855h2.95a17.741 17.741 0 00-.458 3.56H1.192a8.781 8.781 0 011.013-3.56zm0 8.286a8.763 8.763 0 01-1.013-3.555h3.505c.037 1.242.194 2.444.459 3.555h-2.95zm.749 1.171h2.533c.345 1.046.844 2.125 1.53 2.997a8.868 8.868 0 01-4.063-2.997zm6.46 3.417c-1.308-.44-2.21-2.12-2.687-3.416h2.687v3.416zm0-4.588H6.363a16.285 16.285 0 01-.494-3.555h3.545v3.555zm0-4.727H5.87c.04-1.254.209-2.46.494-3.555h3.051v3.555zm0-4.726H6.727C7.204 3.39 8.106 1.71 9.414 1.27v3.417zm8.38 1.171a8.762 8.762 0 011.014 3.555h-3.505a17.702 17.702 0 00-.459-3.555h2.95zm-.748-1.171h-2.533c-.345-1.046-.844-2.125-1.53-2.997a8.869 8.869 0 014.063 2.997zm-6.46-3.417c1.308.44 2.21 2.12 2.687 3.417h-2.687V1.27zm0 4.588h3.051c.285 1.095.454 2.3.494 3.555h-3.545V5.86zm0 4.723h3.545a16.324 16.324 0 01-.494 3.559h-3.051v-3.559zm0 8.147v-3.42h2.687c-.477 1.296-1.379 2.98-2.687 3.42zm2.397-.42c.686-.872 1.185-1.955 1.53-3h2.533a8.876 8.876 0 01-4.063 3zm4.812-4.168h-2.95c.264-1.111.42-2.317.458-3.559h3.505a8.78 8.78 0 01-1.013 3.559z"/></svg><svg viewBox="0 0 20 25" id="map-marker-icon" xmlns="http://www.w3.org/2000/svg"><path d="M10 4.498c-2.774 0-5.031 2.044-5.031 4.555 0 2.512 2.257 4.556 5.031 4.556 2.774 0 5.031-2.044 5.031-4.556 0-2.511-2.257-4.555-5.031-4.555zm0 7.48c-1.781 0-3.23-1.312-3.23-2.925C6.77 7.441 8.219 6.13 10 6.13s3.23 1.312 3.23 2.924c0 1.613-1.449 2.925-3.23 2.925z"/><path d="M10 0C4.486 0 0 4.062 0 9.054 0 15.25 8.949 24.345 9.33 24.73c.358.36.983.36 1.34 0 .381-.385 9.33-9.48 9.33-15.676C20 4.062 15.514 0 10 0zm0 22.936c-3.012-3.24-8.2-9.63-8.2-13.882C1.8 4.961 5.48 1.63 10 1.63c4.521 0 8.2 3.33 8.2 7.424 0 4.252-5.187 10.642-8.2 13.882z"/></svg><svg viewBox="0 0 20 3" id="minus-focus-icon" xmlns="http://www.w3.org/2000/svg"><path d="M1.2 3h17.6c.663 0 1.2-.671 1.2-1.5S19.463 0 18.8 0H1.2C.537 0 0 .672 0 1.5 0 2.33.537 3 1.2 3z"/></svg><svg viewBox="0 0 20 3" id="minus-hover-icon" xmlns="http://www.w3.org/2000/svg"><path d="M1.2 3h17.6c.663 0 1.2-.671 1.2-1.5S19.463 0 18.8 0H1.2C.537 0 0 .672 0 1.5 0 2.33.537 3 1.2 3z"/></svg><svg viewBox="0 0 20 3" id="minus-icon" xmlns="http://www.w3.org/2000/svg"><path opacity=".75" d="M1.2 3h17.6c.663 0 1.2-.671 1.2-1.5S19.463 0 18.8 0H1.2C.537 0 0 .672 0 1.5 0 2.33.537 3 1.2 3z"/></svg><svg viewBox="0 0 20 20" id="name-icon" xmlns="http://www.w3.org/2000/svg"><g opacity=".75"><path d="M19.167 20H.833A.83.83 0 010 19.167c0-2.722 1.061-5.273 2.984-7.183 1.24-1.233 2.992-1.94 4.8-1.94h4.432c1.813 0 3.56.707 4.8 1.94A10.055 10.055 0 0120 19.167a.83.83 0 01-.833.833zm-17.46-1.665h16.587a8.366 8.366 0 00-2.453-5.168c-.93-.922-2.253-1.453-3.625-1.453H7.784c-1.376 0-2.694.53-3.625 1.453a8.366 8.366 0 00-2.453 5.168zM10 9.445a4.728 4.728 0 01-4.722-4.723A4.728 4.728 0 0110 0a4.728 4.728 0 014.723 4.722A4.728 4.728 0 0110 9.445zm0-7.78a3.06 3.06 0 00-3.057 3.057A3.06 3.06 0 0010 7.78a3.06 3.06 0 003.057-3.058A3.06 3.06 0 0010 1.665z"/></g></svg><svg viewBox="0 0 20 20" id="phone-icon" xmlns="http://www.w3.org/2000/svg"><path d="M19.476 14.678l-2.797-2.791c-1-.997-2.697-.598-3.097.698-.3.897-1.299 1.395-2.198 1.196-1.997-.498-4.694-3.09-5.194-5.184-.3-.897.3-1.894 1.199-2.193 1.298-.398 1.698-2.093.699-3.09L5.291.524c-.799-.698-1.998-.698-2.697 0L.696 2.416c-1.898 1.994.2 7.277 4.895 11.962 4.695 4.685 9.989 6.878 11.987 4.884l1.898-1.894c.699-.797.699-1.993 0-2.691z"/></svg><svg viewBox="0 0 80 80" id="play-icon" xmlns="http://www.w3.org/2000/svg"><path d="M40 0C17.909 0 0 17.909 0 40s17.909 40 40 40 40-17.909 40-40S62.091 0 40 0zm13.825 42.12l-20 12.5A2.5 2.5 0 0130 52.5v-25a2.5 2.5 0 013.825-2.12l20 12.5a2.503 2.503 0 010 4.24z"/></svg><svg viewBox="0 0 20 20" id="plus-focus-icon" xmlns="http://www.w3.org/2000/svg"><path d="M18.8 8.8l-7.777.024V1.2c0-.664-.535-1.199-1.2-1.199-.664 0-1.199.535-1.199 1.2l.024 7.6H1.199C.535 8.8 0 9.337 0 10c0 .664.535 1.199 1.2 1.199h7.436v7.602c0 .664.535 1.199 1.2 1.199.664 0 1.199-.535 1.199-1.2v-7.6H18.8a1.2 1.2 0 000-2.399z"/></svg><svg viewBox="0 0 20 20" id="plus-hover-icon" xmlns="http://www.w3.org/2000/svg"><path d="M18.8 8.8l-7.777.024V1.2c0-.664-.535-1.199-1.2-1.199-.664 0-1.199.535-1.199 1.2l.024 7.6H1.199C.535 8.8 0 9.337 0 10c0 .664.535 1.199 1.2 1.199h7.436v7.602c0 .664.535 1.199 1.2 1.199.664 0 1.199-.535 1.199-1.2v-7.6H18.8a1.2 1.2 0 000-2.399z"/></svg><svg viewBox="0 0 20 20" id="plus-icon" xmlns="http://www.w3.org/2000/svg"><path opacity=".75" d="M18.8 8.8l-7.777.024V1.2c0-.664-.535-1.199-1.2-1.199-.664 0-1.199.535-1.199 1.2l.024 7.6H1.199C.535 8.8 0 9.337 0 10c0 .664.535 1.199 1.2 1.199h7.436v7.602c0 .664.535 1.199 1.2 1.199.664 0 1.199-.535 1.199-1.2v-7.6H18.8a1.2 1.2 0 000-2.399z"/></svg><svg viewBox="0 0 25 30" id="ruble-icon" xmlns="http://www.w3.org/2000/svg"><path d="M8.31 30H4.12c-.54 0-.978-.393-.978-.879v-2.887H.978c-.54 0-.978-.393-.978-.879V21.59c0-.486.438-.88.978-.88h2.164v-2.007H.978c-.54 0-.978-.393-.978-.879V14.06c0-.486.438-.88.978-.88h2.164V.88C3.142.394 3.58 0 4.12 0h10.475C20.332 0 25 4.195 25 9.352c0 5.164-4.649 9.351-10.405 9.351H9.288v2.008h6.354c.54 0 .978.394.978.879v3.765c0 .486-.438.88-.978.88H9.288v2.886c0 .486-.438.879-.978.879zm-3.212-1.758h2.234v-2.887c0-.485.438-.878.978-.878h6.354v-2.008H8.31c-.54 0-.978-.394-.978-.88v-3.765c0-.485.438-.879.978-.879h6.285c4.666 0 8.45-3.393 8.45-7.593 0-4.188-3.791-7.594-8.45-7.594H5.098v12.3c0 .486-.438.88-.978.88H1.956v2.007H4.12c.54 0 .978.394.978.88v3.765c0 .485-.438.879-.978.879H1.956v2.008H4.12c.54 0 .978.393.978.878v2.887z"/><path d="M13.595 14.938H7.31c-.54 0-.978-.394-.978-.88V4.646c0-.486.438-.88.978-.88h6.285c3.427 0 6.215 2.506 6.215 5.587 0 3.08-2.788 5.585-6.215 5.585zM8.288 13.18h5.307c2.348 0 4.26-1.718 4.26-3.828 0-2.111-1.912-3.829-4.26-3.829H8.288v7.657z"/></svg><svg viewBox="0 0 30 30" id="star-check-icon" xmlns="http://www.w3.org/2000/svg"><path d="M29.922 11.337a1.607 1.607 0 00-1.373-1.144l-8.659-.82-3.424-8.363C16.214.397 15.64 0 15 0s-1.214.397-1.466 1.011L10.11 9.372l-8.66.82c-.637.062-1.174.51-1.371 1.145a1.71 1.71 0 00.466 1.767l6.545 5.99-1.93 8.871a1.7 1.7 0 00.62 1.718c.279.21.605.317.934.317.283 0 .565-.08.817-.237l7.47-4.659 7.465 4.659a1.534 1.534 0 001.753-.08 1.702 1.702 0 00.62-1.718l-1.93-8.871 6.545-5.989c.482-.44.665-1.133.468-1.768z"/></svg><svg viewBox="0 0 30 30" id="star-icon" xmlns="http://www.w3.org/2000/svg"><path d="M29.922 11.337a1.607 1.607 0 00-1.373-1.144l-8.659-.82-3.424-8.363C16.214.397 15.64 0 15 0s-1.214.397-1.466 1.011L10.11 9.372l-8.66.82c-.637.062-1.174.51-1.371 1.145a1.71 1.71 0 00.466 1.767l6.545 5.99-1.93 8.871a1.7 1.7 0 00.62 1.718c.279.21.605.317.934.317.283 0 .565-.08.817-.237l7.47-4.659 7.465 4.659a1.534 1.534 0 001.753-.08 1.702 1.702 0 00.62-1.718l-1.93-8.871 6.545-5.989c.482-.44.665-1.133.468-1.768z"/></svg><svg viewBox="0 0 20 20" id="textarea-icon" xmlns="http://www.w3.org/2000/svg"><path opacity=".75" d="M19.414 0H.586A.586.586 0 000 .586v15.062c0 .324.262.586.586.586h3.18v3.18a.586.586 0 001 .414l3.594-3.594h11.054a.586.586 0 00.586-.586V.586A.586.586 0 0019.414 0zm-1.67 1.172L10 7.367 2.256 1.172h15.488zm1.084 13.89H8.118a.586.586 0 00-.415.172L4.937 18v-2.352a.586.586 0 00-.585-.585h-3.18V1.805l8.462 6.77a.585.585 0 00.732 0l8.462-6.77v13.258z"/></svg><svg viewBox="0 0 20 20" id="time-form-icon" xmlns="http://www.w3.org/2000/svg"><g opacity=".75"><path d="M10 0C4.477 0 0 4.478 0 10c0 5.523 4.477 10 10 10s10-4.478 10-10S15.524 0 10 0zm0 18.075c-4.453 0-8.074-3.622-8.074-8.075 0-4.452 3.621-8.074 8.074-8.074 4.453 0 8.074 3.622 8.074 8.074 0 4.453-3.621 8.075-8.074 8.075z"/><path d="M14.218 9.358h-2.851a1.509 1.509 0 00-.725-.724V3.94a.641.641 0 10-1.284 0v4.694A1.51 1.51 0 008.486 10a1.511 1.511 0 002.88.642h2.852a.642.642 0 100-1.284z"/></g></svg></svg>