<?xml version="1.0" encoding="utf-8"?><svg viewBox="0 0 440 440" xmlns="http://www.w3.org/2000/svg" xmlns:xlink="http://www.w3.org/1999/xlink"><style>:root>svg{display:none}:root>svg:target{display:block}</style><svg viewBox="0 0 25 10" id="age-icon" xmlns="http://www.w3.org/2000/svg"><path d="M1.232 9.244h2.324V1.46L1.12 2.468l-.28-.672L3.85.228h1.358v9.016h2.24V10H1.232v-.756zm7.863-.42l3.01-3.01a6.702 6.702 0 001.063-1.344c.262-.457.393-.961.393-1.512v-.35c0-.56-.16-.999-.476-1.316-.318-.317-.752-.476-1.303-.476-.252 0-.476.023-.671.07-.197.047-.36.103-.49.168v.056c.13.075.247.182.35.322.111.14.168.308.168.504 0 .27-.084.504-.252.7-.168.187-.407.28-.715.28-.298 0-.536-.093-.713-.28-.168-.196-.252-.453-.252-.77 0-.243.07-.471.21-.686.14-.224.336-.415.588-.574.252-.168.55-.299.895-.392A4.22 4.22 0 0112.076.06c1.027 0 1.825.238 2.394.714.58.467.868 1.125.868 1.974 0 .41-.065.784-.195 1.12-.131.327-.309.64-.533.938-.214.29-.466.565-.755.826-.29.261-.593.523-.91.784l-2.577 2.142v.056h4.495V7.298h.84V10H9.095V8.824zm11.39-2.618h-2.772v-.952h2.772v-2.73h1.008v2.73h2.772v.952h-2.772v2.73h-1.008v-2.73z"/></svg><svg viewBox="0 0 16 10" id="age2-icon" xmlns="http://www.w3.org/2000/svg"><path d="M6.44 1.768H1.75v1.554H.91V.228h6.58v1.218L3.962 10H2.464L6.44 1.768zm5.65 4.438H9.32v-.952h2.771v-2.73h1.008v2.73h2.772v.952H13.1v2.73H12.09v-2.73z"/></svg><svg viewBox="0 0 16 11" id="age3-icon" xmlns="http://www.w3.org/2000/svg"><path d="M4.2 9.342c.355 0 .649-.07.882-.21.233-.15.415-.36.546-.63.14-.28.238-.616.294-1.008.056-.401.084-.854.084-1.358V4.092a9.59 9.59 0 00-.084-1.344 3.14 3.14 0 00-.294-1.008c-.13-.28-.313-.49-.546-.63C4.849.96 4.555.886 4.2.886s-.649.075-.882.224c-.233.14-.42.35-.56.63-.13.27-.224.607-.28 1.008a9.59 9.59 0 00-.084 1.344v2.044c0 .504.028.957.084 1.358.056.392.15.728.28 1.008.14.27.327.48.56.63.233.14.527.21.882.21zm0 .826c-1.176 0-2.067-.43-2.674-1.288-.607-.868-.91-2.123-.91-3.766 0-1.643.303-2.893.91-3.752C2.133.494 3.024.06 4.2.06s2.067.434 2.674 1.302c.607.859.91 2.11.91 3.752 0 1.643-.303 2.898-.91 3.766-.607.859-1.498 1.288-2.674 1.288zm7.89-3.962H9.32v-.952h2.771v-2.73h1.008v2.73h2.772v.952H13.1v2.73H12.09v-2.73z"/></svg><svg viewBox="0 0 40 30" id="bus-icon" xmlns="http://www.w3.org/2000/svg"><path d="M35.837 2.073C35.236.794 34.032 0 32.691 0H3.516C1.577 0 0 1.682 0 3.75v20c0 2.068 1.577 3.75 3.516 3.75h1.373c.484 1.455 1.786 2.5 3.314 2.5s2.83-1.045 3.314-2.5h16.966c.484 1.455 1.786 2.5 3.314 2.5s2.83-1.045 3.314-2.5h1.373c1.939 0 3.516-1.682 3.516-3.75v-12.5c0-.194-.042-.385-.124-.559l-4.04-8.618zm-9.9 10.427v-5h4.688v5h-4.688zm-9.53 0v-5h7.187v5h-7.188zm7.187 2.5v10h-7.188V15h7.188zm-21.25-2.5v-5H7.03v5H2.344zm7.031-5h4.688v5H9.375v-5zm23.594 0h2.791l1.896 4.045v.955H32.97v-5zm-29.453-5h29.176c.447 0 .848.265 1.048.691L34.588 5H2.344V3.75c0-.69.526-1.25 1.172-1.25zM2.344 23.75V15h11.719v10h-2.546c-.484-1.455-1.786-2.5-3.314-2.5S5.373 23.545 4.89 25H3.516c-.646 0-1.172-.56-1.172-1.25zm5.86 3.75c-.647 0-1.173-.56-1.173-1.25S7.557 25 8.203 25c.646 0 1.172.56 1.172 1.25s-.526 1.25-1.172 1.25zm23.593 0c-.646 0-1.172-.56-1.172-1.25S31.151 25 31.797 25c.646 0 1.172.56 1.172 1.25s-.526 1.25-1.172 1.25zm4.687-2.5h-1.373c-.484-1.455-1.786-2.5-3.314-2.5s-2.83 1.045-3.314 2.5h-2.546V15h11.72v5h-1.173c-.647 0-1.172.56-1.172 1.25s.525 1.25 1.172 1.25h1.172v1.25c0 .69-.526 1.25-1.172 1.25z"/></svg><svg viewBox="0 0 20 20" id="calendar-icon" xmlns="http://www.w3.org/2000/svg"><path d="M4 12.5h1.333c.737 0 1.334-.56 1.334-1.25V10c0-.69-.597-1.25-1.334-1.25H4c-.737 0-1.333.56-1.333 1.25v1.25c0 .69.596 1.25 1.333 1.25zM4 10h1.333v1.25H4V10zm10.667 7.5H16c.737 0 1.333-.56 1.333-1.25V15c0-.69-.596-1.25-1.333-1.25h-1.333c-.736 0-1.334.56-1.334 1.25v1.25c0 .69.597 1.25 1.334 1.25zm0-2.5H16v1.25h-1.333V15zm0-2.5H16c.737 0 1.333-.56 1.333-1.25V10c0-.69-.596-1.25-1.333-1.25h-1.333c-.736 0-1.334.56-1.334 1.25v1.25c0 .69.597 1.25 1.334 1.25zm0-2.5H16v1.25h-1.333V10zm2.666-8.75h-2.666V.625C14.667.28 14.368 0 14 0c-.368 0-.667.28-.667.625v.625H6.667V.625C6.667.28 6.368 0 6 0c-.368 0-.667.28-.667.625v.625H2.667C1.194 1.25 0 2.37 0 3.75V17.5C0 18.88 1.194 20 2.667 20h14.666C18.806 20 20 18.88 20 17.5V3.75c0-1.38-1.194-2.5-2.667-2.5zm1.334 16.25c0 .69-.597 1.25-1.334 1.25H2.667c-.737 0-1.334-.56-1.334-1.25V6.25h17.334V17.5zm0-12.5H1.333V3.75c0-.69.597-1.25 1.334-1.25h2.666v.625c0 .345.299.625.667.625.368 0 .667-.28.667-.625V2.5h6.666v.625c0 .345.299.625.667.625.368 0 .667-.28.667-.625V2.5h2.666c.737 0 1.334.56 1.334 1.25V5zM9.333 17.5h1.334c.736 0 1.333-.56 1.333-1.25V15c0-.69-.597-1.25-1.333-1.25H9.333C8.597 13.75 8 14.31 8 15v1.25c0 .69.597 1.25 1.333 1.25zm0-2.5h1.334v1.25H9.333V15zm0-2.5h1.334c.736 0 1.333-.56 1.333-1.25V10c0-.69-.597-1.25-1.333-1.25H9.333C8.597 8.75 8 9.31 8 10v1.25c0 .69.597 1.25 1.333 1.25zm0-2.5h1.334v1.25H9.333V10zM4 17.5h1.333c.737 0 1.334-.56 1.334-1.25V15c0-.69-.597-1.25-1.334-1.25H4c-.737 0-1.333.56-1.333 1.25v1.25c0 .69.596 1.25 1.333 1.25zM4 15h1.333v1.25H4V15z" opacity=".75"/></svg><svg viewBox="0 0 25 20" id="car-icon" xmlns="http://www.w3.org/2000/svg"><path d="M23.885 5.942l-3.311-4.75C20.039.423 19.346 0 18.627 0H10.39c-.901-.005-1.752.66-2.303 1.8L6.035 6.021 2.708 6.4C1.184 6.583.004 8.612 0 11.058V16c0 .368.186.667.417.667h1.287c.229 2.176 1.517 3.643 2.877 3.277 1.05-.282 1.872-1.598 2.048-3.277h11.325c.229 2.176 1.517 3.643 2.877 3.277 1.05-.282 1.872-1.598 2.048-3.277h1.704c.23 0 .417-.299.417-.667V10.21c.003-1.592-.393-3.12-1.098-4.242l-.017-.025zM.833 11.334v-.276c.003-.129.011-.257.024-.384.228.048.389.382.36.747-.026.314-.186.556-.384.579v-.666zm3.334 7.333c-.92 0-1.667-1.194-1.667-2.667 0-1.473.746-2.666 1.667-2.666.92 0 1.666 1.193 1.666 2.666 0 1.473-.746 2.667-1.666 2.667zm1.666-5.64l-.025-.036-.03-.046a2.947 2.947 0 00-.31-.355l-.055-.053c-.11-.1-.223-.187-.34-.26l-.062-.037a1.834 1.834 0 00-.375-.167l-.05-.012a1.48 1.48 0 00-.84 0c-.016.005-.033.007-.05.012a1.83 1.83 0 00-.374.166l-.062.037c-.117.074-.231.161-.34.261l-.055.053a2.945 2.945 0 00-.31.355l-.03.046c-.101.138-.194.29-.28.451l-.004.009c-.084.164-.16.338-.226.521l-.027.067a5.256 5.256 0 00-.183.653 5.84 5.84 0 00-.098.597c0 .014-.005.027-.007.042H.833v-1.997c.69-.012 1.245-.916 1.238-2.02-.006-.912-.396-1.703-.95-1.922.344-.954.96-1.575 1.647-1.658l3.065-.351v5.644zm7.5 2.306H6.667v-8h6.666v8zm0-9.333h-6.23l1.642-3.38c.393-.814 1.001-1.29 1.645-1.286h2.943V6zm7.5-2.645L22.678 6h-1.845V3.355zm-6.666-2.021h4.458c.506 0 .995.294 1.375.83V6h-5.833V1.334zm4.325 12.117c-.084.164-.16.338-.226.521l-.027.067a5.24 5.24 0 00-.16.555l-.023.098a5.933 5.933 0 00-.098.597c0 .014-.005.027-.007.042h-3.784V7.333H20v4.727h-.003c-.017.005-.033.007-.05.013-.127.04-.253.095-.375.166l-.061.036a2.34 2.34 0 00-.34.262l-.055.052a2.969 2.969 0 00-.31.356c-.011.014-.021.03-.031.045-.1.138-.194.289-.279.451l-.004.01zm1.925 5.216c-.92 0-1.667-1.194-1.667-2.667 0-1.473.746-2.666 1.667-2.666.92 0 1.666 1.193 1.666 2.666 0 1.473-.746 2.667-1.666 2.667zm3.75-3.334h-1.285c0-.014-.005-.027-.007-.042a5.86 5.86 0 00-.28-1.25l-.027-.066a4.671 4.671 0 00-.227-.521l-.004-.01a3.695 3.695 0 00-.279-.45l-.03-.046a2.963 2.963 0 00-.31-.355l-.055-.053a2.31 2.31 0 00-.34-.261l-.062-.037a1.85 1.85 0 00-.375-.166l-.05-.013h-.002v-4.73h2.711c.404.82.623 1.833.622 2.876v5.124z"/></svg><svg viewBox="0 0 15 10" id="check-icon" xmlns="http://www.w3.org/2000/svg"><path d="M14.442.276c-.627-.415-1.53-.355-2.017.133L6.008 6.845l-3.35-3.54c-.5-.529-1.43-.627-2.08-.221-.648.406-.77 1.164-.27 1.692L4.804 9.53c.5.528 1.43.627 2.08.22.185-.115.322-.261.419-.421l7.396-7.418c.486-.489.371-1.22-.257-1.634z"/></svg><svg viewBox="0 0 20 16" id="check-reverse-icon" xmlns="http://www.w3.org/2000/svg"><path opacity=".75" d="M19.918 13.614L7.518.089a.263.263 0 00-.395 0L.082 7.77a.324.324 0 000 .43l1.71 1.867c.11.118.287.118.396 0L7.32 4.468 17.812 15.91c.11.119.286.119.395 0l1.711-1.866a.324.324 0 000-.431z"/></svg><svg viewBox="0 0 25 25" id="doctor-icon" xmlns="http://www.w3.org/2000/svg"><path d="M14.13 12.15h-1.087c0 .222-.243.402-.543.402-.3 0-.543-.18-.543-.402H10.87c0 .665.731 1.205 1.63 1.205.899 0 1.63-.54 1.63-1.205zM21.74 19.378h-3.262v.803h-1.087v2.41h1.087v.802h3.261v-.803h1.087v-2.409H21.74v-.803zm0 2.41h-1.088v.802h-1.087v-.803h-1.087v-.803h1.087v-.803h1.087v.803h1.087v.803z"/><path d="M20.069 16.362l.56-.414-5.872-1.084-.038.215-.045-.01v-.415c1.91-.553 3.341-1.81 3.707-3.34 1.286-.159 2.271-.98 2.271-1.974 0-.405-.166-.78-.446-1.096.29-.615.446-1.257.446-1.916 0-1.705-1.203-3.307-3.142-4.225-.8-1.15-2.464-1.901-2.556-1.942L14.59 0l-.586.432c-.764.565-1.781.877-2.863.877-3.746 0-6.793 2.251-6.793 5.019v.987c0 .34.191.649.498.871-.32.334-.498.734-.498 1.154 0 .993.985 1.815 2.27 1.974.366 1.53 1.797 2.787 3.708 3.34v.415l-.045.01-.038-.215-5.96 1.101.634.402C1.947 17.312 0 19.46 0 21.892V25h25v-3.108c0-2.437-1.953-4.587-4.931-5.53zm-1.567.022l-2.966 2.191 1.144.846-1.992 2.045.99-5.604 2.824.522zm-8.19 5.08l-1.933-1.982 1.456-.718.477 2.7zm.798-1.684l1.39-1.65 1.39 1.65-.78 4.417h-1.22l-.78-4.417zm3.001-1.256l-.974-1.157 1.24-1.526.2.048-.466 2.635zM13.043 7.332H8.697c-.23 0-.447.033-.654.082l1.206-1.07c.564.41 1.644.988 3.252.988 1.711 0 3.017-.308 3.923-.913l.968.358v.778a2.749 2.749 0 00-1.087-.223H13.044zm-4.347.803h2.174v.803c0 .443-.488.803-1.087.803H8.696c-.6 0-1.087-.36-1.087-.803 0-.443.487-.803 1.087-.803zm5.434 0h2.174c.6 0 1.087.36 1.087.803 0 .443-.487.803-1.087.803h-1.087c-.6 0-1.087-.36-1.087-.803v-.803zm4.348 2.335V8.21c.631.165 1.087.607 1.087 1.13 0 .523-.456.964-1.087 1.13zm1.087-4.142c0 .443-.081.877-.234 1.298a3.294 3.294 0 00-.853-.254V6.281l-1.338-.495c.517-.618.781-1.422.792-2.407 1.03.78 1.633 1.84 1.633 2.949zm-14.13 0c0-2.325 2.56-4.216 5.706-4.216 1.357 0 2.634-.387 3.6-1.088.676.362 2.107 1.252 2.107 2.292 0 2.192-1.382 3.213-4.348 3.213-1.84 0-2.772-.986-2.809-1.026l-.404-.448-2.85 2.528a.66.66 0 01-.435.15c-.313 0-.567-.188-.567-.418v-.987zm0 3.012c0-.306.162-.592.44-.813.042.002.083.01.127.01.18 0 .353-.029.52-.07v2.003c-.631-.166-1.087-.608-1.087-1.13zm2.174 1.204v-.223c.32.138.689.223 1.087.223h1.087c1.199 0 2.174-.72 2.174-1.606v-.803h1.086v.803c0 .886.976 1.606 2.174 1.606h1.087a2.75 2.75 0 001.087-.223v.223c0 1.993-2.194 3.614-4.891 3.614s-4.891-1.621-4.891-3.614zm4.891 4.417c.372 0 .734-.028 1.087-.076v.367L12.5 16.59l-1.087-1.338v-.367c.353.048.715.076 1.087.076zm-1.876.88l1.24 1.526-.975 1.156-.465-2.635.2-.047zm-1.302.02l.445 2.52-3.18-2.014 2.735-.505zm-8.235 6.031c0-2.243 1.91-4.206 4.766-4.932l2.488 1.575-1.502.74 3.77 3.868.185 1.054H1.087v-2.305zm22.826 2.305h-9.707l.186-1.052 3.71-3.81-1.03-.76 2.157-1.593c2.811.742 4.684 2.689 4.684 4.91v2.305z"/><path d="M11.957 22.59h1.086v.804h-1.086v-.803zM11.957 19.378h1.086v.803h-1.086v-.803zM11.957 20.984h1.086v.803h-1.086v-.803z"/></svg><svg viewBox="0 0 20 25" id="dress-icon" xmlns="http://www.w3.org/2000/svg"><path d="M14.588 8.874l1.697-1.15.028-.02c1.721-1.26 1.818-3.266.293-4.611V0h-2v2.06c-1.533-.407-3.3-.21-4.606.592-1.306-.802-3.073-.999-4.606-.591V0h-2v3.093c-1.525 1.345-1.428 3.35.293 4.611l1.725 1.17C2.2 10.094 0 12.553 0 15.381v7.275C.027 23.952 1.475 25 3.25 25c.873 0 1.666-.254 2.25-.665.584.411 1.377.665 2.25.665s1.666-.254 2.25-.665c.585.411 1.377.665 2.25.665s1.665-.254 2.25-.665c.585.411 1.377.665 2.25.665 1.775 0 3.223-1.048 3.25-2.344v-7.275c0-2.828-2.2-5.287-5.412-6.507zm-9.5-2.215c-1.032-.766-1.028-2.004.013-2.767 1.045-.765 2.745-.765 3.79 0L10 4.704l1.109-.812c1.045-.765 2.745-.765 3.79 0 1.04.763 1.045 2.001.013 2.767l-2.406 1.63A13.45 13.45 0 0010 8.058c-.865 0-1.705.08-2.506.233L5.088 6.66zM16.75 23.535c-.69 0-1.25-.41-1.25-.915h-2c0 .505-.56.915-1.25.915S11 23.125 11 22.62H9c0 .505-.56.915-1.25.915s-1.25-.41-1.25-.915h-2c0 .505-.56.915-1.25.915S2 23.125 2 22.62v-7.24c0-2.521 2.187-4.676 5.244-5.5-.647 1.103-1.02 2.566-1.167 3.98l-.002.022L6 17.077l2 .025.074-3.152c.141-1.35.484-2.563.966-3.419.47-.834.896-1.01.96-1.01.064 0 .49.176.96 1.01.482.855.824 2.07.966 3.42L12 17.101l2-.025-.075-3.174-.002-.042c-.146-1.415-.52-2.878-1.167-3.981 3.057.824 5.244 2.979 5.244 5.5v7.24c0 .505-.56.915-1.25.915z"/></svg><svg viewBox="0 0 20 20" id="email-icon" xmlns="http://www.w3.org/2000/svg"><path opacity=".75" d="M14.645 18.966C12.87 19.742 11.331 20 9.231 20 4.32 20 0 16.58 0 10.948 0 5.086 4.379 0 11.065 0 16.272 0 20 3.477 20 8.305c0 4.195-2.426 6.839-5.621 6.839-1.39 0-2.396-.69-2.544-2.213h-.06c-.917 1.466-2.248 2.213-3.816 2.213-1.923 0-3.314-1.38-3.314-3.736 0-3.506 2.663-6.695 6.923-6.695 1.302 0 2.781.316 3.521.718l-.887 5.316c-.296 1.695-.09 2.471.74 2.5 1.271.029 2.869-1.552 2.869-4.856 0-3.736-2.485-6.639-7.071-6.639-4.527 0-8.491 3.449-8.491 8.937 0 4.8 3.165 7.53 7.574 7.53 1.509 0 3.106-.317 4.29-.92l.532 1.667zM12.012 7.098a3.743 3.743 0 00-.917-.115c-1.953 0-3.492 1.868-3.492 4.08 0 1.092.504 1.782 1.48 1.782 1.094 0 2.248-1.35 2.514-3.018l.415-2.73z"/></svg><svg viewBox="0 0 286.054 286.054" id="error-icon" xmlns="http://www.w3.org/2000/svg"><path d="M143.027 0C64.04 0 0 64.04 0 143.027c0 78.996 64.04 143.027 143.027 143.027 78.996 0 143.027-64.022 143.027-143.027C286.054 64.04 222.022 0 143.027 0zm0 259.236c-64.183 0-116.209-52.026-116.209-116.209S78.844 26.818 143.027 26.818s116.209 52.026 116.209 116.209-52.026 116.209-116.209 116.209zm.009-196.51c-10.244 0-17.995 5.346-17.995 13.981v79.201c0 8.644 7.75 13.972 17.995 13.972 9.994 0 17.995-5.551 17.995-13.972V76.707c-.001-8.43-8.001-13.981-17.995-13.981zm0 124.997c-9.842 0-17.852 8.01-17.852 17.86 0 9.833 8.01 17.843 17.852 17.843s17.843-8.01 17.843-17.843c-.001-9.851-8.001-17.86-17.843-17.86z"/></svg><svg viewBox="0 0 25 20" id="field-icon" xmlns="http://www.w3.org/2000/svg"><path d="M24.66 1.056C23.564.562 21.14.042 18.632.002c-2.242-.034-5.419.293-7.928 2.033C5.41.34 1.573.5.34 1.055c-.202.092-.34.358-.34.66v17.594c0 .381.219.69.488.69h7.504l.003.001h16.517c.27 0 .488-.31.488-.691v-8.961-8.634c0-.3-.138-.567-.34-.658zM.977 18.618v-6.522c2.778.187 5.169 2.663 6.314 6.522H.977zm23.046 0h-7.426C13.55 12.552 9.795 8.707 5.434 7.192c-.262-.091-.526.135-.59.506-.065.37.095.745.357.836C9.135 9.9 12.558 13.29 15.39 18.618H8.34c-.592-2.254-1.575-4.175-2.86-5.579-1.311-1.434-2.86-2.231-4.504-2.327V4.633c2.288-.154 6.03.375 10.197 2.321 3.478 1.624 8.514 4.848 12.85 10.997v.667zm0-2.593c-4.305-5.727-9.147-8.797-12.543-10.383C9.4 4.67 7.3 3.977 5.238 3.58 3.68 3.28 2.22 3.168.977 3.25v-.993c1.143-.3 3.863-.371 7.595.572 3.55.896 9.094 2.997 15.451 7.914v5.281zm0-6.853a53.686 53.686 0 00-2.67-1.897c.805-.19 1.74-.246 2.67-.026v1.923zm0-3.321c-1.538-.316-3.068.018-4.112.5a46.942 46.942 0 00-3.057-1.734 14.609 14.609 0 013.443-.368c.268.004.49-.303.492-.684.003-.382-.214-.694-.483-.698-2.29-.03-4.097.445-5.246.872a39.821 39.821 0 00-2.754-1.148c4.182-2.043 9.834-1.018 11.717-.353v3.613z"/><path d="M21.837 2.964l-.028-.003c-.27-.03-.504.255-.525.635-.02.38.18.713.449.743l.027.003a.363.363 0 00.04.002c.251 0 .465-.274.485-.636.022-.38-.179-.713-.448-.744zM3.978 6.777h-.004c-.266-.064-.518.19-.562.567-.044.376.135.732.401.795l.013.003a.35.35 0 00.077.009c.236 0 .443-.243.481-.583.042-.377-.14-.731-.406-.79z"/></svg><svg viewBox="0 0 30 20" id="group-icon" xmlns="http://www.w3.org/2000/svg"><path d="M10.147 7.844v4.302c0 .28.258.506.576.506h1.936v5.921c0 .035.005.07.012.103.061.738.756 1.324 1.611 1.324.4 0 .763-.134 1.047-.345a1.74 1.74 0 001.047.345c.856 0 1.55-.586 1.61-1.324a.431.431 0 00.011-.103v-5.921h1.362c.317 0 .575-.227.575-.506V7.845c0-1.553-.964-2.97-2.465-3.728.35-.434.546-.954.546-1.502C18.015 1.174 16.68 0 15.041 0c-1.64 0-2.974 1.174-2.974 2.615 0 .548.195 1.067.546 1.502-1.502.757-2.466 2.175-2.466 3.727zm4.894-6.832c1.005 0 1.823.72 1.823 1.603 0 .497-.258.958-.708 1.264a1.86 1.86 0 01-.254.146 2.102 2.102 0 01-1.447.104 1.893 1.893 0 01-.531-.249c-.45-.307-.707-.767-.707-1.264 0-.885.819-1.604 1.824-1.604zm-1.54 3.838c.024.013.05.022.074.034.054.027.109.05.164.074a3.243 3.243 0 00.454.157c.047.012.095.022.143.032.23.05.464.083.705.083.242 0 .476-.034.704-.082a3.425 3.425 0 00.763-.263c.024-.013.05-.021.073-.034 1.328.527 2.201 1.7 2.201 2.994v3.795h-1.36c-.319 0-.576.227-.576.506v6.428c0 .229-.211.414-.472.414-.26 0-.471-.185-.471-.414 0-.28-.258-.506-.576-.506-.318 0-.576.227-.576.506 0 .229-.21.414-.47.414s-.472-.185-.472-.414v-6.428c0-.279-.258-.506-.576-.506h-1.936V7.845c.002-1.293.876-2.467 2.204-2.995zM28.052 18.675a.447.447 0 00.012-.102v-5.922h1.36c.318 0 .576-.226.576-.506v-4.3c0-1.553-.964-2.971-2.465-3.729.35-.434.546-.953.546-1.501C28.081 1.173 26.747 0 25.107 0c-1.64 0-2.975 1.173-2.975 2.615 0 .548.196 1.067.546 1.501-1.5.757-2.465 2.175-2.465 3.728v4.301c0 .28.258.506.576.506h1.936v5.922c0 .036.005.07.012.103.06.738.756 1.324 1.61 1.324.401 0 .763-.134 1.047-.345.284.213.647.345 1.047.345.854 0 1.55-.587 1.61-1.325zM25.107 1.012c1.005 0 1.823.72 1.823 1.603 0 .497-.258.958-.707 1.265-.648.442-1.585.442-2.232 0-.45-.307-.707-.768-.707-1.265 0-.884.818-1.603 1.823-1.603zm1.334 17.976c-.26 0-.47-.187-.47-.415 0-.28-.259-.506-.576-.506-.319 0-.576.227-.576.506 0 .228-.212.415-.472.415s-.472-.187-.472-.415v-6.428c0-.278-.257-.505-.575-.505h-1.936V7.844c0-1.293.873-2.466 2.201-2.994.024.013.05.022.075.034.054.027.108.05.164.075a3.326 3.326 0 00.453.157l.138.03c.231.05.465.085.709.085.243 0 .479-.036.71-.084l.136-.03a3.278 3.278 0 00.452-.157c.056-.024.112-.049.167-.076.024-.012.05-.02.074-.033 1.328.527 2.201 1.7 2.201 2.994v3.795h-1.36c-.32 0-.576.227-.576.506v6.427c.004.228-.207.415-.467.415zM6.228 20c.855 0 1.55-.586 1.61-1.325a.448.448 0 00.012-.102v-5.922h1.36c.32 0 .577-.226.577-.506v-4.3c0-1.554-.964-2.972-2.465-3.729.35-.434.546-.953.546-1.501C7.868 1.173 6.533 0 4.893 0 3.253 0 1.92 1.173 1.92 2.615c0 .548.196 1.067.546 1.501C.965 4.874 0 6.292 0 7.844v4.301c0 .28.258.506.576.506h1.936v5.922c0 .036.005.07.012.103.06.738.756 1.324 1.61 1.324.401 0 .764-.134 1.047-.345A1.75 1.75 0 006.228 20zM4.893 1.012c1.005 0 1.823.72 1.823 1.603 0 .497-.257.958-.707 1.265-.323.22-.72.33-1.115.33a2.1 2.1 0 01-.585-.082 1.881 1.881 0 01-.531-.248c-.45-.307-.707-.768-.707-1.265 0-.884.818-1.603 1.822-1.603zm-.758 17.976c-.26 0-.472-.187-.472-.415v-6.428c0-.278-.258-.505-.575-.505H1.15V7.844c0-1.293.874-2.466 2.202-2.994.024.013.05.022.075.034.053.027.108.05.163.074a3.351 3.351 0 00.454.157c.047.012.095.022.143.032.23.05.463.083.705.083.242 0 .475-.034.705-.082a3.449 3.449 0 00.761-.263c.024-.013.05-.022.074-.034 1.328.527 2.201 1.7 2.201 2.994v3.795h-1.36c-.318 0-.575.227-.575.506v6.427c0 .23-.212.415-.472.415s-.471-.186-.471-.415c0-.279-.258-.506-.576-.506-.318 0-.576.227-.576.506.001.228-.21.415-.47.415z"/></svg><svg viewBox="0 0 25 25" id="hay-icon" xmlns="http://www.w3.org/2000/svg"><path d="M22.443 16.799c-.077-.276-.349-.433-.607-.35-.259.082-.405.373-.328.649.33 1.183.03 2.459-.787 3.33-1.221 1.306-3.21 1.306-4.431 0-1.222-1.305-1.222-3.43 0-4.735.853-.912 2.093-1.218 3.235-.8.256.094.533-.05.62-.323.088-.273-.048-.57-.303-.663-1.498-.55-3.123-.148-4.242 1.048-1.603 1.713-1.603 4.5 0 6.212a3.967 3.967 0 002.906 1.284 3.967 3.967 0 002.906-1.284c1.07-1.144 1.465-2.817 1.031-4.368z"/><path d="M21.41 14.953l-.006-.007a.466.466 0 00-.69 0 .548.548 0 000 .738l.01.01c.094.1.219.151.343.151a.472.472 0 00.347-.154.547.547 0 00-.003-.738zM14.604 22.23l-.004-.005a.466.466 0 00-.69 0 .548.548 0 000 .738l.004.005c.095.102.22.152.345.152.125 0 .25-.05.345-.152a.547.547 0 000-.738zM18.506 15.769c-1.18 0-2.139 1.025-2.139 2.285 0 1.26.96 2.285 2.139 2.285 1.18 0 2.139-1.025 2.139-2.285 0-1.26-.96-2.285-2.14-2.285zm0 3.527c-.641 0-1.162-.557-1.162-1.242 0-.685.521-1.242 1.162-1.242.64 0 1.162.557 1.162 1.242 0 .685-.521 1.242-1.162 1.242zM12.5 2.547c-2.266 0-4.11 1.97-4.11 4.392 0 1.617.828 3.099 2.16 3.867a.473.473 0 00.662-.211.54.54 0 00-.197-.707c-1.017-.586-1.649-1.716-1.649-2.95 0-1.845 1.406-3.348 3.134-3.348s3.134 1.503 3.134 3.349c0 1.29-.674 2.443-1.76 3.01a.538.538 0 00-.223.698.486.486 0 00.439.292.46.46 0 00.214-.053c1.422-.743 2.306-2.256 2.306-3.947 0-2.422-1.844-4.392-4.11-4.392z"/><path d="M12.511 10.288H12.5c-.27 0-.488.234-.488.522 0 .288.218.522.488.522h.011c.27 0 .489-.234.489-.522 0-.288-.219-.522-.489-.522zM12.506 0H12.5c-.27 0-.488.234-.488.522 0 .288.218.522.488.522h.006c.27 0 .488-.234.488-.522 0-.288-.218-.522-.488-.522zM14.016 5.328a2.058 2.058 0 00-1.512-.67c-.571 0-1.108.238-1.512.67-.834.89-.834 2.34 0 3.232.417.445.964.668 1.512.668s1.096-.223 1.512-.668a2.351 2.351 0 00.627-1.616c0-.61-.223-1.185-.627-1.616zm-.69 2.494a1.111 1.111 0 01-1.644 0 1.304 1.304 0 010-1.756c.22-.235.512-.364.822-.364.31 0 .602.13.822.364.22.234.34.546.34.878 0 .331-.12.643-.34.878zM9.4 14.956c-1.07-1.143-2.636-1.566-4.087-1.102-.258.083-.405.373-.328.65.077.276.35.433.608.35 1.106-.354 2.3-.032 3.117.84 1.222 1.306 1.222 3.43 0 4.735-.611.653-1.413.98-2.216.98a3.025 3.025 0 01-2.216-.98c-.853-.912-1.14-2.236-.748-3.457.088-.272-.048-.57-.303-.663-.255-.093-.533.052-.62.325-.514 1.6-.138 3.337.98 4.533a3.967 3.967 0 002.907 1.285A3.967 3.967 0 009.4 21.167c1.603-1.712 1.603-4.498 0-6.211z"/><path d="M4.278 14.954a.467.467 0 00-.69 0l-.008.01a.548.548 0 000 .737c.095.102.22.153.345.153.125 0 .25-.051.345-.153l.008-.008a.548.548 0 000-.739zM11.086 22.23a.466.466 0 00-.69 0l-.005.005a.548.548 0 000 .738.471.471 0 00.69 0l.005-.005a.548.548 0 000-.738zM6.488 15.774c-1.179 0-2.138 1.026-2.138 2.286s.959 2.285 2.138 2.285c1.18 0 2.139-1.025 2.139-2.285 0-1.26-.96-2.286-2.139-2.286zm0 3.528c-.64 0-1.162-.557-1.162-1.242 0-.685.521-1.242 1.162-1.242.641 0 1.162.557 1.162 1.242 0 .685-.52 1.242-1.162 1.242z"/><path d="M24.512 23.957h-2.58a6.595 6.595 0 001.166-.99C24.325 21.658 25 19.915 25 18.062c0-1.854-.675-3.596-1.902-4.907-1.227-1.31-2.857-2.033-4.592-2.033-.294 0-.585.022-.871.062a7.213 7.213 0 001.36-4.243c0-3.169-2.004-5.933-4.872-6.721-.262-.072-.528.096-.595.375-.067.28.09.564.351.635 2.437.67 4.138 3.018 4.138 5.71 0 3.252-2.475 5.897-5.517 5.897-3.042 0-5.518-2.645-5.518-5.896 0-2.693 1.702-5.04 4.139-5.71.26-.072.418-.357.35-.636-.066-.279-.332-.447-.594-.375-2.868.788-4.871 3.552-4.871 6.72 0 1.598.508 3.07 1.36 4.244a6.176 6.176 0 00-.872-.062c-1.734 0-3.365.722-4.592 2.033C.675 14.464 0 16.207 0 18.06c0 1.853.675 3.596 1.902 4.907.358.382.75.712 1.166.989H.488c-.27 0-.488.233-.488.521 0 .289.219.522.488.522h24.024c.27 0 .488-.233.488-.521 0-.289-.219-.522-.488-.522zM12.5 13.879c.294 0 .583-.021.867-.062a7.048 7.048 0 00-.867 1.6 7.05 7.05 0 00-.867-1.6 6.1 6.1 0 00.867.062zm5.888 10.078a5.232 5.232 0 01-2.686-.816.471.471 0 00-.668.184.549.549 0 00.073.632H9.893a.549.549 0 00.073-.632.471.471 0 00-.668-.184 5.233 5.233 0 01-2.684.816h-.231c-1.388-.031-2.754-.62-3.79-1.727-2.152-2.299-2.152-6.04 0-8.338 2.15-2.3 5.651-2.3 7.803 0 1.03 1.1 1.58 2.549 1.615 4.022a7.624 7.624 0 000 .306 6.175 6.175 0 01-.763 2.836.542.542 0 00.172.715.471.471 0 00.669-.184 7.16 7.16 0 00.41-.88c.117.3.254.594.412.88.137.248.437.33.669.184a.542.542 0 00.172-.715 6.175 6.175 0 01-.763-2.836 7.264 7.264 0 000-.306c.035-1.473.586-2.922 1.615-4.022 2.152-2.3 5.652-2.3 7.803 0 2.152 2.299 2.152 6.039 0 8.338-1.036 1.107-2.403 1.696-3.791 1.727h-.228z"/></svg><svg viewBox="0 0 40 30" id="horse-icon" xmlns="http://www.w3.org/2000/svg"><path d="M39.657 17.525l-6.077-4.649a1.375 1.375 0 00-.828-.262H30.39v-1.015c0-.28.167-.54.458-.711a1.455 1.455 0 011.017-.155l2.28.467c1.2.246 2.456.056 3.442-.524.987-.579 1.553-1.457 1.553-2.408 0-.73-.345-1.436-.97-1.988l-3.093-2.73V.896c0-.495-.525-.896-1.172-.896h-1.562c-1.553 0-2.873.774-3.338 1.844-1.438.147-2.797.613-3.904 1.348-1.359.903-2.246 2.15-2.499 3.513l-.604 3.257c-.027.147-.194.257-.387.257H12.5c-1.835 0-3.538.443-4.935 1.195H5.859C2.63 11.414 0 13.425 0 15.896v1.554c0 .495.525.897 1.172.897.647 0 1.172-.402 1.172-.897v-1.554c0-1.328 1.266-2.434 2.923-2.65-.86 1.024-1.36 2.242-1.36 3.547v12.31c0 .496.524.897 1.171.897h9.375c.647 0 1.172-.401 1.172-.896v-7.638a12.94 12.94 0 001.602.099c1.687 0 3.322-.325 4.783-.944l4.474 3.472v5.01c0 .496.525.897 1.172.897h4.688c.647 0 1.172-.401 1.172-.896v-7.172a.754.754 0 00-.192-.491l-2.493-2.908.12-.062 3.734 2.857c.229.175.529.262.828.262.3 0 .6-.087.83-.262l3.314-2.536c.458-.35.458-.917 0-1.267zm-19.423-5.513v1.285c0 1.268-1.349 2.3-3.007 2.3-1.659 0-3.008-1.031-3.008-2.3v-1.285h6.015zm-6.953 16.195h-2.344v-6.645l1.446-.967c.292.126.592.24.898.342v7.27zm17.89 0h-2.343v-4.482c0-.235-.121-.462-.337-.63l-5.469-4.242c-.4-.31-1.034-.356-1.502-.108-2.568 1.361-6.019 1.361-8.587 0-.442-.234-1.035-.208-1.44.063l-2.5 1.673c-.253.17-.4.416-.4.674v7.052H6.25V16.793c0-2.475 2.471-4.516 5.625-4.757v1.26c0 2.258 2.4 4.094 5.352 4.094 2.95 0 5.351-1.836 5.351-4.093v-1.421c.908-.266 1.599-.893 1.742-1.662l.604-3.257C25.28 5.035 27.462 3.586 30 3.586c.647 0 1.172-.402 1.172-.897 0-.494.526-.896 1.172-.896h.39v2.091c0 .216.102.425.287.588L36.4 7.454c.256.226.397.515.397.814 0 .39-.232.749-.636.986a2.015 2.015 0 01-1.41.215l-2.279-.467c-1.064-.218-2.176-.05-3.05.464-.874.513-1.375 1.29-1.375 2.133v6.688c0 .175.067.345.192.491l2.933 3.422v6.007zm4.343-8.78l-3.591-2.747a1.375 1.375 0 00-.83-.263c-.227 0-.457.05-.657.155l-.045.023v-2.188h1.875l4.905 3.752-1.657 1.267z"/></svg><svg viewBox="0 0 40 30" id="house-icon" xmlns="http://www.w3.org/2000/svg"><path d="M37.721 14.122L40.001 12 27.111 0H12.888L0 12l2.279 2.122 2.416-2.25V27H.668v3h38.664v-3h-4.027V11.872l2.416 2.25zM18.39 27h-4.027v-6.75h4.027V27zm7.25 0H21.61v-6.75h4.028V27zm6.444 0H28.86v-9.75H11.139V27H7.917V8.872L14.224 3h11.553l6.306 5.872V27z"/><path d="M15.167 10.5h9.666v3h-9.666v-3z"/></svg><svg viewBox="0 0 20 20" id="internet-icon" xmlns="http://www.w3.org/2000/svg"><path d="M10 0C4.494 0 0 4.494 0 10s4.494 10 10 10 10-4.494 10-10S15.506 0 10 0zM7.017 1.691c-.686.872-1.185 1.95-1.53 2.997H2.954A8.868 8.868 0 017.017 1.69zM2.205 5.855h2.95a17.741 17.741 0 00-.458 3.56H1.192a8.781 8.781 0 011.013-3.56zm0 8.286a8.763 8.763 0 01-1.013-3.555h3.505c.037 1.242.194 2.444.459 3.555h-2.95zm.749 1.171h2.533c.345 1.046.844 2.125 1.53 2.997a8.868 8.868 0 01-4.063-2.997zm6.46 3.417c-1.308-.44-2.21-2.12-2.687-3.416h2.687v3.416zm0-4.588H6.363a16.285 16.285 0 01-.494-3.555h3.545v3.555zm0-4.727H5.87c.04-1.254.209-2.46.494-3.555h3.051v3.555zm0-4.726H6.727C7.204 3.39 8.106 1.71 9.414 1.27v3.417zm8.38 1.171a8.762 8.762 0 011.014 3.555h-3.505a17.702 17.702 0 00-.459-3.555h2.95zm-.748-1.171h-2.533c-.345-1.046-.844-2.125-1.53-2.997a8.869 8.869 0 014.063 2.997zm-6.46-3.417c1.308.44 2.21 2.12 2.687 3.417h-2.687V1.27zm0 4.588h3.051c.285 1.095.454 2.3.494 3.555h-3.545V5.86zm0 4.723h3.545a16.324 16.324 0 01-.494 3.559h-3.051v-3.559zm0 8.147v-3.42h2.687c-.477 1.296-1.379 2.98-2.687 3.42zm2.397-.42c.686-.872 1.185-1.955 1.53-3h2.533a8.876 8.876 0 01-4.063 3zm4.812-4.168h-2.95c.264-1.111.42-2.317.458-3.559h3.505a8.78 8.78 0 01-1.013 3.559z"/></svg><svg viewBox="0 0 20 20" id="map-icon" xmlns="http://www.w3.org/2000/svg"><path d="M9.01 16.087l-.048-.049a.39.39 0 00-.552.553l.048.049a.39.39 0 10.553-.553zM14.213 14.766l-4.521-4.52a.39.39 0 00-.552 0L7.504 11.88a.39.39 0 000 .553l4.521 4.52a.39.39 0 00.553 0l1.635-1.635a.39.39 0 000-.552zM12.3 16.125l-3.968-3.968 1.083-1.083 3.968 3.968-1.083 1.083zM9.117 8.53a.39.39 0 00-.552 0l-.138.139a.39.39 0 00.552.552l.138-.138a.39.39 0 000-.553zM10.36 7.61l-.138-.138a.39.39 0 00-.552.552l.138.138a.39.39 0 00.552 0 .39.39 0 000-.552zM6.631 11.015a.39.39 0 00-.552 0l-.138.138a.39.39 0 00.552.552l.138-.138a.39.39 0 000-.552zM11.603 8.852l-.138-.138a.39.39 0 00-.553.552l.139.139a.39.39 0 00.552 0 .39.39 0 000-.553zM5.388 11.872l-.138-.139a.39.39 0 00-.552.553l.138.138a.39.39 0 10.552-.552zM7.874 9.773a.39.39 0 00-.552 0l-.138.138a.39.39 0 00.552.552l.138-.138a.39.39 0 000-.552zM4.145 10.629l-.138-.138a.39.39 0 00-.468-.064 1.33 1.33 0 00-1.025-2.171 1.33 1.33 0 00-1.328 1.328 1.33 1.33 0 002.2 1 .39.39 0 00.069.46l.138.137a.39.39 0 10.552-.552zm-1.631-.498a.547.547 0 11.001-1.095.547.547 0 01-.001 1.095zM14.132 10.43a.39.39 0 00-.39.391v.17l-.5-.5a.39.39 0 00-.552.553l.553.553h-.277a.39.39 0 000 .78h1.166a.39.39 0 00.39-.39v-1.166a.39.39 0 00-.39-.39zM17.813 2.203a.39.39 0 00-.39.39v2.869a.39.39 0 00.78 0V2.594a.39.39 0 00-.39-.39zM18.089 6.695a.393.393 0 00-.552 0 .393.393 0 000 .552.393.393 0 00.552 0 .393.393 0 000-.552z"/><path d="M17.554 0c-1.15 0-2.085.935-2.085 2.085v.334H.39A.39.39 0 000 2.81v16.8c0 .215.175.39.39.39h16.725A2.888 2.888 0 0020 17.115V2.446A2.45 2.45 0 0017.554 0zM16.25 2.085c0-.719.585-1.304 1.304-1.304.918 0 1.665.747 1.665 1.665v12.88a2.437 2.437 0 00-1.665-.657c-.493 0-.947.172-1.304.46V2.084zM6.177 3.236a.39.39 0 00.03-.035h9.262v5.738l-4.802-4.801a.39.39 0 00-.552 0L7.65 6.603l-2.42-2.42.947-.947zM17.115 19.22h-3.59l.843-.844a.39.39 0 10-.552-.552l-1.397 1.396h-.278l-.015-.017-2.07-2.07a.39.39 0 00-.553.552l1.535 1.535H1.273l4.882-4.883 1.22 1.22a.39.39 0 00.552-.553l-1.495-1.495a.39.39 0 00-.553 0L.781 18.605v-4.039a.393.393 0 00.055-.045l2.233-2.233a.39.39 0 10-.552-.553L.78 13.471V8.622a.39.39 0 00.055-.045l2.258-2.258 2.42 2.42-.79.79a.39.39 0 10.552.552l1.067-1.066a.39.39 0 000-.553L3.37 5.49a.39.39 0 00-.552 0L.78 7.527V3.2h4.326l-.706.706a.39.39 0 000 .552l2.973 2.972a.39.39 0 00.552 0l2.465-2.464 5.078 5.077v6.71c0 .985.801 1.786 1.787 1.786.85 0 1.541-.691 1.541-1.541a.39.39 0 00-.781 0c0 .42-.341.76-.76.76a1.007 1.007 0 01-1.006-1.006c0-.718.585-1.303 1.304-1.303.918 0 1.665.747 1.665 1.665 0 1.16-.944 2.104-2.104 2.104z"/></svg><svg viewBox="0 0 20 25" id="map-marker-icon" xmlns="http://www.w3.org/2000/svg"><path d="M10 4.498c-2.774 0-5.031 2.044-5.031 4.555 0 2.512 2.257 4.556 5.031 4.556 2.774 0 5.031-2.044 5.031-4.556 0-2.511-2.257-4.555-5.031-4.555zm0 7.48c-1.781 0-3.23-1.312-3.23-2.925C6.77 7.441 8.219 6.13 10 6.13s3.23 1.312 3.23 2.924c0 1.613-1.449 2.925-3.23 2.925z"/><path d="M10 0C4.486 0 0 4.062 0 9.054 0 15.25 8.949 24.345 9.33 24.73c.358.36.983.36 1.34 0 .381-.385 9.33-9.48 9.33-15.676C20 4.062 15.514 0 10 0zm0 22.936c-3.012-3.24-8.2-9.63-8.2-13.882C1.8 4.961 5.48 1.63 10 1.63c4.521 0 8.2 3.33 8.2 7.424 0 4.252-5.187 10.642-8.2 13.882z"/></svg><svg viewBox="0 0 20 3" id="minus-focus-icon" xmlns="http://www.w3.org/2000/svg"><path d="M1.2 3h17.6c.663 0 1.2-.671 1.2-1.5S19.463 0 18.8 0H1.2C.537 0 0 .672 0 1.5 0 2.33.537 3 1.2 3z"/></svg><svg viewBox="0 0 20 3" id="minus-hover-icon" xmlns="http://www.w3.org/2000/svg"><path d="M1.2 3h17.6c.663 0 1.2-.671 1.2-1.5S19.463 0 18.8 0H1.2C.537 0 0 .672 0 1.5 0 2.33.537 3 1.2 3z"/></svg><svg viewBox="0 0 20 3" id="minus-icon" xmlns="http://www.w3.org/2000/svg"><path opacity=".75" d="M1.2 3h17.6c.663 0 1.2-.671 1.2-1.5S19.463 0 18.8 0H1.2C.537 0 0 .672 0 1.5 0 2.33.537 3 1.2 3z"/></svg><svg viewBox="0 0 20 20" id="name-icon" xmlns="http://www.w3.org/2000/svg"><g opacity=".75"><path d="M19.167 20H.833A.83.83 0 010 19.167c0-2.722 1.061-5.273 2.984-7.183 1.24-1.233 2.992-1.94 4.8-1.94h4.432c1.813 0 3.56.707 4.8 1.94A10.055 10.055 0 0120 19.167a.83.83 0 01-.833.833zm-17.46-1.665h16.587a8.366 8.366 0 00-2.453-5.168c-.93-.922-2.253-1.453-3.625-1.453H7.784c-1.376 0-2.694.53-3.625 1.453a8.366 8.366 0 00-2.453 5.168zM10 9.445a4.728 4.728 0 01-4.722-4.723A4.728 4.728 0 0110 0a4.728 4.728 0 014.723 4.722A4.728 4.728 0 0110 9.445zm0-7.78a3.06 3.06 0 00-3.057 3.057A3.06 3.06 0 0010 7.78a3.06 3.06 0 003.057-3.058A3.06 3.06 0 0010 1.665z"/></g></svg><svg viewBox="0 0 20 20" id="phone-icon" xmlns="http://www.w3.org/2000/svg"><path d="M19.476 14.678l-2.797-2.791c-1-.997-2.697-.598-3.097.698-.3.897-1.299 1.395-2.198 1.196-1.997-.498-4.694-3.09-5.194-5.184-.3-.897.3-1.894 1.199-2.193 1.298-.398 1.698-2.093.699-3.09L5.291.524c-.799-.698-1.998-.698-2.697 0L.696 2.416c-1.898 1.994.2 7.277 4.895 11.962 4.695 4.685 9.989 6.878 11.987 4.884l1.898-1.894c.699-.797.699-1.993 0-2.691z"/></svg><svg viewBox="0 0 20 20" id="photo-icon" xmlns="http://www.w3.org/2000/svg"><path d="M17.444 0H2.556A2.559 2.559 0 000 2.556v14.888A2.559 2.559 0 002.556 20h14.888A2.559 2.559 0 0020 17.444V2.556A2.559 2.559 0 0017.444 0zm1.378 17.444a1.38 1.38 0 01-1.378 1.378H2.556a1.38 1.38 0 01-1.378-1.378v-2.148l3.877-3.3a.38.38 0 01.49-.002l2.43 2.017a.589.589 0 00.793-.037l5.77-5.78a.378.378 0 01.29-.111.378.378 0 01.276.14l3.718 4.578v4.643zm0-6.512L16.019 7.48a1.562 1.562 0 00-2.314-.118L8.314 12.76l-2.015-1.673a1.557 1.557 0 00-2.007.012l-3.114 2.649V2.556c0-.76.618-1.378 1.378-1.378h14.888c.76 0 1.378.618 1.378 1.378v8.376z"/><path d="M6.296 2.46a2.844 2.844 0 00-2.84 2.841 2.844 2.844 0 002.84 2.84 2.844 2.844 0 002.84-2.84 2.844 2.844 0 00-2.84-2.84zm0 4.504A1.664 1.664 0 014.633 5.3c0-.916.746-1.662 1.663-1.662.916 0 1.662.746 1.662 1.662 0 .917-.746 1.663-1.662 1.663z"/></svg><svg viewBox="0 0 80 80" id="play-icon" xmlns="http://www.w3.org/2000/svg"><path d="M40 0C17.909 0 0 17.909 0 40s17.909 40 40 40 40-17.909 40-40S62.091 0 40 0zm13.825 42.12l-20 12.5A2.5 2.5 0 0130 52.5v-25a2.5 2.5 0 013.825-2.12l20 12.5a2.503 2.503 0 010 4.24z"/></svg><svg viewBox="0 0 20 20" id="plus-focus-icon" xmlns="http://www.w3.org/2000/svg"><path d="M18.8 8.8l-7.777.024V1.2c0-.664-.535-1.199-1.2-1.199-.664 0-1.199.535-1.199 1.2l.024 7.6H1.199C.535 8.8 0 9.337 0 10c0 .664.535 1.199 1.2 1.199h7.436v7.602c0 .664.535 1.199 1.2 1.199.664 0 1.199-.535 1.199-1.2v-7.6H18.8a1.2 1.2 0 000-2.399z"/></svg><svg viewBox="0 0 20 20" id="plus-hover-icon" xmlns="http://www.w3.org/2000/svg"><path d="M18.8 8.8l-7.777.024V1.2c0-.664-.535-1.199-1.2-1.199-.664 0-1.199.535-1.199 1.2l.024 7.6H1.199C.535 8.8 0 9.337 0 10c0 .664.535 1.199 1.2 1.199h7.436v7.602c0 .664.535 1.199 1.2 1.199.664 0 1.199-.535 1.199-1.2v-7.6H18.8a1.2 1.2 0 000-2.399z"/></svg><svg viewBox="0 0 20 20" id="plus-icon" xmlns="http://www.w3.org/2000/svg"><path opacity=".75" d="M18.8 8.8l-7.777.024V1.2c0-.664-.535-1.199-1.2-1.199-.664 0-1.199.535-1.199 1.2l.024 7.6H1.199C.535 8.8 0 9.337 0 10c0 .664.535 1.199 1.2 1.199h7.436v7.602c0 .664.535 1.199 1.2 1.199.664 0 1.199-.535 1.199-1.2v-7.6H18.8a1.2 1.2 0 000-2.399z"/></svg><svg viewBox="0 0 25 25" id="present-icon" xmlns="http://www.w3.org/2000/svg"><path d="M10.853 9.835c.14 0 .273-.062.357-.167a.39.39 0 00.07-.365 7.16 7.16 0 00-1.62-2.746c-.603-.595-1.5-.85-2.36-.67a.431.431 0 00-.257.239.978.978 0 00-.054.19 1.475 1.475 0 00-.023.234v.007c.006.66.292 1.292.798 1.757a8.073 8.073 0 002.96 1.502.502.502 0 00.129.019zM8.397 7.727a1.706 1.706 0 01-.409-.577v-.004a1.715 1.715 0 01-.05-.137c-.008-.024-.014-.046-.02-.07-.007-.024-.013-.041-.017-.062l-.009-.044a1.47 1.47 0 01-.027-.187c.44.03.854.207 1.166.497.444.465.801.996 1.058 1.57a6.154 6.154 0 01-1.694-.986h.002z"/><path d="M24.554 5.953h-6.891c.297-.188.577-.4.836-.634 1.597-1.486 1.649-3.738.629-4.685-1.02-.946-3.448-.898-5.052.585A8.092 8.092 0 0012.5 3.462a8.082 8.082 0 00-1.578-2.244C9.322-.264 6.892-.312 5.872.634c-1.02.946-.968 3.199.63 4.685.258.233.538.446.836.634H.446C.2 5.953 0 6.14 0 6.368v4.14c0 .229.2.414.446.414h.893V22.93c.002 1.142 1 2.069 2.232 2.07H21.43c1.232-.001 2.23-.928 2.232-2.07V10.922h.893c.246 0 .446-.185.446-.414v-4.14c0-.23-.2-.415-.446-.415zm-9.846-4.15C15.991.618 17.863.632 18.497 1.22c.634.588.65 2.323-.63 3.513a7.546 7.546 0 01-1.98 1.22h-2.668v-.026c0-.095-.008-.19-.018-.287l-.011-.095a3.834 3.834 0 00-.053-.32 4.95 4.95 0 00-.072-.303l-.01-.042-.074-.248-.01-.035a7.778 7.778 0 011.737-2.793zm-.422 8.291h-3.572V6.782h3.572v3.312zm-7.153-5.36c-1.28-1.19-1.264-2.926-.63-3.514.635-.59 2.505-.603 3.788.583a7.826 7.826 0 011.785 2.918c.05.146.09.285.126.42l.028.115c.024.101.043.198.058.29l.015.094c.014.104.022.208.023.312H9.113a7.553 7.553 0 01-1.98-1.218zM.893 6.782H9.82v3.312H.893V6.782zm1.34 16.148V10.922h8.481v13.25H3.571c-.74 0-1.339-.556-1.339-1.242zm9.374 1.242v-13.25h1.786v13.25h-1.786zm11.16-1.242c0 .686-.599 1.242-1.338 1.242h-7.143v-13.25h8.482V22.93zm1.34-12.836H15.18V6.782h8.928v3.312z"/><path d="M14.146 9.836a.479.479 0 00.127-.017 8.043 8.043 0 002.962-1.505c.635-.564.909-1.393.723-2.19a.43.43 0 00-.256-.238c-.86-.172-1.753.082-2.36.671a7.14 7.14 0 00-1.624 2.747.39.39 0 00.07.366.459.459 0 00.358.166zm1.826-2.693c.313-.29.727-.466 1.167-.497a1.664 1.664 0 01-.535 1.083 6.121 6.121 0 01-1.697.987 5.552 5.552 0 011.066-1.573z"/></svg><svg viewBox="0 0 440 440" id="price-icon" xmlns="http://www.w3.org/2000/svg"><path d="M232.522 242.428c63.913 0 115.91-54.382 115.91-121.227C348.432 54.37 296.435 0 232.522 0H120.568v282.428h-29v30h29V440h30V312.428h101.955v-30H150.568v-40h81.954zM150.568 30h81.955c47.371 0 85.91 40.912 85.91 91.201 0 50.303-38.539 91.227-85.91 91.227h-81.955V30z"/></svg><svg viewBox="0 0 25 30" id="ruble-icon" xmlns="http://www.w3.org/2000/svg"><path d="M8.31 30H4.12c-.54 0-.978-.393-.978-.879v-2.887H.978c-.54 0-.978-.393-.978-.879V21.59c0-.486.438-.88.978-.88h2.164v-2.007H.978c-.54 0-.978-.393-.978-.879V14.06c0-.486.438-.88.978-.88h2.164V.88C3.142.394 3.58 0 4.12 0h10.475C20.332 0 25 4.195 25 9.352c0 5.164-4.649 9.351-10.405 9.351H9.288v2.008h6.354c.54 0 .978.394.978.879v3.765c0 .486-.438.88-.978.88H9.288v2.886c0 .486-.438.879-.978.879zm-3.212-1.758h2.234v-2.887c0-.485.438-.878.978-.878h6.354v-2.008H8.31c-.54 0-.978-.394-.978-.88v-3.765c0-.485.438-.879.978-.879h6.285c4.666 0 8.45-3.393 8.45-7.593 0-4.188-3.791-7.594-8.45-7.594H5.098v12.3c0 .486-.438.88-.978.88H1.956v2.007H4.12c.54 0 .978.394.978.88v3.765c0 .485-.438.879-.978.879H1.956v2.008H4.12c.54 0 .978.393.978.878v2.887z"/><path d="M13.595 14.938H7.31c-.54 0-.978-.394-.978-.88V4.646c0-.486.438-.88.978-.88h6.285c3.427 0 6.215 2.506 6.215 5.587 0 3.08-2.788 5.585-6.215 5.585zM8.288 13.18h5.307c2.348 0 4.26-1.718 4.26-3.828 0-2.111-1.912-3.829-4.26-3.829H8.288v7.657z"/></svg><svg viewBox="0 0 25 25" id="stable-icon" xmlns="http://www.w3.org/2000/svg"><path d="M12.82.143a.432.432 0 00-.64 0L.095 14.731a.417.417 0 00.32.683h.417v.833c0 .46.373.834.834.834H2.5v7.502c0 .23.187.417.417.417h19.166c.23 0 .417-.187.417-.417v-7.502h.833c.46 0 .834-.373.834-.834v-.833h.416a.417.417 0 00.321-.683L12.821.143zm-.32.92L23.697 14.58h-1L12.821 2.656a.43.43 0 00-.642 0L2.304 14.58h-1L12.5 1.062zM3.333 24.165v-7.085h.834v7.085h-.834zm4.2-12.087h4.55v2.501H5.468l2.065-2.5zm12 2.501h-6.616v-2.5h4.55l2.066 2.5zm-7.45 2.5v7.086H9.167v-7.085h2.916zm.834 0h2.916v7.086h-2.916v-7.085zm-4.167-.833H5v-.833h15v.833H8.75zm-2.083.834v7.085H5v-7.085h1.667zm13.333 0v7.085h-1.667v-7.085H20zm-4.598-7.502h-2.485v-3.01l2.485 3.01zm-3.319 0H9.598l2.485-3.01v3.01zm-3.173.833h7.18l.688.834H8.222l.688-.834zM7.5 24.166v-7.085h.833v7.085H7.5zm9.167 0v-7.085h.833v7.085h-.833zm5 0h-.834v-7.085h.834v7.085zm1.666-7.919h-2.5v-1.25a.328.328 0 00-.057-.2.443.443 0 00-.038-.066l-3.176-3.845-.953-1.156-.003-.002-3.785-4.583c-.004-.005-.01-.007-.015-.012a.605.605 0 00-.028-.028c-.01-.01-.007-.011-.013-.016a.353.353 0 00-.038-.02.233.233 0 00-.087-.047.819.819 0 00-.121-.025c-.007 0-.012-.003-.019-.003-.007 0-.013.003-.02.004a.357.357 0 00-.057.01.385.385 0 00-.063.014l-.037.014a.392.392 0 00-.05.032.343.343 0 00-.038.021c-.006.005-.008.011-.013.016a.748.748 0 00-.028.028c-.01.01-.01.007-.015.012L8.394 9.73l-.003.002-.953 1.156-3.176 3.845a.442.442 0 00-.037.066.327.327 0 00-.058.198v1.25h-2.5v-.833H2.5a.416.416 0 00.32-.151L12.5 3.577l9.68 11.686c.078.095.196.15.32.15h.833v.834z"/><path d="M11.251 21.248c.23 0 .417-.186.417-.416v-.417a.417.417 0 10-.833 0v.417c0 .23.186.416.416.416zM13.751 19.998a.417.417 0 00-.416.417v.417a.417.417 0 00.833 0v-.417a.417.417 0 00-.417-.417z"/></svg><svg viewBox="0 0 30 30" id="star-check-icon" xmlns="http://www.w3.org/2000/svg"><path d="M29.922 11.337a1.607 1.607 0 00-1.373-1.144l-8.659-.82-3.424-8.363C16.214.397 15.64 0 15 0s-1.214.397-1.466 1.011L10.11 9.372l-8.66.82c-.637.062-1.174.51-1.371 1.145a1.71 1.71 0 00.466 1.767l6.545 5.99-1.93 8.871a1.7 1.7 0 00.62 1.718c.279.21.605.317.934.317.283 0 .565-.08.817-.237l7.47-4.659 7.465 4.659a1.534 1.534 0 001.753-.08 1.702 1.702 0 00.62-1.718l-1.93-8.871 6.545-5.989c.482-.44.665-1.133.468-1.768z"/></svg><svg viewBox="0 0 30 30" id="star-icon" xmlns="http://www.w3.org/2000/svg"><path d="M29.922 11.337a1.607 1.607 0 00-1.373-1.144l-8.659-.82-3.424-8.363C16.214.397 15.64 0 15 0s-1.214.397-1.466 1.011L10.11 9.372l-8.66.82c-.637.062-1.174.51-1.371 1.145a1.71 1.71 0 00.466 1.767l6.545 5.99-1.93 8.871a1.7 1.7 0 00.62 1.718c.279.21.605.317.934.317.283 0 .565-.08.817-.237l7.47-4.659 7.465 4.659a1.534 1.534 0 001.753-.08 1.702 1.702 0 00.62-1.718l-1.93-8.871 6.545-5.989c.482-.44.665-1.133.468-1.768z"/></svg><svg viewBox="0 0 20 25" id="subscription-icon" xmlns="http://www.w3.org/2000/svg"><path d="M19.652 0H.346C.254 0 .166.04.101.109A.381.381 0 000 .369v24.262c0 .098.037.192.102.26.065.07.153.109.245.109h19.306c.092 0 .18-.039.245-.108A.382.382 0 0020 24.63V.369a.39.39 0 00-.102-.261.348.348 0 00-.246-.108zm-.347 24.262H.695V.738h18.61v23.524z"/><path d="M4.295 6.37h11.408c.092 0 .18-.04.245-.109a.381.381 0 00.102-.26V4.1a.382.382 0 00-.102-.26.337.337 0 00-.245-.109H4.295a.337.337 0 00-.245.109.382.382 0 00-.102.26v1.9c0 .097.037.191.102.26.065.07.153.109.245.109zm.347-1.9h10.714v1.161H4.642v-1.16zM4.295 10.093h11.408c.092 0 .18-.038.245-.108a.381.381 0 00.102-.26.381.381 0 00-.102-.262.337.337 0 00-.245-.108H4.295a.337.337 0 00-.245.108.381.381 0 00-.102.261c0 .098.037.192.102.261.065.07.153.108.245.108zM4.295 11.992h11.408c.092 0 .18-.039.245-.108a.382.382 0 00.102-.26.382.382 0 00-.102-.262.337.337 0 00-.245-.108H4.295a.337.337 0 00-.245.108.382.382 0 00-.102.261c0 .098.037.192.102.261.065.07.153.108.245.108zM4.295 13.891h11.408c.092 0 .18-.039.245-.108a.382.382 0 00.102-.261.381.381 0 00-.102-.261.337.337 0 00-.245-.108H4.295a.337.337 0 00-.245.108.381.381 0 00-.102.261c0 .098.037.192.102.261.065.07.153.108.245.108zM4.295 15.79h11.408c.092 0 .18-.04.245-.108a.381.381 0 00.102-.261.382.382 0 00-.102-.262.337.337 0 00-.245-.108H4.295a.337.337 0 00-.245.108.381.381 0 00-.102.261c0 .098.037.192.102.261.065.07.153.109.245.109zM4.295 17.689h11.408c.092 0 .18-.04.245-.108a.382.382 0 00.102-.262.382.382 0 00-.102-.26.337.337 0 00-.245-.109H4.295a.337.337 0 00-.245.108.382.382 0 00-.102.261c0 .098.037.192.102.262.065.069.153.108.245.108zM4.295 19.587h11.408c.092 0 .18-.038.245-.108a.382.382 0 00.102-.26.381.381 0 00-.102-.262.337.337 0 00-.245-.108H4.295a.337.337 0 00-.245.108.381.381 0 00-.102.261c0 .098.037.192.102.261.065.07.153.108.245.108zM13.567 20.748H6.431a.337.337 0 00-.246.108.381.381 0 00-.101.26c0 .099.036.193.101.262.066.07.154.108.246.108h7.136c.092 0 .18-.039.246-.108a.381.381 0 00.101-.261.381.381 0 00-.101-.261.337.337 0 00-.246-.108z"/></svg><svg viewBox="0 0 20 20" id="textarea-icon" xmlns="http://www.w3.org/2000/svg"><path opacity=".75" d="M19.414 0H.586A.586.586 0 000 .586v15.062c0 .324.262.586.586.586h3.18v3.18a.586.586 0 001 .414l3.594-3.594h11.054a.586.586 0 00.586-.586V.586A.586.586 0 0019.414 0zm-1.67 1.172L10 7.367 2.256 1.172h15.488zm1.084 13.89H8.118a.586.586 0 00-.415.172L4.937 18v-2.352a.586.586 0 00-.585-.585h-3.18V1.805l8.462 6.77a.585.585 0 00.732 0l8.462-6.77v13.258z"/></svg><svg viewBox="0 0 20 20" id="time-form-icon" xmlns="http://www.w3.org/2000/svg"><g opacity=".75"><path d="M10 0C4.477 0 0 4.478 0 10c0 5.523 4.477 10 10 10s10-4.478 10-10S15.524 0 10 0zm0 18.075c-4.453 0-8.074-3.622-8.074-8.075 0-4.452 3.621-8.074 8.074-8.074 4.453 0 8.074 3.622 8.074 8.074 0 4.453-3.621 8.075-8.074 8.075z"/><path d="M14.218 9.358h-2.851a1.509 1.509 0 00-.725-.724V3.94a.641.641 0 10-1.284 0v4.694A1.51 1.51 0 008.486 10a1.511 1.511 0 002.88.642h2.852a.642.642 0 100-1.284z"/></g></svg><svg viewBox="0 0 25 25" id="time-icon" xmlns="http://www.w3.org/2000/svg"><path d="M0 12.5C0 19.393 5.608 25 12.5 25S25 19.393 25 12.5C25 5.608 19.392 0 12.5 0S0 5.608 0 12.5zm23.81 0c0 6.236-5.074 11.31-11.31 11.31-6.236 0-11.31-5.074-11.31-11.31 0-6.236 5.074-11.31 11.31-11.31 6.236 0 11.31 5.074 11.31 11.31z"/><path d="M11.912 2.957c0 .156.064.309.175.42.111.111.264.175.42.175a.598.598 0 00.597-.595.597.597 0 00-1.017-.421.6.6 0 00-.175.42zM12.492 21.448a.598.598 0 00-.595.595.595.595 0 10.595-.595zM22.043 13.103a.598.598 0 00.42-1.016.598.598 0 00-.84 0 .6.6 0 00-.175.42.6.6 0 00.595.595zM2.957 11.897a.598.598 0 00-.596.595.597.597 0 00.596.595.6.6 0 00.595-.595.599.599 0 00-.595-.595zM7.735 3.635a.6.6 0 00-.42.175.6.6 0 00-.175.42.6.6 0 00.174.421.6.6 0 00.421.175.6.6 0 00.42-.175.6.6 0 00.175-.42.6.6 0 00-.174-.421.6.6 0 00-.42-.175zM17.265 20.174a.6.6 0 00-.595.595.6.6 0 00.174.42.6.6 0 00.42.175.6.6 0 00.422-.174.6.6 0 00.174-.42.6.6 0 00-.595-.596zM20.77 8.33a.599.599 0 00.594-.595.599.599 0 00-.595-.595.599.599 0 00-.595.595.599.599 0 00.595.595zM4.23 16.67a.6.6 0 00-.594.595.6.6 0 00.595.595.6.6 0 00.595-.595.6.6 0 00-.595-.596zM4.239 7.126a.599.599 0 00-.595.595.6.6 0 00.595.595.597.597 0 00.42-1.016.598.598 0 00-.42-.174zM20.761 17.874a.6.6 0 00.596-.596.6.6 0 00-.595-.595.599.599 0 00-.596.595.598.598 0 00.595.596zM17.278 4.834a.6.6 0 00.421-.174.6.6 0 000-.842.6.6 0 00-.42-.174.6.6 0 00-.596.595.598.598 0 00.595.595zM7.721 20.166a.596.596 0 10.001 1.192.596.596 0 000-1.192zM17.4 6.766l-3.82 3.82a2.184 2.184 0 00-2.155-.003L9.6 8.757a.596.596 0 00-.842.842l1.826 1.826A2.201 2.201 0 0012.5 14.7a2.201 2.201 0 001.92-3.269l3.822-3.823a.596.596 0 00-.842-.841zm-4.9 6.742a1.01 1.01 0 010-2.016 1.009 1.009 0 010 2.016zM15.094 17.5H9.92a.595.595 0 000 1.19h5.173a.595.595 0 100-1.19z"/></svg><svg viewBox="0 0 40 35" id="trainer-icon" xmlns="http://www.w3.org/2000/svg"><path d="M36.644 25.366c-3.624-4.148-8.14-5.11-10.524-5.741v-1.468c1.606-1.333 2.603-3.183 2.603-5.225V5.13C28.723 2.301 25.979 0 22.606 0h-5.294c-3.372 0-6.116 2.3-6.116 5.13v7.802c0 2.01.965 3.833 2.527 5.162v1.572c-2.224.59-6.745 1.553-10.367 5.7C1.161 27.881 0 30.857 0 33.975 0 34.54.547 35 1.223 35h37.554c.675 0 1.223-.46 1.223-1.025 0-3.118-1.16-6.094-3.356-8.609zm-12.97-5.29l-3.52 4.622a3.304 3.304 0 00-.415.001l-3.57-4.586v-.55c2.363.956 5.13.967 7.506.03v.484zm-9.19-9.673l-.843-2.265v-.373h12.636v.362l-.88 2.276c-5.888-.727-4.94-.738-10.913 0zm-.843-5.274c0-1.697 1.647-3.078 3.671-3.078h5.294c2.024 0 3.671 1.38 3.671 3.078v.585H13.641v-.585zm0 7.247c.255.075.51.108.684.108.128 0-.154.03 3.882-.468 2.137-.264 3.3-.02 7.17.457.283.035.634-.025.9-.109v.568c0 2.925-2.834 5.305-6.318 5.305-3.469 0-6.318-2.368-6.318-5.305v-.556zm.788 9.254l3.139 4.032c-1.764 1.858.2 4.588 3.003 4.108v.965c0 .567.547 1.026 1.223 1.026.675 0 1.222-.46 1.222-1.026v-3.478c0-.61-.255-1.171-.681-1.612l3.088-4.054c1.792.474 2.74.685 4.142 1.298v10.06h-19.13V22.89c1.4-.612 2.373-.83 3.994-1.259zm-6.44 2.599v8.72H2.495c.334-3.48 2.358-6.606 5.494-8.72zm24.022 8.72v-8.72c3.136 2.114 5.16 5.24 5.494 8.72h-5.494z"/></svg><svg viewBox="0 0 40 35" id="tree-icon" xmlns="http://www.w3.org/2000/svg"><path d="M35.094 11.77c.009-.127.013-.255.013-.383 0-3.576-3.484-6.486-7.768-6.486-.334 0-.667.018-.996.054-.711-1.29-1.795-2.408-3.183-3.27C21.388.581 19.28 0 17.065 0 11.432 0 6.85 3.825 6.85 8.527c0 .21.009.419.027.627-1.673.304-3.205 1.012-4.42 2.06C.874 12.582 0 14.384 0 16.288c0 2.886 2.02 5.465 5.111 6.642.24 1.257.955 2.415 2.064 3.32 1.343 1.095 3.117 1.698 4.995 1.698 1.24 0 2.441-.266 3.502-.765v2.409L11.929 35H28.07l-3.743-5.408v-2.409a8.254 8.254 0 003.502.765c1.81 0 3.536-.566 4.862-1.593 1.054-.817 1.78-1.867 2.1-3.018C37.825 22.58 40 20.215 40 17.513c0-2.618-2.03-4.91-4.906-5.742zM16.808 32.65l1.68-2.428v-8.848c0-.696.678-1.262 1.512-1.262s1.512.566 1.512 1.263v8.847l1.68 2.427h-6.384zM33.353 21.2l-1.114.134-.09.937c-.178 1.865-2.075 3.326-4.319 3.326-1.439 0-2.713-.575-3.502-1.477v-2.745c0-1.993-1.941-3.613-4.328-3.613-2.386 0-4.328 1.62-4.328 3.613v2.745c-.788.902-2.063 1.477-3.502 1.477-1.138 0-2.213-.365-3.027-1.03-.812-.662-1.276-1.548-1.304-2.495l-.025-.825-.939-.26c-2.428-.675-4.059-2.563-4.059-4.7 0-2.676 2.51-4.849 5.713-4.945l1.7-.052-.378-1.384a5.24 5.24 0 01-.185-1.379c0-3.405 3.319-6.176 7.399-6.176 3.244 0 6.08 1.734 7.056 4.314l.421 1.114 1.336-.344a5.87 5.87 0 011.461-.183c2.73 0 4.953 1.855 4.953 4.135 0 .332-.049.666-.145.99l-.373 1.269 1.55.177c2.2.25 3.86 1.838 3.86 3.69 0 1.84-1.647 3.426-3.831 3.688z"/></svg></svg>