<svg width="25" height="10" viewBox="0 0 25 10" fill="none" xmlns="http://www.w3.org/2000/svg">
<path d="M1.232 9.244H3.556V1.46L1.12 2.468L0.84 1.796L3.85 0.228H5.208V9.244H7.448V10H1.232V9.244ZM9.09453 8.824L12.1045 5.814C12.5525 5.366 12.9072 4.918 13.1685 4.47C13.4299 4.01267 13.5605 3.50867 13.5605 2.958V2.608C13.5605 2.048 13.4019 1.60933 13.0845 1.292C12.7672 0.974666 12.3332 0.816 11.7825 0.816C11.5305 0.816 11.3065 0.839333 11.1105 0.886C10.9145 0.932666 10.7512 0.988666 10.6205 1.054V1.11C10.7512 1.18467 10.8679 1.292 10.9705 1.432C11.0825 1.572 11.1385 1.74 11.1385 1.936C11.1385 2.20667 11.0545 2.44 10.8865 2.636C10.7185 2.82267 10.4805 2.916 10.1725 2.916C9.87386 2.916 9.63586 2.82267 9.45853 2.636C9.29053 2.44 9.20653 2.18333 9.20653 1.866C9.20653 1.62333 9.27653 1.39467 9.41653 1.18C9.55653 0.955999 9.75253 0.764666 10.0045 0.606C10.2565 0.438 10.5552 0.307333 10.9005 0.213999C11.2552 0.111333 11.6472 0.0599995 12.0765 0.0599995C13.1032 0.0599995 13.9012 0.297999 14.4705 0.773999C15.0492 1.24067 15.3385 1.89867 15.3385 2.748C15.3385 3.15867 15.2732 3.532 15.1425 3.868C15.0119 4.19467 14.8345 4.50733 14.6105 4.806C14.3959 5.09533 14.1439 5.37067 13.8545 5.632C13.5652 5.89333 13.2619 6.15467 12.9445 6.416L10.3685 8.558V8.614H14.8625V7.298H15.7025V10H9.09453V8.824ZM20.4851 6.206H17.7131V5.254H20.4851V2.524H21.4931V5.254H24.2651V6.206H21.4931V8.936H20.4851V6.206Z" fill="#338216"/>
</svg>
