<svg width="16" height="11" viewBox="0 0 16 11" fill="none" xmlns="http://www.w3.org/2000/svg">
<path d="M4.2 9.342C4.55467 9.342 4.84867 9.272 5.082 9.132C5.31533 8.98267 5.49733 8.77267 5.628 8.502C5.768 8.222 5.866 7.886 5.922 7.494C5.978 7.09267 6.006 6.64 6.006 6.136V4.092C6.006 3.588 5.978 3.14 5.922 2.748C5.866 2.34667 5.768 2.01067 5.628 1.74C5.49733 1.46 5.31533 1.25 5.082 1.11C4.84867 0.960666 4.55467 0.886 4.2 0.886C3.84533 0.886 3.55133 0.960666 3.318 1.11C3.08467 1.25 2.898 1.46 2.758 1.74C2.62733 2.01067 2.534 2.34667 2.478 2.748C2.422 3.14 2.394 3.588 2.394 4.092V6.136C2.394 6.64 2.422 7.09267 2.478 7.494C2.534 7.886 2.62733 8.222 2.758 8.502C2.898 8.77267 3.08467 8.98267 3.318 9.132C3.55133 9.272 3.84533 9.342 4.2 9.342ZM4.2 10.168C3.024 10.168 2.13267 9.73867 1.526 8.88C0.919333 8.012 0.616 6.75667 0.616 5.114C0.616 3.47133 0.919333 2.22067 1.526 1.362C2.13267 0.493999 3.024 0.0599995 4.2 0.0599995C5.376 0.0599995 6.26733 0.493999 6.874 1.362C7.48067 2.22067 7.784 3.47133 7.784 5.114C7.784 6.75667 7.48067 8.012 6.874 8.88C6.26733 9.73867 5.376 10.168 4.2 10.168ZM12.0905 6.206H9.31853V5.254H12.0905V2.524H13.0985V5.254H15.8705V6.206H13.0985V8.936H12.0905V6.206Z" fill="#338216"/>
</svg>
