<svg width="40" height="30" viewBox="0 0 40 30" fill="none" xmlns="http://www.w3.org/2000/svg">
<path d="M0.639362 13.5989L15.0848 0.575795C15.4971 0.20405 16.0467 0 16.6327 0C17.2194 0 17.7686 0.204343 18.181 0.575795L19.4925 1.75846C19.9046 2.12962 20.1316 2.62538 20.1316 3.15398C20.1316 3.68228 19.9046 4.19475 19.4925 4.56591L11.0653 12.18H37.839C39.0462 12.18 40 13.0319 40 14.1205V15.7925C40 16.881 39.0462 17.8189 37.839 17.8189H10.9697L19.4922 25.4754C19.9042 25.8472 20.1312 26.3295 20.1312 26.858C20.1312 27.3861 19.9042 27.8754 19.4922 28.2468L18.1807 29.4257C17.7683 29.7974 17.2191 30 16.6324 30C16.0464 30 15.4968 29.7948 15.0844 29.423L0.639038 16.4002C0.225708 16.0273 -0.00160599 15.5295 2.28882e-05 15.0003C-0.00127792 14.4694 0.225708 13.9713 0.639362 13.5989Z" fill="#F5B437"/>
</svg>
