<svg width="20" height="25" viewBox="0 0 20 25" fill="none" xmlns="http://www.w3.org/2000/svg">
<path d="M14.588 8.87432L16.2854 7.72378L16.3133 7.70415C18.0343 6.4437 18.1314 4.43804 16.6062 3.09277V0H14.6062V2.0606C13.0732 1.65337 11.3059 1.84995 10 2.65161C8.69407 1.8499 6.9268 1.65332 5.3938 2.0606V0H3.3938V3.09272C1.86867 4.43799 1.96573 6.44365 3.68667 7.7041L5.41227 8.87422C2.20007 10.0942 0 12.5527 0 15.3809V22.6562C0.0269333 23.9519 1.47473 25 3.25 25C4.12273 25 4.91553 24.7463 5.5 24.3349C6.08447 24.7463 6.87727 25 7.75 25C8.62273 25 9.41553 24.7463 10 24.3349C10.5845 24.7463 11.3773 25 12.25 25C13.1227 25 13.9155 24.7463 14.5 24.3349C15.0845 24.7463 15.8773 25 16.75 25C18.5253 25 19.9731 23.9519 20 22.6562V15.3809C20 12.5528 17.8001 10.0943 14.588 8.87432ZM5.0884 6.65908C4.05607 5.89297 4.0602 4.65454 5.10093 3.89229C6.14587 3.1269 7.84613 3.1269 8.8912 3.89229L10 4.70444L11.1089 3.89229C12.1538 3.1269 13.8542 3.12695 14.8991 3.89229C15.9398 4.65454 15.944 5.89297 14.9117 6.65908L12.5062 8.28965C11.7049 8.1376 10.8652 8.05664 10 8.05664C9.13487 8.05664 8.295 8.1376 7.49387 8.2896L5.0884 6.65908ZM16.75 23.5352C16.0607 23.5352 15.5 23.1245 15.5 22.6196H13.5C13.5 23.1245 12.9393 23.5352 12.25 23.5352C11.5607 23.5352 11 23.1245 11 22.6196H9C9 23.1245 8.43927 23.5352 7.75 23.5352C7.06073 23.5352 6.5 23.1245 6.5 22.6196H4.5C4.5 23.1245 3.93927 23.5352 3.25 23.5352C2.56073 23.5352 2 23.1245 2 22.6196V15.3809C2 12.8589 4.18667 10.7041 7.24433 9.87978C6.59653 10.9833 6.2234 12.4463 6.07733 13.8607L6.07513 13.882L6.0002 17.0772L7.99987 17.1024L8.0738 13.9502C8.21547 12.6002 8.55833 11.3865 9.04 10.531C9.50953 9.69697 9.9356 9.52148 10 9.52148C10.0644 9.52148 10.4905 9.69697 10.96 10.531C11.4417 11.3865 11.7845 12.6001 11.9261 13.9501L12.0001 17.1024L13.9998 17.0772L13.9253 13.9034L13.9226 13.8608C13.7766 12.4464 13.4035 10.9833 12.7556 9.87978C15.8133 10.7041 18 12.8589 18 15.3809V22.6196C18 23.1245 17.4393 23.5352 16.75 23.5352Z" fill="#338216"/>
</svg>
