<svg width="20" height="20" viewBox="0 0 20 20" fill="none" xmlns="http://www.w3.org/2000/svg">
<path opacity="0.75" d="M14.645 18.9656C12.8699 19.7416 11.3314 20 9.23072 20C4.31968 20 0 16.5803 0 10.9484C0 5.08625 4.37856 0 11.0653 0C16.2723 0 20 3.47719 20 8.30469C20 12.5 17.5741 15.1437 14.3789 15.1437C12.9883 15.1437 11.9826 14.4541 11.8346 12.9309H11.7754C10.8584 14.3966 9.52704 15.1437 7.95888 15.1437C6.03584 15.1437 4.64528 13.7644 4.64528 11.4078C4.64528 7.90219 7.308 4.7125 11.5682 4.7125C12.8699 4.7125 14.349 5.02875 15.089 5.43094L14.2016 10.7472C13.9059 12.4422 14.1128 13.2184 14.9413 13.2469C16.2134 13.2756 17.8109 11.695 17.8109 8.39062C17.8109 4.655 15.3258 1.7525 10.7397 1.7525C6.21344 1.7525 2.24864 5.20094 2.24864 10.6894C2.24864 15.4881 5.41424 18.2181 9.82272 18.2181C11.3317 18.2181 12.9294 17.9022 14.1125 17.2984L14.645 18.9656ZM12.0118 7.09781C11.775 7.04031 11.479 6.98281 11.0946 6.98281C9.14224 6.98281 7.60336 8.85063 7.60336 11.0631C7.60336 12.155 8.10656 12.8447 9.08272 12.8447C10.1773 12.8447 11.3314 11.4941 11.5974 9.8275L12.0118 7.09781Z" fill="#144602"/>
</svg>
