<svg width="25" height="25" viewBox="0 0 25 25" fill="none" xmlns="http://www.w3.org/2000/svg">
<path d="M22.4433 16.799C22.366 16.5229 22.094 16.3661 21.8356 16.4486C21.5773 16.5312 21.4305 16.8219 21.5077 17.098C21.8387 18.2806 21.5375 19.5568 20.7215 20.4287C19.4998 21.7342 17.5118 21.7342 16.29 20.4287C15.0682 19.1231 15.0682 16.9988 16.29 15.6933C17.1434 14.7814 18.3831 14.4751 19.5254 14.8938C19.7805 14.9873 20.0582 14.8422 20.1457 14.5696C20.2332 14.297 20.0974 14.0002 19.8423 13.9067C18.3444 13.3577 16.7187 13.7595 15.5995 14.9554C13.9969 16.6678 13.9969 19.4541 15.5995 21.1666C16.4008 22.0228 17.4533 22.4509 18.5058 22.4509C19.5584 22.4509 20.6109 22.0228 21.4121 21.1666C22.4822 20.0231 22.8774 18.3496 22.4433 16.799Z" fill="#338216"/>
<path d="M21.4106 14.9527L21.4041 14.9458C21.2134 14.742 20.9043 14.742 20.7135 14.9458C20.5229 15.1495 20.5229 15.4799 20.7135 15.6837L20.7232 15.6939C20.8184 15.7947 20.9426 15.845 21.0669 15.845C21.1925 15.845 21.3182 15.7935 21.4137 15.6906C21.6035 15.486 21.6021 15.1556 21.4106 14.9527Z" fill="#338216"/>
<path d="M14.6043 22.2297L14.6 22.2251C14.4093 22.0213 14.1002 22.0213 13.9094 22.2251C13.7188 22.4288 13.7188 22.7592 13.9094 22.963L13.9138 22.9676C14.0092 23.0695 14.1341 23.1204 14.2591 23.1204C14.384 23.1204 14.509 23.0695 14.6043 22.9676C14.795 22.7638 14.795 22.4335 14.6043 22.2297Z" fill="#338216"/>
<path d="M18.5058 15.7686C17.3265 15.7686 16.3671 16.7938 16.3671 18.054C16.3671 19.3142 17.3265 20.3394 18.5058 20.3394C19.6852 20.3394 20.6446 19.3141 20.6446 18.054C20.6446 16.7938 19.6851 15.7686 18.5058 15.7686ZM18.5058 19.2958C17.865 19.2958 17.3436 18.7387 17.3436 18.0539C17.3436 17.3691 17.865 16.812 18.5058 16.812C19.1467 16.812 19.668 17.3691 19.668 18.0539C19.668 18.7387 19.1467 19.2958 18.5058 19.2958Z" fill="#338216"/>
<path d="M12.5 2.54688C10.2336 2.54688 8.38983 4.51711 8.38983 6.93888C8.38983 8.55598 9.21785 10.0379 10.5509 10.8065C10.7882 10.9433 11.0844 10.8487 11.2124 10.595C11.3405 10.3414 11.2519 10.0249 11.0145 9.88804C9.99793 9.30195 9.36639 8.17186 9.36639 6.93888C9.36639 5.09251 10.7721 3.5904 12.5 3.5904C14.2279 3.5904 15.6336 5.09251 15.6336 6.93888C15.6336 8.22842 14.9596 9.38178 13.8748 9.94883C13.6326 10.0755 13.5322 10.3879 13.6508 10.6468C13.7355 10.8319 13.9091 10.9394 14.0897 10.9394C14.1617 10.9394 14.2349 10.9223 14.3039 10.8862C15.7264 10.1427 16.6101 8.63012 16.6101 6.93888C16.6101 4.51711 14.7663 2.54688 12.5 2.54688Z" fill="#338216"/>
<path d="M12.5113 10.2881H12.5C12.2303 10.2881 12.0117 10.5217 12.0117 10.8098C12.0117 11.098 12.2303 11.3316 12.5 11.3316H12.5113C12.781 11.3316 12.9996 11.098 12.9996 10.8098C12.9996 10.5217 12.781 10.2881 12.5113 10.2881Z" fill="#338216"/>
<path d="M12.506 0H12.5C12.2303 0 12.0117 0.233594 12.0117 0.521764C12.0117 0.809934 12.2303 1.04353 12.5 1.04353H12.506C12.7757 1.04353 12.9943 0.809934 12.9943 0.521764C12.9943 0.233646 12.7757 0 12.506 0Z" fill="#338216"/>
<path d="M14.0164 5.32763C13.6125 4.89597 13.0754 4.6582 12.5041 4.6582C11.9328 4.6582 11.3957 4.89592 10.9918 5.32757C10.1579 6.21864 10.1579 7.66857 10.9918 8.55964C11.4088 9.00523 11.9563 9.22802 12.5041 9.22797C13.0517 9.22792 13.5995 9.00512 14.0164 8.55964C14.4204 8.12804 14.6428 7.55415 14.6428 6.94363C14.6428 6.33322 14.4204 5.75933 14.0164 5.32763ZM13.3259 7.82187C12.8728 8.30612 12.1354 8.30606 11.6823 7.82187C11.2292 7.33767 11.2292 6.54981 11.6823 6.06561C11.9018 5.83102 12.1936 5.70189 12.5041 5.70189C12.8145 5.70189 13.1063 5.83108 13.3259 6.06561C13.5454 6.30014 13.6662 6.612 13.6662 6.94374C13.6663 7.27542 13.5454 7.58728 13.3259 7.82187Z" fill="#338216"/>
<path d="M9.40042 14.956C8.3303 13.8126 6.76419 13.3903 5.31307 13.8541C5.05472 13.9367 4.90795 14.2274 4.98519 14.5035C5.06249 14.7796 5.33461 14.9366 5.59291 14.8539C6.6995 14.5003 7.89388 14.822 8.70985 15.694C9.93162 16.9995 9.93162 19.1238 8.70985 20.4294C8.09891 21.0823 7.29661 21.4087 6.49408 21.4086C5.69174 21.4085 4.8891 21.0821 4.27831 20.4294C3.42494 19.5175 3.13827 18.1928 3.53017 16.9722C3.61767 16.6996 3.48183 16.4028 3.22675 16.3093C2.97182 16.2158 2.69394 16.361 2.60644 16.6335C2.09262 18.2341 2.46865 19.9714 3.58778 21.1673C4.38905 22.0235 5.44159 22.4516 6.49408 22.4516C7.54657 22.4516 8.59915 22.0234 9.40042 21.1672C11.003 19.4548 11.003 16.6685 9.40042 14.956Z" fill="#338216"/>
<path d="M4.27836 14.9545C4.08769 14.7508 3.77851 14.7508 3.58779 14.9545L3.57978 14.9631C3.38911 15.1669 3.38911 15.4973 3.57978 15.7011C3.67514 15.803 3.80014 15.8539 3.92509 15.8539C4.05004 15.8539 4.17504 15.803 4.27036 15.7011L4.27836 15.6925C4.46904 15.4887 4.46904 15.1583 4.27836 14.9545Z" fill="#338216"/>
<path d="M11.0862 22.23C10.8955 22.0262 10.5863 22.0262 10.3956 22.23L10.3913 22.2346C10.2007 22.4383 10.2007 22.7687 10.3913 22.9725C10.4867 23.0744 10.6117 23.1253 10.7366 23.1253C10.8616 23.1253 10.9866 23.0744 11.0819 22.9725L11.0862 22.9679C11.2768 22.7641 11.2768 22.4338 11.0862 22.23Z" fill="#338216"/>
<path d="M6.48832 15.7744C5.30903 15.7744 4.34956 16.7996 4.34956 18.0598C4.34956 19.3201 5.30903 20.3452 6.48832 20.3452C7.66762 20.3452 8.62704 19.32 8.62704 18.0598C8.62704 16.7997 7.66762 15.7744 6.48832 15.7744ZM6.48832 19.3017C5.84745 19.3017 5.32612 18.7447 5.32612 18.0599C5.32612 17.3751 5.84745 16.818 6.48832 16.818C7.12914 16.818 7.65048 17.3751 7.65048 18.0599C7.65048 18.7447 7.12914 19.3017 6.48832 19.3017Z" fill="#338216"/>
<path d="M24.5117 23.9567H21.9321C22.3481 23.6803 22.7398 23.3504 23.0979 22.9677C24.3245 21.6571 25 19.9144 25 18.0608C25 16.2072 24.3245 14.4646 23.0979 13.1539C21.8713 11.8432 20.2405 11.1214 18.5059 11.1214C18.212 11.1214 17.9212 11.1426 17.6347 11.1834C18.4863 10.0093 18.9941 8.53684 18.9941 6.93972C18.9941 3.7711 16.9909 1.00732 14.1226 0.218726C13.8614 0.146932 13.5952 0.314992 13.5281 0.594031C13.4609 0.873123 13.6181 1.15754 13.8793 1.22933C16.3158 1.89928 18.0175 4.24747 18.0175 6.93972C18.0175 10.1908 15.5424 12.8357 12.5 12.8357C9.45755 12.8357 6.98241 10.1908 6.98241 6.93972C6.98241 4.24742 8.68411 1.89928 11.1207 1.22938C11.3819 1.15759 11.5391 0.873123 11.4719 0.594083C11.4047 0.315044 11.1385 0.147088 10.8774 0.218778C8.00907 1.00737 6.00585 3.7711 6.00585 6.93972C6.00585 8.53679 6.51361 10.0093 7.36532 11.1833C7.07884 11.1425 6.78802 11.1213 6.49413 11.1213C4.75951 11.1213 3.12866 11.8431 1.9021 13.1538C0.675487 14.4646 0 16.2072 0 18.0608C0 19.9144 0.675487 21.6571 1.9021 22.9677C2.2602 23.3504 2.6519 23.6803 3.06782 23.9567H0.48828C0.218603 23.9567 0 24.1903 0 24.4785C0 24.7667 0.218603 25.0003 0.48828 25.0003H24.5117C24.7813 25.0003 25 24.7667 25 24.4785C25 24.1903 24.7813 23.9567 24.5117 23.9567ZM12.5 13.8792C12.7939 13.8792 13.0832 13.8578 13.3669 13.8172C13.0075 14.3133 12.7179 14.8519 12.5 15.4169C12.282 14.8519 11.9924 14.3132 11.633 13.8172C11.9167 13.8579 12.206 13.8792 12.5 13.8792ZM18.3879 23.9567C17.4647 23.9363 16.5394 23.6692 15.7024 23.1408C15.4703 22.9942 15.1708 23.0765 15.0336 23.3247C14.9183 23.5333 14.9549 23.7923 15.1073 23.9567H9.89256C10.045 23.7923 10.0816 23.5333 9.96629 23.3247C9.82913 23.0765 9.52972 22.9942 9.29754 23.1408C8.46112 23.6688 7.53661 23.9359 6.6142 23.9567H6.38285C4.99491 23.9259 3.62875 23.3371 2.59262 22.2299C0.441308 19.931 0.441308 16.1906 2.59262 13.8918C4.74394 11.5929 8.24432 11.5929 10.3956 13.8918C11.4253 14.992 11.9758 16.4406 12.011 17.9141C12.009 18.0161 12.0091 18.1182 12.0112 18.2203C11.9871 19.1956 11.7369 20.1721 11.2481 21.0564C11.1109 21.3045 11.188 21.6245 11.4201 21.771C11.6523 21.9176 11.9517 21.8353 12.0889 21.5872C12.247 21.3011 12.3838 21.0067 12.4999 20.7065C12.616 21.0067 12.7528 21.3011 12.911 21.5872C13.0481 21.8353 13.3475 21.9175 13.5797 21.771C13.8119 21.6245 13.8889 21.3045 13.7518 21.0564C13.2629 20.1721 13.0128 19.1956 12.9886 18.2203C12.9908 18.1182 12.9909 18.0161 12.9888 17.9142C13.024 16.4406 13.5746 14.992 14.6043 13.8918C16.7556 11.5929 20.256 11.5929 22.4073 13.8918C24.5586 16.1906 24.5586 19.931 22.4073 22.2299C21.3708 23.3374 20.0041 23.9262 18.6156 23.9567H18.3879Z" fill="#338216"/>
</svg>
