<svg width="40" height="30" viewBox="0 0 40 30" fill="none" xmlns="http://www.w3.org/2000/svg">
<path d="M39.6567 17.5247L33.5801 12.8764C33.3603 12.7083 33.0623 12.6138 32.7515 12.6138H30.3906V11.5991C30.3906 11.3182 30.5577 11.0591 30.849 10.888C31.1405 10.717 31.511 10.6608 31.8658 10.7333L34.1455 11.2003C35.3466 11.4464 36.6016 11.2556 37.5882 10.6763C38.5748 10.0972 39.1407 9.21938 39.1407 8.26805C39.1407 7.53777 38.7964 6.83169 38.1711 6.27986L35.0781 3.55004V0.896414C35.0781 0.401355 34.5534 0 33.9062 0H32.3438C30.7913 0 29.4706 0.773785 29.0061 1.84363C27.5677 1.99135 26.2087 2.45737 25.1021 3.19225C23.7432 4.09476 22.8556 5.34233 22.603 6.70518L21.999 9.96233C21.9718 10.1087 21.8055 10.2191 21.6123 10.2191H12.5C10.6648 10.2191 8.96227 10.6617 7.56469 11.4143H5.85938C2.62852 11.4143 0 13.425 0 15.8964V17.4502C0 17.9453 0.524687 18.3466 1.17188 18.3466C1.81906 18.3466 2.34375 17.9453 2.34375 17.4502V15.8964C2.34375 14.5679 3.60984 13.4621 5.26734 13.2461C4.40625 14.27 3.90625 15.4875 3.90625 16.7928V29.1036C3.90625 29.5986 4.43094 30 5.07812 30H14.4532C15.1004 30 15.6251 29.5986 15.6251 29.1036V21.4657C16.1509 21.5313 16.6861 21.5647 17.2266 21.5647C18.9138 21.5647 20.549 21.2403 22.0097 20.6209L26.4844 24.0927V29.1036C26.4844 29.5986 27.0091 30 27.6562 30H32.3438C32.9909 30 33.5156 29.5986 33.5156 29.1036V21.9323C33.5156 21.7576 33.4489 21.5868 33.3237 21.4407L30.8313 18.5331L30.9505 18.4712L34.6849 21.3278C34.9137 21.5028 35.2137 21.5904 35.5135 21.5904C35.8134 21.5904 36.1134 21.5028 36.3421 21.3278L39.6567 18.7923C40.1145 18.4424 40.1145 17.8747 39.6567 17.5247ZM20.2344 12.012V13.2968C20.2344 14.5655 18.8851 15.5976 17.2266 15.5976C15.568 15.5976 14.2188 14.5655 14.2188 13.2968V12.012H20.2344ZM13.2813 28.2072H10.9375L10.9376 21.5622L12.3827 20.5949C12.6754 20.7211 12.9754 20.8349 13.2813 20.937V28.2072ZM31.1719 28.2072H28.8281V23.7251C28.8281 23.4896 28.7069 23.2634 28.4908 23.0958L23.022 18.8528C22.622 18.5424 21.9883 18.497 21.5201 18.7453C18.952 20.1064 15.5011 20.1063 12.933 18.7453C12.4913 18.5111 11.8981 18.5368 11.4939 18.8075L8.99391 20.4809C8.73961 20.6511 8.59375 20.897 8.59375 21.1554V28.2072H6.25V16.7928C6.25 14.318 8.72109 12.2766 11.875 12.0359V13.2968C11.875 15.554 14.2757 17.3904 17.2266 17.3904C20.1774 17.3904 22.5781 15.554 22.5781 13.2968V11.8755C23.486 11.6103 24.177 10.9832 24.3195 10.214L24.9235 6.95695C25.2798 5.03498 27.4623 3.58566 30 3.58566C30.6472 3.58566 31.1719 3.1843 31.1719 2.68924C31.1719 2.19496 31.6976 1.79283 32.3438 1.79283H32.7344V3.88446C32.7344 4.10014 32.836 4.30859 33.0207 4.47155L36.4 7.45416C36.6559 7.68006 36.797 7.96912 36.797 8.26811C36.797 8.65763 36.5653 9.01691 36.1613 9.25404C35.7574 9.49123 35.2438 9.56928 34.7518 9.46859L32.4721 9.00155C31.408 8.78355 30.2961 8.95267 29.4221 9.46584C28.5481 9.97889 28.0469 10.7564 28.0469 11.5992V18.2869C28.0469 18.4615 28.1136 18.6323 28.2388 18.7784L31.1719 22.2V28.2072ZM35.5135 19.4263L31.9227 16.6796C31.6962 16.5063 31.3961 16.417 31.0938 16.417C30.8656 16.417 30.6363 16.4678 30.4361 16.5717L30.3906 16.5953V14.4066H32.2661L37.1709 18.1585L35.5135 19.4263Z" fill="#338216"/>
</svg>
