<svg width="20" height="20" viewBox="0 0 20 20" fill="none" xmlns="http://www.w3.org/2000/svg">
<path d="M9.0108 16.087L8.96205 16.0382C8.80947 15.8857 8.5622 15.8857 8.40957 16.0382C8.25703 16.1907 8.25703 16.4381 8.40957 16.5907L8.45836 16.6395C8.53466 16.7157 8.63462 16.7539 8.73458 16.7539C8.83455 16.7539 8.93451 16.7157 9.0108 16.6395C9.16335 16.4869 9.16335 16.2396 9.0108 16.087Z" fill="#338216"/>
<path d="M14.2126 14.7657L9.69195 10.2453C9.61867 10.172 9.51933 10.1309 9.41573 10.1309C9.31213 10.1309 9.21276 10.172 9.13951 10.2453L7.50442 11.8804C7.35188 12.0329 7.35188 12.2802 7.50442 12.4328L12.025 16.9532C12.0983 17.0265 12.1977 17.0677 12.3012 17.0677C12.4048 17.0677 12.5042 17.0265 12.5775 16.9532L14.2126 15.3182C14.3651 15.1656 14.3651 14.9183 14.2126 14.7657ZM12.3012 16.1246L8.33304 12.1566L9.41573 11.0739L13.3839 15.0419L12.3012 16.1246Z" fill="#338216"/>
<path d="M9.11725 8.53039C8.96467 8.37789 8.71741 8.37789 8.56479 8.53039L8.42666 8.66852C8.27412 8.82105 8.27412 9.0684 8.42666 9.22098C8.50299 9.29723 8.60291 9.33539 8.70291 9.33539C8.80291 9.33539 8.90284 9.29723 8.97913 9.22098L9.11725 9.08285C9.26979 8.93031 9.26979 8.68297 9.11725 8.53039Z" fill="#338216"/>
<path d="M10.3603 7.60988L10.2222 7.4718C10.0696 7.3193 9.82233 7.3193 9.66971 7.4718C9.51716 7.62434 9.51716 7.87168 9.66971 8.02426L9.80783 8.16234C9.88413 8.23859 9.98409 8.27676 10.0841 8.27676C10.184 8.27676 10.284 8.23859 10.3603 8.16234C10.5128 8.00977 10.5128 7.76246 10.3603 7.60988Z" fill="#338216"/>
<path d="M6.63139 11.0148C6.47881 10.8623 6.23154 10.8623 6.07895 11.0148L5.94082 11.1529C5.78828 11.3054 5.78828 11.5528 5.94082 11.7054C6.01712 11.7816 6.11708 11.8198 6.21704 11.8198C6.31701 11.8198 6.41697 11.7816 6.49326 11.7054L6.63139 11.5672C6.78393 11.4147 6.78393 11.1673 6.63139 11.0148Z" fill="#338216"/>
<path d="M11.6031 8.85207L11.465 8.71398C11.3124 8.56148 11.0651 8.56148 10.9125 8.71398C10.76 8.86652 10.76 9.11387 10.9125 9.26645L11.0506 9.40453C11.1269 9.48078 11.2269 9.51895 11.3268 9.51895C11.4268 9.51895 11.5268 9.48078 11.6031 9.40453C11.7556 9.25199 11.7556 9.00465 11.6031 8.85207Z" fill="#338216"/>
<path d="M5.38842 11.8716L5.25037 11.7335C5.09779 11.581 4.85052 11.581 4.6979 11.7335C4.54536 11.8861 4.54536 12.1334 4.6979 12.286L4.83599 12.4241C4.91228 12.5003 5.01224 12.5385 5.11221 12.5385C5.21217 12.5385 5.31213 12.5003 5.38842 12.4241C5.54097 12.2715 5.54097 12.0242 5.38842 11.8716Z" fill="#338216"/>
<path d="M7.87431 9.77258C7.72173 9.62008 7.47445 9.62008 7.32183 9.77258L7.18374 9.91066C7.0312 10.0632 7.0312 10.3105 7.18374 10.4631C7.26003 10.5394 7.36 10.5775 7.45996 10.5775C7.55993 10.5775 7.65993 10.5394 7.73622 10.4631L7.87431 10.325C8.02685 10.1725 8.02685 9.92515 7.87431 9.77258Z" fill="#338216"/>
<path d="M4.14541 10.6289L4.00736 10.4909C3.88048 10.3641 3.68836 10.343 3.53942 10.4271C3.72848 10.1976 3.84216 9.90379 3.84216 9.58395C3.84216 8.85164 3.24636 8.25586 2.51404 8.25586C1.78171 8.25586 1.18591 8.85164 1.18591 9.58395C1.18591 10.3162 1.78171 10.912 2.51404 10.912C2.84733 10.912 3.15206 10.7884 3.38547 10.5849C3.30765 10.7324 3.33078 10.9192 3.45488 11.0433L3.59297 11.1814C3.66926 11.2576 3.76923 11.2958 3.86919 11.2958C3.96915 11.2958 4.06912 11.2576 4.14541 11.1814C4.29795 11.0288 4.29795 10.7814 4.14541 10.6289ZM2.51404 10.1308C2.21246 10.1308 1.96715 9.88547 1.96715 9.58391C1.96715 9.28234 2.21246 9.03703 2.51404 9.03703C2.81561 9.03703 3.06093 9.28234 3.06093 9.58391C3.06093 9.88547 2.81557 10.1308 2.51404 10.1308Z" fill="#338216"/>
<path d="M14.1321 10.4306C13.9164 10.4306 13.7414 10.6055 13.7414 10.8212V10.9904L13.2423 10.4913C13.0897 10.3388 12.8425 10.3388 12.6899 10.4913C12.5373 10.6439 12.5373 10.8912 12.6899 11.0438L13.2427 11.5966H12.9661C12.7504 11.5966 12.5754 11.7716 12.5754 11.9873C12.5754 12.203 12.7504 12.3779 12.9661 12.3779H14.132C14.3478 12.3779 14.5227 12.203 14.5227 11.9873V10.8213C14.5227 10.6055 14.3478 10.4306 14.1321 10.4306Z" fill="#338216"/>
<path d="M17.8128 2.20312C17.597 2.20312 17.4221 2.37805 17.4221 2.59375V5.46172C17.4221 5.67742 17.597 5.85234 17.8128 5.85234C18.0285 5.85234 18.2034 5.67746 18.2034 5.46172V2.59375C18.2034 2.37805 18.0285 2.20312 17.8128 2.20312Z" fill="#338216"/>
<path d="M18.0889 6.69453C18.0163 6.62187 17.9155 6.58008 17.8128 6.58008C17.71 6.58008 17.6092 6.62191 17.5366 6.69453C17.4639 6.76719 17.4221 6.86797 17.4221 6.9707C17.4221 7.07344 17.4639 7.17422 17.5366 7.24687C17.6092 7.31953 17.71 7.36133 17.8128 7.36133C17.9155 7.36133 18.0163 7.31949 18.0889 7.24687C18.1616 7.17422 18.2034 7.07344 18.2034 6.9707C18.2034 6.86797 18.1616 6.76758 18.0889 6.69453Z" fill="#338216"/>
<path d="M17.5536 0C16.404 0 15.4687 0.935195 15.4687 2.0848V2.41937H0.390636C0.174927 2.41937 0 2.5943 0 2.81V19.6094C0 19.8251 0.174927 20 0.390636 20H17.115C18.7058 20 20 18.7058 20 17.115V2.44629C20 1.09742 18.9025 0 17.5536 0ZM16.25 2.0848C16.25 1.36602 16.8348 0.78125 17.5536 0.78125C18.4718 0.78125 19.2188 1.52816 19.2188 2.44633V15.3251C18.7817 14.9182 18.1964 14.6687 17.5536 14.6687C17.0606 14.6687 16.6073 14.8411 16.25 15.1282V2.0848ZM6.17658 3.23645C6.18798 3.22504 6.19822 3.21301 6.2079 3.20062H15.4688V8.93949L10.667 4.13793C10.5145 3.98547 10.2672 3.98543 10.1146 4.13793L7.6499 6.6025L5.23014 4.18285L6.17658 3.23645ZM17.115 19.2188H13.5245L14.3683 18.375C14.5209 18.2224 14.5209 17.9751 14.3683 17.8225C14.2158 17.67 13.9685 17.67 13.8158 17.8225L12.4195 19.2188H12.1412C12.1362 19.2132 12.1314 19.2074 12.126 19.202L10.0556 17.1316C9.903 16.9791 9.65573 16.9791 9.50311 17.1316C9.35057 17.2842 9.35057 17.5315 9.50311 17.6841L11.0378 19.2188H1.27253L6.15525 14.3362L7.37446 15.5554C7.52704 15.7079 7.77431 15.7079 7.92694 15.5554C8.07948 15.4029 8.07948 15.1555 7.92694 15.0029L6.4315 13.5075C6.27892 13.355 6.03165 13.355 5.87903 13.5075L0.781271 18.6052V14.5664C0.800452 14.5531 0.818811 14.5383 0.835882 14.5212L3.06938 12.2878C3.22192 12.1353 3.22192 11.8879 3.06938 11.7354C2.91684 11.5829 2.66957 11.5829 2.5169 11.7354L0.781193 13.471V8.62215C0.800373 8.60891 0.818733 8.59406 0.835804 8.57699L3.09411 6.31875L5.51386 8.73844L4.72396 9.52828C4.57141 9.68082 4.57141 9.92816 4.72396 10.0807C4.80025 10.157 4.90021 10.1952 5.00018 10.1952C5.10014 10.1952 5.2001 10.157 5.27639 10.0807L6.34252 9.01469C6.41576 8.94145 6.45693 8.84207 6.45693 8.73848C6.45693 8.63488 6.41576 8.53555 6.34252 8.46227L3.37037 5.49008C3.29708 5.41684 3.19774 5.37566 3.09415 5.37566C2.99055 5.37566 2.89121 5.41684 2.81793 5.49008L0.781193 7.52676V3.20062H5.10744L4.40145 3.9066C4.24891 4.05914 4.24891 4.30648 4.40145 4.45906L7.37364 7.43117C7.52622 7.58363 7.77349 7.58371 7.92612 7.43117L10.3908 4.9666L15.4687 10.0444V16.7534C15.4687 17.7387 16.2703 18.5403 17.2556 18.5403C18.1055 18.5403 18.797 17.8489 18.797 16.999C18.797 16.7833 18.6221 16.6084 18.4064 16.6084C18.1907 16.6084 18.0157 16.7833 18.0157 16.999C18.0157 17.4181 17.6747 17.7591 17.2556 17.7591C16.7011 17.7591 16.25 17.3079 16.25 16.7534C16.25 16.0346 16.8348 15.4499 17.5536 15.4499C18.4717 15.4499 19.2187 16.1968 19.2187 17.115C19.2188 18.275 18.275 19.2188 17.115 19.2188Z" fill="#338216"/>
</svg>
