<svg width="20" height="25" viewBox="0 0 20 25" fill="none" xmlns="http://www.w3.org/2000/svg">
<path d="M10 4.49805C7.22576 4.49805 4.96881 6.54156 4.96881 9.05337C4.96881 11.5652 7.22582 13.6087 10 13.6087C12.7742 13.6087 15.0312 11.5652 15.0312 9.05337C15.0312 6.54156 12.7742 4.49805 10 4.49805ZM10 11.9782C8.21872 11.9782 6.76963 10.6662 6.76963 9.05337C6.76963 7.44058 8.21877 6.12852 10 6.12852C11.7812 6.12852 13.2304 7.44058 13.2304 9.05337C13.2304 10.6662 11.7812 11.9782 10 11.9782Z" fill="#144602"/>
<path d="M10 0C4.48597 0 0 4.06163 0 9.05402C0 15.2497 8.94902 24.3454 9.33003 24.7296C9.68791 25.0905 10.3127 25.0898 10.67 24.7296C11.051 24.3454 20 15.2497 20 9.05402C19.9999 4.06163 15.514 0 10 0ZM10 22.936C6.98819 19.6968 1.80082 13.3063 1.80082 9.05411C1.80082 4.96065 5.47892 1.63047 10 1.63047C14.5211 1.63047 18.1992 4.96065 18.1992 9.05406C18.1991 13.3064 13.0126 19.6958 10 22.936Z" fill="#144602"/>
</svg>
