<svg width="20" height="20" viewBox="0 0 20 20" fill="none" xmlns="http://www.w3.org/2000/svg">
<g opacity="0.75">
<path d="M19.1673 20H0.832653C0.371429 20 0 19.6286 0 19.1674C0 16.4449 1.06122 13.8939 2.98367 11.9837C4.22449 10.751 5.97551 10.0449 7.78367 10.0449H12.2163C14.0286 10.0449 15.7755 10.751 17.0163 11.9837C18.9388 13.8939 20 16.4449 20 19.1674C20 19.6286 19.6286 20 19.1673 20ZM1.70612 18.3347H18.2939C18.1061 16.3755 17.249 14.5633 15.8408 13.1674C14.9102 12.2449 13.5878 11.7143 12.2163 11.7143H7.78367C6.40816 11.7143 5.0898 12.2449 4.15918 13.1674C2.75102 14.5633 1.89388 16.3755 1.70612 18.3347Z" fill="#144602"/>
<path d="M10 9.4449C7.39595 9.4449 5.27759 7.32653 5.27759 4.72245C5.27759 2.11837 7.39595 0 10 0C12.6041 0 14.7225 2.11837 14.7225 4.72245C14.7225 7.32653 12.6041 9.4449 10 9.4449ZM10 1.66531C8.31432 1.66531 6.94289 3.03673 6.94289 4.72245C6.94289 6.40816 8.31432 7.77959 10 7.77959C11.6858 7.77959 13.0572 6.40816 13.0572 4.72245C13.0572 3.03673 11.6858 1.66531 10 1.66531Z" fill="#144602"/>
</g>
</svg>
