<svg width="25" height="30" viewBox="0 0 25 30" fill="none" xmlns="http://www.w3.org/2000/svg">
<path d="M8.31017 30H4.1203C3.58023 30 3.14238 29.6065 3.14238 29.1211V26.2344H0.97792C0.437847 26.2344 0 25.8408 0 25.3554V21.5898C0 21.1044 0.437847 20.7109 0.97792 20.7109H3.14238V18.7031H0.97792C0.437847 18.7031 0 18.3096 0 17.8242V14.0586C0 13.5732 0.437847 13.1797 0.97792 13.1797H3.14238V0.878906C3.14238 0.393516 3.58023 0 4.1203 0H14.5949C20.3323 0 25 4.19508 25 9.35156C25 14.5162 20.3511 18.7031 14.5949 18.7031H9.28809V20.711H15.6424C16.1825 20.711 16.6203 21.1045 16.6203 21.5899V25.3555C16.6203 25.8409 16.1825 26.2344 15.6424 26.2344H9.28809V29.1211C9.28809 29.6065 8.85031 30 8.31017 30V30ZM5.09829 28.2422H7.33231V25.3554C7.33231 24.8701 7.77016 24.4765 8.31023 24.4765H14.6645V22.4687H8.31017C7.7701 22.4687 7.33225 22.0752 7.33225 21.5898V17.8242C7.33225 17.3388 7.7701 16.9453 8.31017 16.9453H14.5949C19.2612 16.9453 23.0442 13.5524 23.0442 9.35156C23.0442 5.16434 19.2539 1.75781 14.5949 1.75781H5.09829V14.0586C5.09829 14.544 4.66044 14.9375 4.12037 14.9375H1.9559V16.9453H4.12037C4.66044 16.9453 5.09829 17.3388 5.09829 17.8242V21.5899C5.09829 22.0753 4.66044 22.4688 4.12037 22.4688H1.9559V24.4766H4.12037C4.66044 24.4766 5.09829 24.8701 5.09829 25.3555V28.2422Z" fill="#F5B437"/>
<path d="M13.595 14.9375H7.3102C6.77012 14.9375 6.33228 14.5439 6.33228 14.0586V4.64453C6.33228 4.15914 6.77012 3.76562 7.3102 3.76562H13.595C17.022 3.76562 19.8102 6.2715 19.8102 9.35154C19.8102 12.4316 17.022 14.9375 13.595 14.9375ZM8.28805 13.1796H13.5949C15.9435 13.1796 17.8543 11.4624 17.8543 9.35154C17.8543 7.2407 15.9435 5.52344 13.5949 5.52344H8.28805V13.1796Z" fill="#F5B437"/>
</svg>
