<svg width="30" height="30" viewBox="0 0 30 30" fill="none" xmlns="http://www.w3.org/2000/svg">
<path d="M29.9217 11.3366C29.7254 10.7028 29.1866 10.2525 28.5491 10.1926L19.8903 9.37216L16.4664 1.00959C16.2139 0.396717 15.6389 0 15.0001 0C14.3613 0 13.7863 0.396717 13.5339 1.01102L10.1099 9.37216L1.44977 10.1926C0.813461 10.254 0.276034 10.7028 0.0785045 11.3366C-0.119025 11.9705 0.063398 12.6658 0.544748 13.1041L7.08978 19.0938L5.1598 27.9651C5.01858 28.6173 5.2612 29.2916 5.77986 29.6828C6.05864 29.893 6.38481 30 6.71372 30C6.99731 30 7.27861 29.9202 7.53107 29.7626L15.0001 25.1045L22.4664 29.7626C23.0128 30.1056 23.7015 30.0743 24.219 29.6828C24.7379 29.2904 24.9803 28.6159 24.8391 27.9651L22.9091 19.0938L29.4541 13.1053C29.9355 12.6658 30.1193 11.9717 29.9217 11.3366Z" fill="#F4F4F4"/>
</svg>
