<svg width="20" height="20" viewBox="0 0 20 20" fill="none" xmlns="http://www.w3.org/2000/svg">
<path opacity="0.75" d="M19.4141 0H0.585938C0.262344 0 0 0.262344 0 0.585938V15.6484C0 15.972 0.262344 16.2344 0.585938 16.2344H3.76562V19.4141C3.76562 19.6511 3.9084 19.8647 4.12734 19.9554C4.19984 19.9854 4.27598 20 4.35145 20C4.50395 20 4.65383 19.9405 4.7659 19.8284L8.35988 16.2343H19.4141C19.7377 16.2343 20 15.972 20 15.6484V0.585938C20 0.262344 19.7377 0 19.4141 0ZM17.7437 1.17188L10 7.3668L2.25633 1.17188H17.7437ZM18.8281 15.0625H8.11719C7.96176 15.0625 7.81273 15.1243 7.70285 15.2341L4.9375 17.9995V15.6484C4.9375 15.3248 4.67516 15.0625 4.35156 15.0625H1.17188V1.80508L9.63398 8.57473C9.74098 8.66031 9.87051 8.70312 10 8.70312C10.1295 8.70312 10.2591 8.66031 10.3661 8.57473L18.8281 1.80504V15.0625Z" fill="#144602"/>
</svg>
