<svg width="20" height="20" viewBox="0 0 20 20" fill="none" xmlns="http://www.w3.org/2000/svg">
<g opacity="0.75">
<path d="M10 0C4.47718 0 0 4.47754 0 10C0 15.5225 4.47718 20 10 20C15.5228 20 20 15.5218 20 10C20 4.47754 15.5235 0 10 0ZM10 18.0745C5.54721 18.0745 1.92567 14.4525 1.92567 10C1.92567 5.5475 5.54721 1.92555 10 1.92555C14.4528 1.92555 18.0743 5.5475 18.0743 10C18.0743 14.4531 14.4528 18.0745 10 18.0745Z" fill="#144602"/>
<path d="M14.2179 9.35818H11.3666C11.217 9.03919 10.9603 8.78309 10.6419 8.63354V3.9397C10.6419 3.5854 10.3556 3.29785 10 3.29785C9.64506 3.29785 9.35814 3.5854 9.35814 3.9397V8.63354C8.84398 8.87551 8.48645 9.39413 8.48645 10C8.48645 10.8364 9.16429 11.5142 10 11.5142C10.606 11.5142 11.1246 11.1554 11.3666 10.6419H14.2179C14.5728 10.6419 14.8598 10.3543 14.8598 10C14.8598 9.64573 14.5728 9.35818 14.2179 9.35818Z" fill="#144602"/>
</g>
</svg>
