<svg width="40" height="35" viewBox="0 0 40 35" fill="none" xmlns="http://www.w3.org/2000/svg">
<path d="M35.0937 11.7708C35.1028 11.6429 35.1074 11.5147 35.1074 11.3866C35.1074 7.81064 31.6226 4.90145 27.339 4.90145C27.0048 4.90145 26.6722 4.91923 26.3427 4.95457C25.632 3.66462 24.5478 2.54735 23.1598 1.68438C21.3876 0.582424 19.2799 0 17.0646 0C11.4321 0 6.84976 3.82541 6.84976 8.52739C6.84976 8.7367 6.85893 8.94582 6.8772 9.15424C5.20369 9.45756 3.6716 10.1662 2.45764 11.2141C0.872823 12.5822 0 14.3841 0 16.2878C0 19.1743 2.01915 21.7533 5.11141 22.9297C5.35166 24.1873 6.06611 25.3446 7.17501 26.2491C8.51803 27.3445 10.2918 27.9478 12.1697 27.9478C13.4095 27.9478 14.6115 27.6816 15.6719 27.1833V29.5916L11.9287 35H28.0713L24.3282 29.5916V27.1833C25.3887 27.6816 26.5907 27.9478 27.8303 27.9478C29.6399 27.9478 31.3664 27.3821 32.692 26.3548C33.7464 25.5377 34.472 24.4879 34.7926 23.3365C37.8244 22.5798 40 20.2152 40 17.5131C40.0002 14.8954 37.9694 12.6035 35.0937 11.7708ZM16.8078 32.6494L18.4877 30.222V21.3745C18.4877 20.6784 19.1662 20.1121 19.9999 20.1121C20.8337 20.1121 21.5122 20.6784 21.5122 21.3745V30.222L23.1922 32.6494H16.8078ZM33.3527 21.2006L32.2385 21.3342L32.1492 22.271C31.9712 24.1362 30.0743 25.5973 27.8305 25.5973C26.3913 25.5973 25.1165 25.0223 24.3283 24.1202V21.3746C24.3283 19.3823 22.3866 17.7615 20.0002 17.7615C17.6138 17.7615 15.6722 19.3824 15.6722 21.3746V24.1202C14.884 25.0223 13.6091 25.5973 12.17 25.5973C11.0319 25.5973 9.95693 25.2317 9.14314 24.5679C8.33059 23.9052 7.86744 23.0187 7.83878 22.072L7.81389 21.2466L6.87539 20.9861C4.44747 20.3123 2.81606 18.4243 2.81606 16.2879C2.81606 13.6108 5.32529 11.4381 8.52867 11.3415L10.2282 11.2902L9.85064 9.90586C9.72797 9.45619 9.66574 8.99237 9.66574 8.52739C9.66574 5.12157 12.9848 2.35075 17.0646 2.35075C20.3094 2.35075 23.1453 4.08469 24.1213 6.66548L24.5423 7.77858L25.8785 7.43486C26.3501 7.31359 26.8416 7.25207 27.3392 7.25207C30.0699 7.25207 32.2917 9.10674 32.2917 11.3865C32.2917 11.7192 32.2431 12.0527 32.1474 12.3775L31.7739 13.6457L33.3238 13.8227C35.5246 14.0739 37.1843 15.6605 37.1843 17.5132C37.1843 19.3538 35.537 20.9391 33.3527 21.2006Z" fill="#338216"/>
</svg>
