<svg width="40" height="30" viewBox="0 0 40 30" fill="none" xmlns="http://www.w3.org/2000/svg">
<path d="M39.3606 13.5989L24.9152 0.575795C24.5029 0.20405 23.9533 0 23.3673 0C22.7806 0 22.2314 0.204343 21.819 0.575795L20.5075 1.75846C20.0954 2.12962 19.8684 2.62538 19.8684 3.15398C19.8684 3.68228 20.0954 4.19475 20.5075 4.56591L28.9347 12.18H2.16096C0.953813 12.18 0 13.0319 0 14.1205V15.7925C0 16.881 0.953813 17.8189 2.16096 17.8189H29.0303L20.5078 25.4754C20.0958 25.8472 19.8688 26.3295 19.8688 26.858C19.8688 27.3861 20.0958 27.8754 20.5078 28.2468L21.8193 29.4257C22.2317 29.7974 22.7809 30 23.3676 30C23.9536 30 24.5032 29.7948 24.9156 29.423L39.361 16.4002C39.7743 16.0273 40.0016 15.5295 40 15.0003C40.0013 14.4694 39.7743 13.9713 39.3606 13.5989Z" fill="#338216"/>
</svg>
